SplineFontDB: 3.0
FontName: Bodoni*-6-FatfaceItalic
FullName: Bodoni* 6 Fatface Italic
FamilyName: Bodoni* 6 Fatface
Weight: Fatface
Copyright: 
Version: 1.000; ttfautohint (v1.3)
ItalicAngle: -13
UnderlinePosition: -100
UnderlineWidth: 50
Ascent: 800
Descent: 200
InvalidEm: 0
sfntRevision: 0x00010000
LayerCount: 2
Layer: 0 1 "Back" 1
Layer: 1 1 "Fore" 0
XUID: [1021 266 -223186452 9452271]
StyleMap: 0x0001
FSType: 0
OS2Version: 3
OS2_WeightWidthSlopeOnly: 0
OS2_UseTypoMetrics: 0
CreationTime: -779900200
ModificationTime: 1480182651
PfmFamily: 17
TTFWeight: 900
TTFWidth: 5
LineGap: 100
VLineGap: 0
Panose: 2 7 8 3 7 6 0 0 0 3
OS2TypoAscent: 800
OS2TypoAOffset: 0
OS2TypoDescent: -200
OS2TypoDOffset: 0
OS2TypoLinegap: 100
OS2WinAscent: 900
OS2WinAOffset: 0
OS2WinDescent: 300
OS2WinDOffset: 0
HheadAscent: 900
HheadAOffset: 0
HheadDescent: -200
HheadDOffset: 0
OS2CapHeight: 730
OS2XHeight: 450
OS2Vendor: 'pyrs'
OS2CodePages: 20000093.00000000
OS2UnicodeRanges: a00000ff.5000205b.00000000.00000000
Lookup: 6 0 0 "'ordn' Ordinals lookup 0" { "'ordn' Ordinals lookup 0 contextual 0"  "'ordn' Ordinals lookup 0 contextual 1"  "'ordn' Ordinals lookup 0 contextual 2"  "'ordn' Ordinals lookup 0 contextual 3"  } ['ordn' ('DFLT' <'dflt' > ) ]
Lookup: 4 0 1 "'liga' Standard Ligatures lookup 1" { "'liga' Standard Ligatures lookup 1 subtable"  } ['liga' ('DFLT' <'dflt' > ) ]
Lookup: 4 0 0 "'frac' Diagonal Fractions lookup 2" { "'frac' Diagonal Fractions lookup 2 subtable"  } ['frac' ('DFLT' <'dflt' > ) ]
Lookup: 1 0 0 "'sups' Superscript lookup 3" { "'sups' Superscript lookup 3 subtable" ("superior") } ['sups' ('DFLT' <'dflt' > ) ]
Lookup: 1 0 0 "'sinf' Scientific Inferiors lookup 4" { "'sinf' Scientific Inferiors lookup 4 subtable"  } ['sinf' ('DFLT' <'dflt' > ) ]
Lookup: 1 0 0 "'numr' Numerators lookup 5" { "'numr' Numerators lookup 5 subtable"  } ['numr' ('DFLT' <'dflt' > ) ]

StartChar: .notdef
Encoding: 65536 -1 0
Width: 829
Flags: W
LayerCount: 2
Fore
SplineSet
137 924 m 1,0,-1
 692 924 l 1,1,-1
 692 -326 l 1,2,-1
 137 -326 l 1,3,-1
 137 924 l 1,0,-1
239 899 m 1,4,-1
 414 343 l 1,5,-1
 590 899 l 1,6,-1
 239 899 l 1,4,-1
239 -301 m 1,7,-1
 590 -301 l 1,8,-1
 414 254 l 1,9,-1
 239 -301 l 1,7,-1
231 835 m 1,10,-1
 231 -237 l 1,11,-1
 400 299 l 1,12,-1
 231 835 l 1,10,-1
598 -237 m 1,13,-1
 598 835 l 1,14,-1
 428 299 l 1,15,-1
 598 -237 l 1,13,-1
EndSplineSet
Validated: 1
EndChar

StartChar: exclam
Encoding: 33 33 4
Width: 378
Flags: W
LayerCount: 2
Fore
SplineSet
64 89.5 m 128,-1,1
 64 131.5 64 131.5 94 161 c 0,2,3
 124 191 124 191 166 191 c 128,-1,4
 208 191 208 191 238 161 c 0,5,6
 268 131.5 268 131.5 268 89.5 c 128,-1,7
 268 47.5 268 47.5 238 17.5 c 0,8,9
 208.5 -12 208.5 -12 166 -12 c 0,10,11
 124 -12 124 -12 94 18 c 0,12,0
 64 47.5 64 47.5 64 89.5 c 128,-1,1
176 224 m 1,13,14
 199 336 199 336 197 373.5 c 0,15,16
 194 438 194 438 184 502 c 1,17,-1
 175 607 l 1,18,19
 174 686 174 686 202.5 720 c 0,20,21
 237 763 237 763 292 763.5 c 128,-1,22
 347 764 347 764 370 734 c 4,23,24
 392 705 392 705 392 667 c 0,25,26
 392 627 392 627 355.5 563 c 0,27,28
 330 518 330 518 314.5 498.5 c 0,29,30
 292 469 292 469 259 396 c 128,-1,31
 226 323 226 323 206 224 c 1,32,-1
 176 224 l 1,13,14
EndSplineSet
EndChar

StartChar: numbersign
Encoding: 35 35 6
Width: 566
Flags: W
LayerCount: 2
Fore
SplineSet
88 520 m 1,0,-1
 190 520 l 1,1,-1
 228 763 l 1,2,-1
 292 763 l 1,3,-1
 254 520 l 1,4,-1
 407 520 l 1,5,-1
 445 763 l 1,6,-1
 501 763 l 1,7,-1
 463 520 l 1,8,-1
 586 520 l 1,9,-1
 586 470 l 1,10,-1
 455 470 l 1,11,-1
 425 281 l 1,12,-1
 537 281 l 1,13,-1
 537 232 l 1,14,-1
 417 232 l 1,15,-1
 381 0 l 1,16,-1
 325 0 l 1,17,-1
 361 232 l 1,18,-1
 208 232 l 1,19,-1
 172 0 l 1,20,-1
 108 0 l 1,21,-1
 144 232 l 1,22,-1
 39 232 l 1,23,-1
 39 281 l 1,24,-1
 152 281 l 1,25,-1
 182 470 l 1,26,-1
 88 470 l 1,27,-1
 88 520 l 1,0,-1
216 281 m 1,28,-1
 369 281 l 1,29,-1
 399 470 l 1,30,-1
 246 470 l 1,31,-1
 216 281 l 1,28,-1
EndSplineSet
Validated: 1
EndChar

StartChar: dollar
Encoding: 36 36 7
Width: 598
Flags: W
LayerCount: 2
Fore
SplineSet
259 -115 m 1,0,-1
 454 754 l 1,1,-1
 484 754 l 1,2,-1
 289 -115 l 1,3,-1
 259 -115 l 1,0,-1
145 -115 m 1,4,-1
 340 754 l 1,5,-1
 370 754 l 1,6,-1
 175 -115 l 1,7,-1
 145 -115 l 1,4,-1
245 21 m 0,8,9
 282 21 282 21 321 29 c 0,10,11
 390 43 390 43 420 78 c 128,-1,12
 450 113 450 113 450 137 c 0,13,14
 450 169 450 169 431 189 c 0,15,16
 404 218 404 218 334 244 c 0,17,18
 315 251 315 251 287 259 c 0,19,20
 248 270 248 270 228 278 c 0,21,22
 169 302 169 302 141.5 331.5 c 0,23,24
 105 369 105 369 105 426 c 0,25,26
 105 483.696969697 105 483.696969697 119.5 525 c 4,27,28
 136 572 136 572 175.5 607 c 128,-1,29
 215 642 215 642 266 663 c 0,30,31
 316 684 316 684 382 684 c 0,32,33
 404 684 404 684 437 677 c 0,34,35
 510 660 510 660 554.5 614 c 128,-1,36
 599 568 599 568 599 517 c 0,37,38
 599 470 599 470 579 445 c 0,39,40
 554 416 554 416 519.25 415.75 c 0,41,42
 471 416 471 416 451 443 c 0,43,44
 433 468 433 468 433 490 c 0,45,46
 433 510 433 510 441 527.5 c 128,-1,47
 449 545 449 545 463 558.5 c 128,-1,48
 477 572 477 572 492 578.5 c 128,-1,49
 507 585 507 585 507 594 c 0,50,51
 507 604 507 604 489 619 c 0,52,53
 468 636 468 636 430 646 c 0,54,55
 402 653 402 653 375 653 c 0,56,57
 367 653 367 653 353 652.5 c 128,-1,58
 339 652 339 652 317.5 647 c 0,59,60
 273 637 273 637 252 622 c 0,61,62
 218 598 218 598 206 568.5 c 0,63,64
 200 554 200 554 200 528 c 0,65,66
 200 506 200 506 211.788085938 492.5 c 0,67,68
 236.076853355 467.922232204 236.076853355 467.922232204 307 448 c 2,69,-1
 396 423 l 2,70,71
 478 400 478 400 511 349 c 0,72,73
 537 308 537 308 537 249 c 0,74,75
 537 205 537 205 521.5 154 c 128,-1,76
 506 103 506 103 478 72.5 c 0,77,78
 448 40 448 40 408.5 21 c 0,79,80
 353 -5 353 -5 303 -10 c 0,81,82
 270 -13 270 -13 246 -13 c 0,83,84
 220 -13 220 -13 198 -10 c 0,85,86
 139 -2 139 -2 107.5 13.5 c 128,-1,87
 76 29 76 29 53 54 c 128,-1,88
 30 79 30 79 19.5 104.5 c 128,-1,89
 9 130 9 130 9 153 c 0,90,91
 9 198 9 198 36 228 c 128,-1,92
 63 258 63 258 103 258 c 128,-1,93
 143 258 143 258 166.5 232 c 128,-1,94
 190 206 190 206 190 169 c 0,95,96
 190 144 190 144 173.5 125.5 c 128,-1,97
 157 107 157 107 141 98.5 c 128,-1,98
 125 90 125 90 114 85.5 c 128,-1,99
 103 81 103 81 103 71 c 0,100,101
 103 58 103 58 126 43.5 c 128,-1,102
 149 29 149 29 206 23 c 0,103,104
 224 21 224 21 245 21 c 0,8,9
EndSplineSet
EndChar

StartChar: percent
Encoding: 37 37 8
Width: 933
Flags: W
LayerCount: 2
Fore
SplineSet
276 359 m 0,0,1
 188 359 188 359 158 403.5 c 0,2,3
 130 444 130 444 130 504 c 0,4,5
 130 595 130 595 194.5 675.5 c 0,6,7
 258 754 258 754 362 754 c 0,8,9
 441 754 441 754 474 707 c 0,10,11
 500 670 500 670 500 609 c 0,12,13
 500 532 500 532 438.5 444 c 0,14,15
 378 359 378 359 276 359 c 0,0,1
360 736 m 0,16,17
 345 736 345 736 317.5 674.5 c 0,18,19
 265 559 265 559 265 432 c 0,20,21
 265 376 265 376 275 376 c 0,22,23
 291 376 291 376 319.5 437 c 0,24,25
 342 486 342 486 357.5 564.5 c 0,26,27
 370 629 370 629 370 678 c 0,28,29
 370 736 370 736 360 736 c 0,16,17
816 752 m 1,30,-1
 226 -1 l 1,31,-1
 167 -1 l 1,32,-1
 757 752 l 1,33,-1
 816 752 l 1,30,-1
650 -5 m 0,34,35
 562 -5 562 -5 532 39.5 c 0,36,37
 504 80 504 80 504 140 c 0,38,39
 504 231 504 231 568.5 311.5 c 0,40,41
 632 390 632 390 736 390 c 0,42,43
 815 390 815 390 848 343 c 0,44,45
 874 306 874 306 874 245 c 0,46,47
 874 168 874 168 812.5 80 c 0,48,49
 752 -5 752 -5 650 -5 c 0,34,35
734 372 m 0,50,51
 719 372 719 372 691.5 310.5 c 0,52,53
 639 195 639 195 639 68 c 0,54,55
 639 12 639 12 649 12 c 0,56,57
 665 12 665 12 693.5 73 c 0,58,59
 716 122 716 122 731.5 200.5 c 0,60,61
 744 265 744 265 744 314 c 0,62,63
 744 372 744 372 734 372 c 0,50,51
EndSplineSet
EndChar

StartChar: ampersand
Encoding: 38 38 9
Width: 930
Flags: W
LayerCount: 2
Back
SplineSet
680 643 m 4,0,1
 680 611 680 611 662.5 584 c 132,-1,2
 645 557 645 557 614 534.5 c 132,-1,3
 583 512 583 512 539.5 493.5 c 132,-1,4
 496 475 496 475 444 460 c 5,5,6
 458 422 458 422 475 382.5 c 132,-1,7
 492 343 492 343 509 305 c 4,8,9
 519 282 519 282 528 263 c 132,-1,10
 537 244 537 244 546 227 c 5,11,12
 570 266 570 266 590.5 310 c 132,-1,13
 611 354 611 354 634.5 391 c 132,-1,14
 658 428 658 428 688 452 c 132,-1,15
 718 476 718 476 762 476 c 260,16,17
 806 476 806 476 831 452 c 132,-1,18
 856 428 856 428 856 392 c 4,19,20
 856 364 856 364 839 340 c 132,-1,21
 822 316 822 316 784 316 c 4,22,23
 758 316 758 316 742 330 c 132,-1,24
 726 344 726 344 724 375 c 4,25,26
 723 387 723 387 722.5 400 c 132,-1,27
 722 413 722 413 711 413 c 4,28,29
 697 413 697 413 682.5 392.5 c 132,-1,30
 668 372 668 372 650.5 339.5 c 132,-1,31
 633 307 633 307 612 268 c 132,-1,32
 591 229 591 229 564 192 c 5,33,34
 586 151 586 151 604.5 125.5 c 132,-1,35
 623 100 623 100 639 86 c 132,-1,36
 655 72 655 72 669.5 66.5 c 132,-1,37
 684 61 684 61 699 61 c 4,38,39
 731 61 731 61 766 81 c 132,-1,40
 801 101 801 101 830 149 c 5,41,-1
 853 129 l 5,42,43
 819 63 819 63 762.5 26.5 c 132,-1,44
 706 -10 706 -10 616 -10 c 4,45,46
 566 -10 566 -10 527.5 5.5 c 132,-1,47
 489 21 489 21 452 66 c 5,48,49
 417 35 417 35 365.5 12 c 132,-1,50
 314 -11 314 -11 245 -11 c 4,51,52
 196 -11 196 -11 156 2 c 132,-1,53
 116 15 116 15 87.5 39.5 c 132,-1,54
 59 64 59 64 43 98.5 c 132,-1,55
 27 133 27 133 27 175 c 4,56,57
 27 221 27 221 45.5 261 c 132,-1,58
 64 301 64 301 97.5 334 c 132,-1,59
 131 367 131 367 178 392.5 c 132,-1,60
 225 418 225 418 282 435 c 5,61,62
 270 477 270 477 263 511 c 132,-1,63
 256 545 256 545 256 570 c 4,64,65
 256 605 256 605 271 640.5 c 132,-1,66
 286 676 286 676 315.5 704.5 c 132,-1,67
 345 733 345 733 389.5 750.5 c 132,-1,68
 434 768 434 768 494 768 c 4,69,70
 536 768 536 768 570.5 759 c 132,-1,71
 605 750 605 750 629 733.5 c 132,-1,72
 653 717 653 717 666.5 694 c 132,-1,73
 680 671 680 671 680 643 c 4,0,1
340 277 m 4,74,75
 326 310 326 310 314 342 c 132,-1,76
 302 374 302 374 292 404 c 5,77,78
 244 385 244 385 224.5 353.5 c 132,-1,79
 205 322 205 322 205 269 c 4,80,81
 205 228 205 228 215 188.5 c 132,-1,82
 225 149 225 149 243 117.5 c 132,-1,83
 261 86 261 86 286 66.5 c 132,-1,84
 311 47 311 47 340 47 c 4,85,86
 363 47 363 47 386.5 60 c 132,-1,87
 410 73 410 73 430 96 c 5,88,89
 408 128 408 128 386.5 172.5 c 132,-1,90
 365 217 365 217 340 277 c 4,74,75
399 646 m 4,91,92
 399 616 399 616 408 576 c 132,-1,93
 417 536 417 536 433 491 c 5,94,95
 495 516 495 516 525.5 561.5 c 132,-1,96
 556 607 556 607 556 659 c 4,97,98
 556 673 556 673 553 686.5 c 132,-1,99
 550 700 550 700 542 710.5 c 132,-1,100
 534 721 534 721 519.5 727 c 132,-1,101
 505 733 505 733 483 733 c 4,102,103
 439 733 439 733 419 710 c 132,-1,104
 399 687 399 687 399 646 c 4,91,92
EndSplineSet
Fore
SplineSet
459 646 m 0,0,1
 459 587 459 587 504 460 c 0,2,3
 516 426 516 426 569 305 c 0,4,5
 591 254 591 254 624 192 c 0,6,7
 665 116 665 116 699 86 c 0,8,9
 716 71 716 71 739 71 c 0,10,11
 771 71 771 71 801 86 c 128,-1,12
 831 101 831 101 860 149 c 1,13,-1
 883 129 l 1,14,15
 849 63 849 63 777.5 26.5 c 128,-1,16
 706 -10 706 -10 616 -10 c 0,17,18
 509 -10 509 -10 452 66 c 0,19,20
 403 131 403 131 340 277 c 0,21,22
 300 370 300 370 282 435 c 0,23,24
 256 526 256 526 256 570 c 0,25,26
 256 647 256 647 315.5 704.5 c 0,27,28
 381 768 381 768 524 768 c 1,29,-1
 513 733 l 1,30,31
 459 733 459 733 459 646 c 0,0,1
730 633 m 0,32,33
 730 576 730 576 670 534.5 c 0,34,35
 628 505 628 505 474 460 c 1,36,-1
 322 404 l 2,37,38
 255 379 255 379 255 259 c 0,39,40
 255 174 255 174 291.5 113.5 c 128,-1,41
 328 53 328 53 364.5 53 c 128,-1,42
 401 53 401 53 422.5 67 c 0,43,44
 447 83 447 83 460 96 c 0,45,46
 530.114754098 160.721311475 530.114754098 160.721311475 576 227 c 0,47,48
 594 253 594 253 623 305 c 0,49,50
 648 347 648 347 672.75 389.5 c 4,51,52
 694 428 694 428 725 452 c 128,-1,53
 756 476 756 476 803.5 475.25 c 0,54,55
 855 474 855 474 892 438 c 0,56,57
 920 411 920 411 919 363.25 c 0,58,59
 918 325 918 325 889 294.5 c 0,60,61
 862 266 862 266 814 266 c 0,62,63
 778 266 778 266 754 289.467773438 c 0,64,65
 734 309 734 309 734 350 c 0,66,67
 734 362 734 362 743 387.5 c 128,-1,68
 752 413 752 413 741 413 c 0,69,70
 727 413 727 413 712.5 392.5 c 128,-1,71
 698 372 698 372 680.5 339.5 c 2,72,-1
 642 268 l 2,73,74
 615.614497529 219.28830313 615.614497529 219.28830313 594 192 c 24,75,76
 525 105 525 105 482 66 c 24,77,78
 449 36 449 36 395.5 12 c 0,79,80
 344 -11 344 -11 275 -11 c 0,81,82
 145 -11 145 -11 87.5 39.5 c 0,83,84
 27 92 27 92 27 165 c 0,85,86
 27 247 27 247 97.5 314 c 0,87,88
 168.942927842 381.945721584 168.942927842 381.945721584 312 435 c 2,89,-1
 463 491 l 2,90,91
 498 504 498 504 535.5 561.5 c 0,92,93
 566 607 566 607 566 659 c 0,94,95
 566 733 566 733 513 733 c 1,96,-1
 524 768 l 1,97,98
 626 760 626 760 680 720.5 c 0,99,100
 730 683 730 683 730 633 c 0,32,33
EndSplineSet
EndChar

StartChar: quotesingle
Encoding: 39 39 10
Width: 244
Flags: W
LayerCount: 2
Fore
SplineSet
154 403 m 5,0,1
 161.754882812 439 161.754882812 439 165 467 c 4,2,3
 167.68359375 495 167.68359375 495 168 518 c 4,4,5
 167.381835938 550 167.381835938 550 145.8828125 587.99609375 c 4,6,7
 120.850585938 630 120.850585938 630 120.690429688 660 c 4,8,9
 120.549804688 698 120.549804688 698 151.19140625 726.5 c 4,10,11
 191.556640625 763 191.556640625 763 242 763 c 4,12,13
 281.556640625 763 281.556640625 763 305.345703125 741 c 4,14,15
 328.3984375 719 328.3984375 719 328.69140625 687 c 4,16,17
 329.390625 641 329.390625 641 290.07421875 604 c 4,18,19
 259.153320312 575 259.153320312 575 232.69140625 545.5 c 4,20,21
 221.45703125 533 221.45703125 533 208 492 c 4,22,23
 195.44921875 455 195.44921875 455 185 403 c 5,24,-1
 154 403 l 5,0,1
EndSplineSet
EndChar

StartChar: parenleft
Encoding: 40 40 11
Width: 329
Flags: W
LayerCount: 2
Fore
SplineSet
195 -156 m 1,0,1
 30 44 30 44 30 203 c 0,2,3
 30 368 30 368 133.5 523 c 0,4,5
 189 606 189 606 396 784 c 1,6,-1
 418 768 l 1,7,8
 339 673 339 673 260.5 448 c 4,9,10
 199 273 199 273 199 96 c 4,11,12
 199 -89 199 -89 222 -143 c 1,13,-1
 195 -156 l 1,0,1
EndSplineSet
EndChar

StartChar: asterisk
Encoding: 42 42 13
Width: 471
Flags: W
LayerCount: 2
Fore
SplineSet
115 631 m 0,0,1
 115 658 115 658 134 673.5 c 128,-1,2
 153 689 153 689 176 689 c 0,3,4
 196 689 196 689 208 678 c 128,-1,5
 220 667 220 667 230.5 650 c 128,-1,6
 241 633 241 633 254 613.5 c 128,-1,7
 267 594 267 594 291 576 c 1,8,-1
 294 578 l 1,9,10
 294 601 294 601 290.5 619 c 128,-1,11
 287 637 287 637 283 651.5 c 128,-1,12
 279 666 279 666 275.5 678.5 c 128,-1,13
 272 691 272 691 272 704 c 0,14,15
 272 733 272 733 290.5 748 c 128,-1,16
 309 763 309 763 335 763 c 0,17,18
 360 763 360 763 373.5 750.5 c 128,-1,19
 387 738 387 738 387 716 c 0,20,21
 387 699 387 699 379.5 682.5 c 128,-1,22
 372 666 372 666 361.5 649 c 128,-1,23
 351 632 351 632 341 614.5 c 128,-1,24
 331 597 331 597 326 578 c 1,25,-1
 329 576 l 1,26,27
 356 592 356 592 373.5 612 c 128,-1,28
 391 632 391 632 405.5 649 c 128,-1,29
 420 666 420 666 434.5 677.5 c 128,-1,30
 449 689 449 689 469 689 c 0,31,32
 483 689 483 689 492.5 683.5 c 128,-1,33
 502 678 502 678 507.5 669.5 c 128,-1,34
 513 661 513 661 515.5 651.5 c 128,-1,35
 518 642 518 642 518 633 c 0,36,37
 518 607 518 607 500.5 594.5 c 128,-1,38
 483 582 483 582 457 575.5 c 128,-1,39
 431 569 431 569 401 565 c 128,-1,40
 371 561 371 561 346 551 c 2,41,-1
 339 547 l 1,42,43
 363 534 363 534 390.5 531 c 128,-1,44
 418 528 418 528 442 524 c 128,-1,45
 466 520 466 520 481.5 509.5 c 128,-1,46
 497 499 497 499 497 471 c 0,47,48
 497 447 497 447 483.5 428 c 128,-1,49
 470 409 470 409 441 409 c 0,50,51
 419 409 419 409 406 420.5 c 128,-1,52
 393 432 393 432 381.5 449 c 128,-1,53
 370 466 370 466 357 485.5 c 128,-1,54
 344 505 344 505 322 522 c 1,55,-1
 319 520 l 1,56,57
 319 497 319 497 324 479.5 c 128,-1,58
 329 462 329 462 334 448 c 128,-1,59
 339 434 339 434 343.5 421 c 128,-1,60
 348 408 348 408 348 395 c 0,61,62
 348 369 348 369 331 352.5 c 128,-1,63
 314 336 314 336 288 336 c 0,64,65
 263 336 263 336 248.5 350.5 c 128,-1,66
 234 365 234 365 234 390 c 0,67,68
 234 406 234 406 240 419.5 c 128,-1,69
 246 433 246 433 254.5 447 c 128,-1,70
 263 461 263 461 272 478.5 c 128,-1,71
 281 496 281 496 287 520 c 1,72,-1
 284 522 l 1,73,74
 256 505 256 505 239 485 c 128,-1,75
 222 465 222 465 208.5 448 c 128,-1,76
 195 431 195 431 181 420 c 128,-1,77
 167 409 167 409 145 409 c 0,78,79
 120 409 120 409 107 423 c 128,-1,80
 94 437 94 437 94 459 c 0,81,82
 94 487 94 487 113.5 501.5 c 128,-1,83
 133 516 133 516 160 523.5 c 128,-1,84
 187 531 187 531 217 535 c 128,-1,85
 247 539 247 539 268 547 c 2,86,-1
 275 551 l 1,87,88
 253 561 253 561 235 564.5 c 128,-1,89
 217 568 217 568 201.5 569.5 c 128,-1,90
 186 571 186 571 172.5 572.5 c 128,-1,91
 159 574 159 574 147 580 c 0,92,93
 130 588 130 588 122.5 602 c 128,-1,94
 115 616 115 616 115 631 c 0,0,1
EndSplineSet
Validated: 1
EndChar

StartChar: plus
Encoding: 43 43 14
Width: 598
Flags: W
LayerCount: 2
Fore
SplineSet
71 370 m 1,0,-1
 293 370 l 1,1,-1
 293 612 l 1,2,-1
 347 612 l 1,3,-1
 347 370 l 1,4,-1
 569 370 l 1,5,-1
 569 316 l 1,6,-1
 347 316 l 1,7,-1
 347 74 l 1,8,-1
 293 74 l 1,9,-1
 293 316 l 1,10,-1
 71 316 l 1,11,-1
 71 370 l 1,0,-1
EndSplineSet
Validated: 1
EndChar

StartChar: comma
Encoding: 44 44 15
Width: 240
Flags: W
LayerCount: 2
Fore
SplineSet
-10 -173 m 1,0,1
 65 -131 65 -131 117 -84.5 c 128,-1,2
 169 -38 169 -38 169 5 c 0,3,4
 169 20 169 20 164 26.5 c 128,-1,5
 159 33 159 33 153.5 33 c 128,-1,6
 148 33 148 33 129.4375 11 c 128,-1,7
 111 -11 111 -11 72.5 -11 c 132,-1,8
 34 -11 34 -11 12 12.5 c 0,9,10
 -7 36.0125 -7 36.0125 -7 78 c 132,-1,12
 -7 120 -7 120 26.5 150.5 c 0,13,14
 58 176 58 176 101 176 c 0,15,16
 159 176 159 176 189.5 130.5 c 0,17,18
 216 91 216 91 216 43 c 0,19,20
 216 -29 216 -29 158 -90 c 128,-1,21
 100 -151 100 -151 3 -196 c 1,22,-1
 -10 -173 l 1,0,1
EndSplineSet
EndChar

StartChar: hyphen
Encoding: 45 45 16
Width: 415
Flags: W
LayerCount: 2
Fore
SplineSet
58 246 m 1,0,-1
 353 246 l 1,1,-1
 353 182 l 1,2,-1
 58 182 l 1,3,-1
 58 246 l 1,0,-1
EndSplineSet
Validated: 1
EndChar

StartChar: period
Encoding: 46 46 17
Width: 270
Flags: W
LayerCount: 2
Fore
SplineSet
4 89.5 m 128,-1,1
 4 131.5 4 131.5 34 161 c 0,2,3
 64 191 64 191 106 191 c 128,-1,4
 148 191 148 191 178 161 c 0,5,6
 208 131.5 208 131.5 208 89.5 c 128,-1,7
 208 47.5 208 47.5 178 17.5 c 0,8,9
 148.5 -12 148.5 -12 106 -12 c 0,10,11
 64 -12 64 -12 34 18 c 0,12,0
 4 47.5 4 47.5 4 89.5 c 128,-1,1
EndSplineSet
EndChar

StartChar: slash
Encoding: 47 47 18
Width: 274
Flags: W
LayerCount: 2
Fore
SplineSet
386 753 m 1,0,-1
 36 0 l 1,1,-1
 -43 0 l 1,2,-1
 307 753 l 1,3,-1
 386 753 l 1,0,-1
EndSplineSet
Validated: 1
EndChar

StartChar: zero
Encoding: 48 48 19
Width: 666
Flags: W
LayerCount: 2
Fore
SplineSet
288 -11 m 0,0,1
 224 -11 224 -11 185 11 c 4,2,3
 97 59 97 59 73 154 c 0,4,5
 61 201 61 201 61 251 c 0,6,7
 61 419 61 419 176.5 563 c 0,8,9
 292 706 292 706 444 706 c 0,10,11
 562 706 562 706 618 621 c 0,12,13
 665 550 665 550 665 443 c 0,14,15
 665 213 665 213 493.5 63.5 c 0,16,17
 408 -11 408 -11 288 -11 c 0,0,1
442 675 m 0,18,19
 408 675 408 675 354 563 c 0,20,21
 309 470 309 470 280.5 328.5 c 0,22,23
 255 203 255 203 255 123 c 0,24,25
 255 19 255 19 284 19 c 0,26,27
 321 19 321 19 375 129 c 0,28,29
 419 218 419 218 447 360.5 c 0,30,31
 471 482 471 482 471 566 c 0,32,33
 471 675 471 675 442 675 c 0,18,19
EndSplineSet
Substitution2: "'dnom' Denominators lookup 6 subtable" zero.denominator
Substitution2: "'numr' Numerators lookup 5 subtable" zero.numerator
Substitution2: "'sinf' Scientific Inferiors lookup 4 subtable" zeroinferior
Substitution2: "'sups' Superscript lookup 3 subtable" zerosuperior
EndChar

StartChar: one
Encoding: 49 49 20
Width: 482
Flags: W
LayerCount: 2
Fore
SplineSet
109 706 m 1,0,-1
 455 706 l 5,1,-1
 310 35 l 5,2,-1
 442 35 l 5,3,-1
 442 0 l 5,4,-1
 -12 0 l 1,5,-1
 -12 35 l 1,6,-1
 112 35 l 1,7,-1
 245 671 l 1,8,-1
 109 671 l 1,9,-1
 109 706 l 1,0,-1
EndSplineSet
Substitution2: "'dnom' Denominators lookup 6 subtable" one.denominator
Substitution2: "'numr' Numerators lookup 5 subtable" one.numerator
Substitution2: "'sinf' Scientific Inferiors lookup 4 subtable" oneinferior
Substitution2: "'sups' Superscript lookup 3 subtable" onesuperior
EndChar

StartChar: two
Encoding: 50 50 21
Width: 600
Flags: W
LayerCount: 2
Fore
SplineSet
26 143 m 1,0,-1
 228 271 l 2,1,2
 291 311 291 311 308.5 328.5 c 0,3,4
 344 362 344 362 364 398.5 c 128,-1,5
 384 435 384 435 392 470 c 128,-1,6
 400 505 400 505 400 538 c 0,7,8
 400 609 400 609 373 640 c 128,-1,9
 346 671 346 671 300 671 c 0,10,11
 271 671 271 671 247 661 c 128,-1,12
 223 651 223 651 206 637.5 c 128,-1,13
 189 624 189 624 179 609 c 128,-1,14
 169 594 169 594 169 585 c 0,15,16
 169 572 169 572 184.5 565.5 c 128,-1,17
 200 559 200 559 224.5 553.5 c 132,-1,18
 249 548 249 548 265.5 528 c 128,-1,19
 282 508 282 508 282 472 c 0,20,21
 282 431 282 431 255.5 408 c 128,-1,22
 229 385 229 385 194 385 c 0,23,24
 156 385 156 385 126.5 407.5 c 0,25,26
 87 438 87 438 87 495 c 0,27,28
 87 533 87 533 108.5 574 c 128,-1,29
 130 615 130 615 158.5 642.5 c 128,-1,30
 187 670 187 670 231 688 c 128,-1,31
 275 706 275 706 335 706 c 0,32,33
 462 706 462 706 521.5 661.5 c 0,34,35
 599 604 599 604 599 527 c 0,36,37
 599 474 599 474 564 423.5 c 0,38,39
 521.909628833 362.869822485 521.909628833 362.869822485 403 306 c 2,40,-1
 150 185 l 1,41,-1
 150 181 l 1,42,-1
 459 181 l 2,43,44
 472 181 472 181 481 183.5 c 128,-1,45
 490 186 490 186 497 195 c 128,-1,46
 504 204 504 204 510 221.5 c 128,-1,47
 516 239 516 239 522 268 c 1,48,-1
 554 268 l 1,49,-1
 488 0 l 1,50,-1
 -6 0 l 1,51,-1
 26 143 l 1,0,-1
EndSplineSet
Substitution2: "'dnom' Denominators lookup 6 subtable" two.denominator
Substitution2: "'numr' Numerators lookup 5 subtable" two.numerator
Substitution2: "'sinf' Scientific Inferiors lookup 4 subtable" twoinferior
Substitution2: "'sups' Superscript lookup 3 subtable" twosuperior
EndChar

StartChar: three
Encoding: 51 51 22
Width: 565
Flags: W
LayerCount: 2
Fore
SplineSet
245 395 m 0,0,1
 284 395 284 395 329 466.5 c 0,2,3
 367 528 367 528 367 598 c 0,4,5
 367 646 367 646 350 663.5 c 128,-1,6
 333 681 333 681 304 681 c 0,7,8
 277 681 277 681 256.5 669.5 c 128,-1,9
 236 658 236 658 236 640 c 0,10,11
 236 630 236 630 241.5 625.5 c 128,-1,12
 247 621 247 621 255.5 615.5 c 128,-1,13
 264 610 264 610 275 598 c 128,-1,14
 286 586 286 586 286 559 c 128,-1,15
 286 532 286 532 264 510 c 128,-1,16
 242 488 242 488 209 488 c 0,17,18
 180 488 180 488 155.5 507.5 c 128,-1,19
 131 527 131 527 131 566 c 0,20,21
 131 599 131 599 152.5 629.5 c 0,22,23
 175 661 175 661 203.5 676 c 128,-1,24
 232 691 232 691 268.5 701 c 128,-1,25
 305 711 305 711 347 711 c 0,26,27
 394 711 394 711 439.5 699 c 128,-1,28
 485 687 485 687 509 667 c 128,-1,29
 533 647 533 647 545.5 621 c 128,-1,30
 558 595 558 595 558 566 c 0,31,32
 558 506 558 506 496 457.5 c 128,-1,33
 434 409 434 409 334 381 c 1,34,-1
 334 376 l 1,35,36
 435 376 435 376 488.5 328 c 0,37,38
 545 277 545 277 545 205 c 0,39,40
 545 115 545 115 458.5 51.5 c 0,41,42
 370 -13 370 -13 211 -13 c 0,43,44
 160 -13 160 -13 123 -2.5 c 128,-1,45
 86 8 86 8 62 26 c 128,-1,46
 38 44 38 44 19.5 74.5 c 0,47,48
 3 101 3 101 3 129 c 0,49,50
 3 173 3 173 19 196.5 c 0,51,52
 46 234 46 234 85 234 c 0,53,54
 129 234 129 234 151 210.5 c 132,-1,55
 173 187 173 187 173 151 c 0,56,57
 173 130 173 130 156 110 c 0,58,59
 144 96 144 96 128.5 89 c 0,60,61
 115 83 115 83 100.5 78 c 128,-1,62
 86 73 86 73 86 63 c 256,63,64
 86 53 86 53 96.5 44.5 c 128,-1,65
 107 36 107 36 123 30 c 128,-1,66
 139 24 139 24 159 20.5 c 128,-1,67
 179 17 179 17 197 17 c 0,68,69
 248 17 248 17 285 57.5 c 0,70,71
 329 105 329 105 329 220 c 0,72,73
 329 293 329 293 305 325.5 c 128,-1,74
 281 358 281 358 245 358 c 0,75,76
 232 358 232 358 225 356.5 c 128,-1,77
 218 355 218 355 213 353.5 c 128,-1,78
 208 352 208 352 203.5 350.5 c 128,-1,79
 199 349 199 349 192 349 c 0,80,81
 175 349 175 349 167.5 356 c 128,-1,82
 160 363 160 363 160 374 c 0,83,84
 160 387 160 387 168 394 c 128,-1,85
 176 401 176 401 187 401 c 0,86,87
 195 401 195 401 211.5 398 c 128,-1,88
 228 395 228 395 245 395 c 0,0,1
EndSplineSet
Substitution2: "'dnom' Denominators lookup 6 subtable" three.denominator
Substitution2: "'numr' Numerators lookup 5 subtable" three.numerator
Substitution2: "'sinf' Scientific Inferiors lookup 4 subtable" threeinferior
Substitution2: "'sups' Superscript lookup 3 subtable" threesuperior
EndChar

StartChar: four
Encoding: 52 52 23
Width: 622
Flags: W
LayerCount: 2
Fore
SplineSet
14 224 m 1,0,-1
 460 706 l 1,1,-1
 584 706 l 5,2,-1
 480 224 l 5,3,-1
 574 224 l 5,4,-1
 591 289 l 5,5,-1
 621 289 l 5,6,-1
 576 108 l 5,7,-1
 546 108 l 5,8,-1
 566 191 l 5,9,-1
 473 191 l 5,10,-1
 438 30 l 5,11,-1
 519 30 l 5,12,-1
 519 0 l 5,13,-1
 164 0 l 1,14,-1
 164 30 l 1,15,-1
 240 30 l 1,16,-1
 274 191 l 1,17,-1
 14 191 l 1,18,-1
 14 224 l 1,0,-1
58 224 m 1,19,-1
 281 224 l 1,20,-1
 347 537 l 1,21,-1
 343 537 l 1,22,-1
 58 224 l 1,19,-1
EndSplineSet
Substitution2: "'dnom' Denominators lookup 6 subtable" four.denominator
Substitution2: "'numr' Numerators lookup 5 subtable" four.numerator
Substitution2: "'sinf' Scientific Inferiors lookup 4 subtable" fourinferior
Substitution2: "'sups' Superscript lookup 3 subtable" foursuperior
EndChar

StartChar: five
Encoding: 53 53 24
Width: 601
Flags: W
LayerCount: 2
Fore
SplineSet
163 407 m 1,0,1
 200 418 200 418 230 423 c 128,-1,2
 260 428 260 428 292 428 c 0,3,4
 421 428 421 428 488 381 c 0,5,6
 567 324 567 324 567 242 c 0,7,8
 567 137 567 137 478.5 63.5 c 0,9,10
 390 -11 390 -11 227 -11 c 0,11,12
 173 -11 173 -11 135.5 1.5 c 128,-1,13
 98 14 98 14 75.5 34 c 128,-1,14
 53 54 53 54 38 83 c 128,-1,15
 23 112 23 112 23 145 c 0,16,17
 23 184 23 184 43 210.5 c 0,18,19
 66 241 66 241 113 241 c 0,20,21
 161 241 161 241 186 213.5 c 0,22,23
 204 193 204 193 204 159 c 128,-1,24
 204 125 204 125 191.5 110 c 128,-1,25
 179 95 179 95 162 90.5 c 128,-1,26
 145 86 145 86 136.5 79 c 128,-1,27
 128 72 128 72 128 65 c 0,28,29
 128 48 128 48 144.5 36.5 c 0,30,31
 173 18 173 18 215 18 c 0,32,33
 263 18 263 18 301 79 c 0,34,35
 346 151 346 151 346 263 c 0,36,37
 346 336 346 336 314 364 c 0,38,39
 290 385 290 385 259 385 c 0,40,41
 229 385 229 385 195.5 377.5 c 128,-1,42
 162 370 162 370 130 356 c 1,43,-1
 112 376 l 1,44,-1
 206 706 l 1,45,-1
 477 706 l 2,46,47
 503 706 503 706 519.5 707.5 c 128,-1,48
 536 709 536 709 547 713.5 c 128,-1,49
 558 718 558 718 566 727.5 c 128,-1,50
 574 737 574 737 584 754 c 1,51,-1
 614 754 l 1,52,-1
 518 525 l 1,53,-1
 191 525 l 1,54,-1
 159 411 l 1,55,-1
 163 407 l 1,0,1
EndSplineSet
Substitution2: "'dnom' Denominators lookup 6 subtable" five.denominator
Substitution2: "'numr' Numerators lookup 5 subtable" five.numerator
Substitution2: "'sinf' Scientific Inferiors lookup 4 subtable" fiveinferior
Substitution2: "'sups' Superscript lookup 3 subtable" fivesuperior
EndChar

StartChar: six
Encoding: 54 54 25
Width: 655
Flags: W
LayerCount: 2
Fore
SplineSet
296 17 m 4,0,1
 324 17 324 17 363.5 80 c 4,2,3
 395 130 395 130 412.5 215 c 4,4,5
 426 280 426 280 426 342 c 4,6,7
 426 427 426 427 395 427 c 132,-1,8
 364 427 364 427 302 362 c 5,9,10
 291 336 291 336 275 254.5 c 4,11,12
 262 188 262 188 262 123 c 4,13,14
 262 17 262 17 296 17 c 4,0,1
447 462 m 4,15,16
 523 462 523 462 580.5 404.5 c 4,17,18
 636 349 636 349 636 267 c 4,19,20
 636 214 636 214 610.5 164 c 132,-1,21
 585 114 585 114 542 74.5 c 4,22,23
 447 -13 447 -13 301 -13 c 4,24,25
 178 -13 178 -13 115.5 53.5 c 4,26,27
 55 118 55 118 55 228 c 4,28,29
 55 356 55 356 143.5 481 c 4,30,31
 211 578 211 578 343.5 649 c 4,32,33
 496 731 496 731 625 731 c 5,34,-1
 625 696 l 5,35,36
 558 689 558 689 501 662 c 4,37,38
 432 629 432 629 368 531 c 4,39,40
 323 463 323 463 309 397 c 5,41,-1
 301 401 l 5,42,43
 323 427 323 427 346.5 439 c 4,44,45
 390 462 390 462 447 462 c 4,15,16
EndSplineSet
Substitution2: "'dnom' Denominators lookup 6 subtable" six.denominator
Substitution2: "'numr' Numerators lookup 5 subtable" six.numerator
Substitution2: "'sinf' Scientific Inferiors lookup 4 subtable" sixinferior
Substitution2: "'sups' Superscript lookup 3 subtable" sixsuperior
EndChar

StartChar: seven
Encoding: 55 55 26
Width: 522
Flags: W
LayerCount: 2
Fore
SplineSet
615 671 m 1,0,-1
 392 418 l 2,1,2
 371 394 371 394 351 357 c 0,3,4
 322 305 322 305 318.5 275.5 c 0,5,6
 308 195 308 195 333 156 c 0,7,8
 350 130 350 130 350 100 c 0,9,10
 350 53 350 53 316 21.5 c 128,-1,11
 282 -10 282 -10 229 -10 c 0,12,13
 192 -10 192 -10 157 14.5 c 128,-1,14
 122 39 122 39 120.5 86 c 0,15,16
 119 155 119 155 193.5 238.5 c 0,17,18
 295.643129771 353.784351145 295.643129771 353.784351145 313 374 c 6,19,-1
 483 572 l 1,20,-1
 468 526 l 1,21,-1
 211 526 l 2,22,23
 190 526 190 526 174.5 523.5 c 128,-1,24
 159 521 159 521 146 512.5 c 128,-1,25
 133 504 133 504 122.5 488.5 c 128,-1,26
 112 473 112 473 101 448 c 1,27,-1
 61 448 l 1,28,-1
 177 706 l 1,29,-1
 618 706 l 1,30,-1
 615 671 l 1,0,-1
EndSplineSet
Substitution2: "'dnom' Denominators lookup 6 subtable" seven.denominator
Substitution2: "'numr' Numerators lookup 5 subtable" seven.numerator
Substitution2: "'sinf' Scientific Inferiors lookup 4 subtable" seveninferior
Substitution2: "'sups' Superscript lookup 3 subtable" sevensuperior
EndChar

StartChar: eight
Encoding: 56 56 27
Width: 670
Flags: W
LayerCount: 2
Fore
SplineSet
301 -13 m 0,0,1
 172 -13 172 -13 105 36.5 c 128,-1,2
 38 86 38 86 38 159 c 0,3,4
 38 235 38 235 107.5 293.5 c 0,5,6
 172 348 172 348 300 366 c 1,7,-1
 300 370 l 1,8,9
 137 412 137 412 137 520 c 0,10,11
 137 597 137 597 222 654.5 c 0,12,13
 305 711 305 711 436 711 c 0,14,15
 551 711 551 711 611.5 665 c 0,16,17
 668 622 668 622 668 559 c 0,18,19
 668 494 668 494 607.5 437.5 c 0,20,21
 548 382 548 382 434 365 c 1,22,-1
 434 361 l 1,23,24
 537 337 537 337 575.5 298 c 0,25,26
 620 252 620 252 620 197 c 0,27,28
 620 114 620 114 534 52 c 0,29,30
 444 -13 444 -13 301 -13 c 0,0,1
368 344 m 0,31,32
 338 344 338 344 292.5 278 c 0,33,34
 247 211 247 211 247 106 c 0,35,36
 247 22 247 22 298 22 c 0,37,38
 342 22 342 22 382 98.5 c 0,39,40
 413 158 413 158 413 255 c 0,41,42
 413 344 413 344 368 344 c 0,31,32
443 685 m 0,43,44
 410 685 410 685 373 609.5 c 0,45,46
 342 547 342 547 342 469 c 0,47,48
 342 384 342 384 372 384 c 0,49,50
 409 384 409 384 444.5 470.5 c 0,51,52
 471 535 471 535 471 606 c 0,53,54
 471 685 471 685 443 685 c 0,43,44
EndSplineSet
Substitution2: "'dnom' Denominators lookup 6 subtable" eight.denominator
Substitution2: "'numr' Numerators lookup 5 subtable" eight.numerator
Substitution2: "'sinf' Scientific Inferiors lookup 4 subtable" eightinferior
Substitution2: "'sups' Superscript lookup 3 subtable" eightsuperior
EndChar

StartChar: less
Encoding: 60 60 31
Width: 608
Flags: W
LayerCount: 2
Fore
SplineSet
70 378 m 1,0,-1
 538 612 l 1,1,-1
 538 548 l 1,2,-1
 134 346 l 1,3,-1
 538 144 l 1,4,-1
 538 77 l 1,5,-1
 70 311 l 1,6,-1
 70 378 l 1,0,-1
EndSplineSet
Validated: 1
EndChar

StartChar: equal
Encoding: 61 61 32
Width: 618
Flags: W
LayerCount: 2
Fore
SplineSet
63 278 m 1,0,-1
 561 278 l 1,1,-1
 561 224 l 1,2,-1
 63 224 l 1,3,-1
 63 278 l 1,0,-1
113 474 m 1,4,-1
 611 474 l 1,5,-1
 611 420 l 1,6,-1
 113 420 l 1,7,-1
 113 474 l 1,4,-1
EndSplineSet
Validated: 1
EndChar

StartChar: greater
Encoding: 62 62 33
Width: 608
Flags: W
LayerCount: 2
Fore
SplineSet
593 311 m 1,0,-1
 125 77 l 1,1,-1
 125 144 l 1,2,-1
 529 346 l 1,3,-1
 125 548 l 1,4,-1
 125 612 l 1,5,-1
 593 378 l 1,6,-1
 593 311 l 1,0,-1
EndSplineSet
Validated: 1
EndChar

StartChar: question
Encoding: 63 63 34
Width: 479
Flags: W
LayerCount: 2
Fore
SplineSet
181 254 m 1
 178 279 178 279 178 302 c 0
 178 478.64084507 178 478.64084507 278 513.5 c 4
 420 563 420 563 420 643 c 0
 420 684 420 684 396.5 704 c 0
 380 718 380 718 357 725.5 c 0
 334 733 334 733 302 733 c 0
 264 733 264 733 241 722.5 c 0
 218 712 218 712 218 696 c 0
 218 689 218 689 225.5 682.5 c 0
 233 676 233 676 244 669.5 c 0
 255 663 255 663 267 648.5 c 0
 279 634 279 634 279 607 c 0
 279 559 279 559 255 539 c 0
 227 517 227 517 197.25 517.5 c 0
 158 518 158 518 133 542 c 0
 108 566 108 566 108 612 c 0
 108 663 108 663 143 696 c 0
 178 729 178 729 220.5 746 c 0
 263 763 263 763 312 763 c 0
 357 763 357 763 397 745 c 0
 437 727 437 727 462.5 702 c 0
 516 649 516 649 516 550 c 0
 516 398 516 398 357.5 346.5 c 0
 206 297 206 297 206 254 c 1
 181 254 l 1
EndSplineSet
Refer: 17 46 N 1 0 0 1 60 0 2
EndChar

StartChar: at
Encoding: 64 64 35
Width: 823
Flags: W
LayerCount: 2
Fore
SplineSet
520 385 m 1,0,-1
 532 443 l 1,1,-1
 700 443 l 1,2,-1
 628 141 l 2,3,4
 625 128 625 128 625 124 c 0,5,6
 625 104 625 104 639 104 c 0,7,8
 661 104 661 104 678.5 120.5 c 128,-1,9
 696 137 696 137 714.5 166.5 c 128,-1,10
 733 196 733 196 744.5 237 c 128,-1,11
 756 278 756 278 756 327 c 0,12,13
 756 392 756 392 735 441.5 c 128,-1,14
 714 491 714 491 678 524 c 128,-1,15
 642 557 642 557 593 573.5 c 128,-1,16
 544 590 544 590 488 590 c 0,17,18
 413 590 413 590 347.5 561.5 c 128,-1,19
 282 533 282 533 233 481.5 c 128,-1,20
 184 430 184 430 155.5 358 c 128,-1,21
 127 286 127 286 127 199 c 0,22,23
 127 131 127 131 145.5 73.5 c 128,-1,24
 164 16 164 16 200 -25 c 128,-1,25
 236 -66 236 -66 288.5 -89 c 128,-1,26
 341 -112 341 -112 409 -112 c 0,27,28
 436 -112 436 -112 466.5 -107.5 c 128,-1,29
 497 -103 497 -103 528 -90 c 128,-1,30
 559 -77 559 -77 590.5 -54.5 c 128,-1,31
 622 -32 622 -32 651 3 c 1,32,-1
 674 -32 l 1,33,34
 610 -98 610 -98 546.5 -125 c 128,-1,35
 483 -152 483 -152 409 -152 c 0,36,37
 341 -152 341 -152 282 -131 c 128,-1,38
 223 -110 223 -110 179 -66.5 c 128,-1,39
 135 -23 135 -23 109.5 43 c 128,-1,40
 84 109 84 109 84 199 c 0,41,42
 84 302 84 302 117 382.5 c 128,-1,43
 150 463 150 463 206.5 518 c 128,-1,44
 263 573 263 573 336.5 601.5 c 128,-1,45
 410 630 410 630 491 630 c 0,46,47
 565 630 565 630 622.5 607 c 128,-1,48
 680 584 680 584 719 544.5 c 128,-1,49
 758 505 758 505 778.5 451 c 128,-1,50
 799 397 799 397 799 335 c 0,51,52
 799 275 799 275 781 222.5 c 128,-1,53
 763 170 763 170 731.5 130 c 128,-1,54
 700 90 700 90 656.5 67 c 128,-1,55
 613 44 613 44 563 44 c 0,56,57
 523 44 523 44 489.5 59.5 c 128,-1,58
 456 75 456 75 455 110 c 1,59,-1
 468 110 l 1,60,61
 455 87 455 87 426.5 65.5 c 128,-1,62
 398 44 398 44 356 44 c 0,63,64
 283 44 283 44 246 80.5 c 0,65,66
 204 121 204 121 204 195 c 0,67,68
 204 299 204 299 278 377 c 0,69,70
 351 454 351 454 443 454 c 4,71,72
 485 454 485 454 503 435 c 128,-1,73
 521 416 521 416 526 385 c 1,74,-1
 520 385 l 1,0,-1
401 90 m 0,75,76
 418 90 418 90 434 114 c 128,-1,77
 450 138 450 138 470 194 c 1,78,-1
 500 313 l 2,79,80
 503 325 503 325 503 352 c 0,81,82
 503 369 503 369 501 379.5 c 0,83,84
 497 410 497 410 471 410 c 256,85,86
 446 410 446 410 407 328 c 0,87,88
 369 248 369 248 369 158 c 0,89,90
 369 90 369 90 401 90 c 0,75,76
EndSplineSet
EndChar

StartChar: A
Encoding: 65 65 36
Width: 671
Flags: W
LayerCount: 2
Fore
SplineSet
124 0 m 1,0,-1
 -66 0 l 1,1,-1
 -66 30 l 1,2,-1
 -13 30 l 1,3,-1
 487 768 l 1,4,-1
 595 768 l 1,5,-1
 541 30 l 1,6,-1
 619 30 l 1,7,-1
 619 0 l 1,8,-1
 250 0 l 1,9,-1
 250 30 l 1,10,-1
 339 30 l 1,11,-1
 355 212 l 1,12,-1
 153 212 l 1,13,-1
 29 30 l 1,14,-1
 124 30 l 1,15,-1
 124 0 l 1,0,-1
382 547 m 1,16,-1
 176 245 l 1,17,-1
 358 245 l 1,18,-1
 386 547 l 1,19,-1
 382 547 l 1,16,-1
EndSplineSet
Substitution2: "Single Substitution lookup 7 subtable" ordfeminine
EndChar

StartChar: B
Encoding: 66 66 37
Width: 744
Flags: W
LayerCount: 2
Fore
SplineSet
481 754 m 2,0,1
 547 754 547 754 595 741.5 c 128,-1,2
 643 729 643 729 673.5 706.5 c 128,-1,3
 704 684 704 684 719 652.5 c 128,-1,4
 734 621 734 621 734 584 c 0,5,6
 734 511 734 511 683 462.5 c 128,-1,7
 632 414 632 414 535 393 c 1,8,-1
 535 389 l 1,9,10
 620 369 620 369 657 329 c 128,-1,11
 694 289 694 289 694 224 c 0,12,13
 694 171 694 171 672 129 c 128,-1,14
 650 87 650 87 612.5 58.5 c 128,-1,15
 575 30 575 30 525.5 15 c 128,-1,16
 476 0 476 0 420 0 c 2,17,-1
 -28 0 l 1,18,-1
 -28 31 l 1,19,-1
 57 31 l 1,20,-1
 208 724 l 1,21,-1
 110 724 l 1,22,-1
 110 754 l 1,23,-1
 481 754 l 2,0,1
332 379 m 1,24,-1
 255 31 l 1,25,-1
 291 31 l 6,26,27
 331 31 331 31 364 45 c 132,-1,28
 397 59 397 59 421 86.5 c 132,-1,29
 445 114 445 114 458 156.5 c 132,-1,30
 471 199 471 199 471 256 c 4,31,32
 471 284 471 284 467 307 c 132,-1,33
 463 330 463 330 452.5 346 c 132,-1,34
 442 362 442 362 424.5 370.5 c 132,-1,35
 407 379 407 379 379 379 c 6,36,-1
 332 379 l 1,24,-1
409 724 m 1,37,-1
 339 409 l 1,38,-1
 366 409 l 2,39,40
 402 409 402 409 430.5 424 c 128,-1,41
 459 439 459 439 478.5 466 c 128,-1,42
 498 493 498 493 508 531 c 128,-1,43
 518 569 518 569 518 615 c 0,44,45
 518 670 518 670 498 697 c 128,-1,46
 478 724 478 724 419 724 c 2,47,-1
 409 724 l 1,37,-1
EndSplineSet
EndChar

StartChar: C
Encoding: 67 67 38
Width: 731
Flags: W
LayerCount: 2
Fore
SplineSet
382 24 m 0,0,1
 407 24 407 24 437.5 32 c 128,-1,2
 468 40 468 40 501 60 c 128,-1,3
 534 80 534 80 569 115.5 c 128,-1,4
 604 151 604 151 637 206 c 1,5,-1
 667 206 l 1,6,-1
 614 0 l 1,7,-1
 584 0 l 1,8,-1
 554 34 l 1,9,10
 512 14 512 14 467 0.5 c 128,-1,11
 422 -13 422 -13 369 -13 c 0,12,13
 226.536132812 -13 226.536132812 -13 123.5 106 c 0,14,15
 27 216 27 216 81.5 399.5 c 0,16,17
 191 765 191 765 526 765 c 0,18,19
 568 765 568 765 601 751.5 c 128,-1,20
 634 738 634 738 666 707 c 1,21,-1
 710 754 l 1,22,-1
 745 754 l 1,23,-1
 698 521 l 1,24,-1
 668 521 l 1,25,26
 668 570 668 570 656.5 609 c 128,-1,27
 645 648 645 648 624.5 675 c 128,-1,28
 604 702 604 702 577 716.5 c 128,-1,29
 550 731 550 731 520 731 c 0,30,31
 395 731 395 731 319.5 422 c 0,32,33
 222 24 222 24 382 24 c 0,0,1
EndSplineSet
EndChar

StartChar: D
Encoding: 68 68 39
Width: 820
Flags: W
LayerCount: 2
Fore
SplineSet
798 438 m 0,0,1
 798 352 798 352 766.5 273 c 128,-1,2
 735 194 735 194 678.5 133 c 128,-1,3
 622 72 622 72 544.5 36 c 128,-1,4
 467 0 467 0 375 0 c 2,5,-1
 -41 0 l 1,6,-1
 -41 32 l 1,7,-1
 55 32 l 1,8,-1
 205 724 l 1,9,-1
 100 724 l 1,10,-1
 100 754 l 1,11,-1
 486 754 l 2,12,13
 641 754 641 754 719.5 669.5 c 128,-1,14
 798 585 798 585 798 438 c 0,0,1
406 724 m 1,15,-1
 252 32 l 1,16,-1
 296 32 l 6,17,18
 363 32 363 32 417 65.5 c 132,-1,19
 471 99 471 99 509.5 161.5 c 132,-1,20
 548 224 548 224 569 314 c 132,-1,21
 590 404 590 404 590 518 c 4,22,23
 590 560 590 560 585 597.5 c 132,-1,24
 580 635 580 635 563.5 663 c 132,-1,25
 547 691 547 691 515 707.5 c 132,-1,26
 483 724 483 724 429 724 c 6,27,-1
 406 724 l 1,15,-1
EndSplineSet
EndChar

StartChar: E
Encoding: 69 69 40
Width: 740
Flags: W
LayerCount: 2
Fore
SplineSet
128 754 m 1,0,-1
 775 754 l 1,1,-1
 739 548 l 1,2,-1
 699 548 l 1,3,4
 699 600 699 600 691.5 634 c 128,-1,5
 684 668 684 668 665 688 c 128,-1,6
 646 708 646 708 615 716 c 128,-1,7
 584 724 584 724 538 724 c 2,8,-1
 437 724 l 1,9,-1
 366 404 l 1,10,-1
 412 404 l 2,11,12
 463 404 463 404 499 434 c 128,-1,13
 535 464 535 464 558 535 c 1,14,-1
 593 535 l 1,15,-1
 528 227 l 1,16,-1
 494 227 l 1,17,18
 494 272 494 272 487 301 c 128,-1,19
 480 330 480 330 467.5 346 c 128,-1,20
 455 362 455 362 436.5 368 c 128,-1,21
 418 374 418 374 396 374 c 2,22,-1
 359 374 l 1,23,-1
 282 30 l 1,24,-1
 440 30 l 2,25,26
 473 30 473 30 502 38.5 c 128,-1,27
 531 47 531 47 558 69.5 c 128,-1,28
 585 92 585 92 611.5 131 c 128,-1,29
 638 170 638 170 667 232 c 1,30,-1
 707 232 l 1,31,-1
 647 0 l 1,32,-1
 -13 0 l 1,33,-1
 -13 30 l 1,34,-1
 85 30 l 1,35,-1
 236 724 l 1,36,-1
 128 724 l 1,37,-1
 128 754 l 1,0,-1
EndSplineSet
EndChar

StartChar: F
Encoding: 70 70 41
Width: 709
Flags: W
LayerCount: 2
Fore
SplineSet
116 754 m 1,0,-1
 763 754 l 1,1,-1
 727 548 l 1,2,-1
 687 548 l 1,3,4
 687 600 687 600 679.5 634 c 128,-1,5
 672 668 672 668 653 688 c 128,-1,6
 634 708 634 708 603 716 c 128,-1,7
 572 724 572 724 526 724 c 2,8,-1
 425 724 l 1,9,-1
 354 404 l 1,10,-1
 400 404 l 2,11,12
 451 404 451 404 487 434 c 128,-1,13
 523 464 523 464 546 535 c 1,14,-1
 581 535 l 1,15,-1
 516 227 l 1,16,-1
 482 227 l 1,17,18
 482 272 482 272 475 301 c 128,-1,19
 468 330 468 330 455.5 346 c 128,-1,20
 443 362 443 362 424.5 368 c 128,-1,21
 406 374 406 374 384 374 c 2,22,-1
 347 374 l 1,23,-1
 271 31 l 1,24,-1
 399 31 l 1,25,-1
 399 0 l 1,26,-1
 -20 0 l 1,27,-1
 -20 31 l 1,28,-1
 73 31 l 1,29,-1
 224 724 l 1,30,-1
 116 724 l 1,31,-1
 116 754 l 1,0,-1
EndSplineSet
EndChar

StartChar: G
Encoding: 71 71 42
Width: 812
Flags: W
LayerCount: 2
Fore
SplineSet
473 267 m 1,0,-1
 823 267 l 1,1,-1
 823 237 l 1,2,-1
 771 237 l 1,3,-1
 746 130 l 1,4,5
 705 93 705 93 654.5 66 c 128,-1,6
 604 39 604 39 567 21.5 c 128,-1,7
 530 4 530 4 492.5 -4.5 c 128,-1,8
 455 -13 455 -13 414 -13 c 0,9,10
 14 -13 14 -13 134.5 455 c 0,11,12
 214 765 214 765 559 765 c 0,13,14
 601 765 601 765 634 751.5 c 128,-1,15
 667 738 667 738 699 707 c 1,16,-1
 743 754 l 1,17,-1
 778 754 l 1,18,-1
 731 521 l 1,19,-1
 701 521 l 1,20,21
 701 569 701 569 689.5 608 c 128,-1,22
 678 647 678 647 657.5 674.5 c 128,-1,23
 637 702 637 702 610 711.5 c 128,-1,24
 583 721 583 721 552 721 c 4,25,26
 380 721 380 721 330 312.5 c 0,27,28
 295 24 295 24 413 24 c 0,29,30
 510 24 510 24 546 237 c 1,31,-1
 473 237 l 1,32,-1
 473 267 l 1,0,-1
EndSplineSet
EndChar

StartChar: H
Encoding: 72 72 43
Width: 857
Flags: W
LayerCount: 2
Fore
SplineSet
138 754 m 1,0,-1
 517 754 l 1,1,-1
 517 724 l 1,2,-1
 432 724 l 1,3,-1
 359 395 l 1,4,-1
 569 395 l 1,5,-1
 640 724 l 1,6,-1
 557 724 l 5,7,-1
 557 754 l 5,8,-1
 936 754 l 1,9,-1
 936 724 l 1,10,-1
 841 724 l 1,11,-1
 687 31 l 1,12,-1
 795 31 l 1,13,-1
 795 0 l 1,14,-1
 406 0 l 1,15,-1
 406 31 l 1,16,-1
 489 31 l 1,17,-1
 562 365 l 1,18,-1
 352 365 l 1,19,-1
 278 31 l 1,20,-1
 376 31 l 1,21,-1
 376 0 l 1,22,-1
 -13 0 l 1,23,-1
 -13 31 l 1,24,-1
 80 31 l 1,25,-1
 231 724 l 1,26,-1
 138 724 l 1,27,-1
 138 754 l 1,0,-1
EndSplineSet
EndChar

StartChar: I
Encoding: 73 73 44
Width: 440
Flags: W
LayerCount: 2
Fore
SplineSet
144 754 m 1,0,-1
 493 754 l 1,1,-1
 493 724 l 1,2,-1
 418 724 l 1,3,-1
 264 31 l 1,4,-1
 352 31 l 1,5,-1
 352 0 l 1,6,-1
 -7 0 l 1,7,-1
 -7 31 l 1,8,-1
 66 31 l 1,9,-1
 217 724 l 1,10,-1
 144 724 l 1,11,-1
 144 754 l 1,0,-1
EndSplineSet
EndChar

StartChar: J
Encoding: 74 74 45
Width: 440
Flags: W
LayerCount: 2
Fore
SplineSet
162 754 m 1,0,-1
 541 754 l 1,1,-1
 541 724 l 1,2,-1
 467 724 l 1,3,-1
 346 142 l 2,4,5
 312 -21 312 -21 221.5 -71 c 0,6,7
 133 -119 133 -119 41 -119 c 0,8,9
 -48 -119 -48 -119 -83 -87.5 c 0,10,11
 -121 -54 -121 -54 -121 -3 c 0,12,13
 -121 33 -121 33 -98 62.5 c 0,14,15
 -72 94 -72 94 -24 94 c 0,16,17
 8 94 8 94 32.5 72.5 c 132,-1,18
 57 51 57 51 57 12 c 4,19,20
 57 -18 57 -18 38 -34.5 c 128,-1,21
 19 -51 19 -51 19 -65 c 0,22,23
 19 -83 19 -83 45 -83 c 0,24,25
 55 -83 55 -83 64.5 -78.5 c 128,-1,26
 74 -74 74 -74 82 -61.5 c 128,-1,27
 90 -49 90 -49 98 -26 c 0,28,29
 105.20655141 -6.18198362147 105.20655141 -6.18198362147 114 34 c 2,30,-1
 265 724 l 1,31,-1
 162 724 l 1,32,-1
 162 754 l 1,0,-1
EndSplineSet
EndChar

StartChar: K
Encoding: 75 75 46
Width: 828
Flags: W
LayerCount: 2
Fore
SplineSet
158 754 m 1,0,-1
 507 754 l 1,1,-1
 507 724 l 1,2,-1
 432 724 l 1,3,-1
 278 31 l 1,4,-1
 366 31 l 1,5,-1
 366 0 l 1,6,-1
 7 0 l 1,7,-1
 7 31 l 1,8,-1
 80 31 l 1,9,-1
 231 724 l 1,10,-1
 158 724 l 1,11,-1
 158 754 l 1,0,-1
601 754 m 1,12,-1
 866 754 l 1,13,-1
 866 724 l 1,14,-1
 803 724 l 1,15,-1
 470 465 l 1,16,-1
 744 30 l 1,17,-1
 830 30 l 1,18,-1
 830 0 l 1,19,-1
 444 0 l 1,20,-1
 444 30 l 1,21,-1
 538 30 l 1,22,-1
 328 395 l 1,23,-1
 751 724 l 1,24,-1
 601 724 l 1,25,-1
 601 754 l 1,12,-1
EndSplineSet
EndChar

StartChar: L
Encoding: 76 76 47
Width: 676
Flags: W
LayerCount: 2
Fore
SplineSet
107 754 m 1,0,-1
 536 754 l 1,1,-1
 536 724 l 1,2,-1
 421 724 l 1,3,-1
 266 30 l 1,4,-1
 394 30 l 2,5,6
 424 30 424 30 454 40 c 128,-1,7
 484 50 484 50 514 73.5 c 128,-1,8
 544 97 544 97 573 135.5 c 128,-1,9
 602 174 602 174 631 232 c 1,10,-1
 671 232 l 1,11,-1
 611 0 l 1,12,-1
 -29 0 l 1,13,-1
 -29 30 l 1,14,-1
 69 30 l 1,15,-1
 220 724 l 1,16,-1
 107 724 l 1,17,-1
 107 754 l 1,0,-1
EndSplineSet
EndChar

StartChar: M
Encoding: 77 77 48
Width: 1007
Flags: W
LayerCount: 2
Fore
SplineSet
526 272 m 1,0,-1
 530 272 l 1,1,-1
 797 754 l 1,2,-1
 1095 754 l 1,3,-1
 1095 724 l 1,4,-1
 1000 724 l 1,5,-1
 846 31 l 1,6,-1
 954 31 l 1,7,-1
 954 0 l 1,8,-1
 555 0 l 1,9,-1
 555 31 l 1,10,-1
 648 31 l 1,11,-1
 778 626 l 1,12,-1
 773 626 l 1,13,-1
 416 0 l 1,14,-1
 345 0 l 1,15,-1
 269 626 l 1,16,-1
 265 626 l 1,17,-1
 135 30 l 1,18,-1
 234 30 l 1,19,-1
 234 0 l 1,20,-1
 12 0 l 1,21,-1
 12 30 l 1,22,-1
 95 30 l 1,23,-1
 246 724 l 1,24,-1
 164 724 l 1,25,-1
 164 754 l 1,26,-1
 470 754 l 1,27,-1
 526 272 l 1,0,-1
EndSplineSet
EndChar

StartChar: N
Encoding: 78 78 49
Width: 799
Flags: W
LayerCount: 2
Fore
SplineSet
127 754 m 1,0,-1
 434 754 l 1,1,-1
 657 285 l 1,2,-1
 661 285 l 1,3,-1
 756 724 l 1,4,-1
 662 724 l 1,5,-1
 662 754 l 1,6,-1
 880 754 l 1,7,-1
 880 724 l 1,8,-1
 796 724 l 1,9,-1
 636 -13 l 1,10,-1
 555 -13 l 1,11,-1
 255 637 l 1,12,-1
 251 637 l 1,13,-1
 252 645 l 1,14,-1
 118 30 l 1,15,-1
 222 30 l 1,16,-1
 222 0 l 1,17,-1
 -15 0 l 1,18,-1
 -15 30 l 1,19,-1
 78 30 l 1,20,-1
 229 724 l 1,21,-1
 127 724 l 1,22,-1
 127 754 l 1,0,-1
EndSplineSet
EndChar

StartChar: O
Encoding: 79 79 50
Width: 829
Flags: W
LayerCount: 2
Fore
SplineSet
377 21 m 4,0,1
 453 21 453 21 518.5 118 c 4,2,3
 574 201 574 201 601 333 c 4,4,5
 624 446 624 446 624 551 c 4,6,7
 624 629 624 629 604.5 670.5 c 4,8,9
 576 731 576 731 523 731 c 4,10,11
 449 731 449 731 383.5 634 c 4,12,13
 330 555 330 555 301.5 417.5 c 4,14,15
 278 306 278 306 278 185 c 4,16,17
 278 21 278 21 377 21 c 4,0,1
383 -11 m 4,18,19
 235 -11 235 -11 149 81 c 4,20,21
 65 171 65 171 65 304 c 4,22,23
 65 475 65 475 197 618 c 4,24,25
 331 763 331 763 520 763 c 4,26,27
 669 763 669 763 753.5 674.5 c 132,-1,28
 838 586 838 586 838 454 c 4,29,30
 838 281 838 281 705.5 136 c 4,31,32
 571 -11 571 -11 383 -11 c 4,18,19
EndSplineSet
Substitution2: "Single Substitution lookup 7 subtable" ordmasculine
EndChar

StartChar: P
Encoding: 80 80 51
Width: 753
Flags: W
LayerCount: 2
Fore
SplineSet
492 754 m 2,0,1
 648 754 648 754 716.5 705 c 128,-1,2
 785 656 785 656 785 571 c 0,3,4
 785 520 785 520 760.5 479 c 128,-1,5
 736 438 736 438 688.5 409 c 128,-1,6
 641 380 641 380 561.5 364 c 128,-1,7
 482 348 482 348 392 348 c 2,8,-1
 336 348 l 1,9,-1
 266 31 l 1,10,-1
 354 31 l 1,11,-1
 354 0 l 1,12,-1
 -5 0 l 1,13,-1
 -5 31 l 1,14,-1
 68 31 l 1,15,-1
 219 724 l 1,16,-1
 121 724 l 1,17,-1
 121 754 l 1,18,-1
 492 754 l 2,0,1
420 724 m 1,19,-1
 342 373 l 1,20,-1
 400 373 l 2,21,22
 476 373 476 373 522.5 429.5 c 128,-1,23
 569 486 569 486 569 604 c 0,24,25
 569 672 569 672 547 696.5 c 0,26,27
 522 724 522 724 460 724 c 2,28,-1
 420 724 l 1,19,-1
EndSplineSet
EndChar

StartChar: Q
Encoding: 81 81 52
Width: 789
Flags: W
LayerCount: 2
Fore
SplineSet
377 21 m 0,0,1
 453 21 453 21 518.5 118 c 0,2,3
 574 201 574 201 601 333 c 0,4,5
 624 446 624 446 624 551 c 0,6,7
 624 629 624 629 604.5 670.5 c 0,8,9
 576 731 576 731 523 731 c 0,10,11
 449 731 449 731 383.5 634 c 0,12,13
 330 555 330 555 301.5 417.5 c 0,14,15
 278 306 278 306 278 185 c 0,16,17
 278 21 278 21 377 21 c 0,0,1
383 -11 m 0,18,19
 235 -11 235 -11 149 81 c 0,20,21
 65 171 65 171 65 304 c 0,22,23
 65 475 65 475 197 618 c 0,24,25
 331 763 331 763 520 763 c 0,26,27
 669 763 669 763 753.5 674.5 c 128,-1,28
 838 586 838 586 838 454 c 0,29,30
 838 281 838 281 705.5 136 c 0,31,32
 571 -11 571 -11 383 -11 c 0,18,19
226 26.71875 m 1,33,-1
 226 26.71875 l 1,34,-1
 493 5 l 5,35,36
 491 -5 l 1,37,38
 489 -24 489 -24 488 -43 c 128,-1,39
 487 -62 487 -62 487 -85 c 0,40,41
 487 -145 487 -145 502.5 -172.5 c 128,-1,42
 518 -200 518 -200 574 -200 c 0,43,44
 589 -200 589 -200 606.5 -198.5 c 128,-1,45
 624 -197 624 -197 644 -192 c 1,46,-1
 651 -232 l 1,47,48
 620 -237 620 -237 592 -239.5 c 128,-1,49
 564 -242 564 -242 539 -242 c 0,50,51
 421 -242 421 -242 343 -191 c 128,-1,52
 265 -140 265 -140 265 -40 c 0,53,54
 265 -31 265 -31 265.5 -17.5 c 128,-1,55
 266 -4 266 -4 268 7 c 1,56,57
 246 15 246 15 226 26.71875 c 1,33,-1
EndSplineSet
EndChar

StartChar: R
Encoding: 82 82 53
Width: 793
Flags: W
LayerCount: 2
Fore
SplineSet
496 754 m 2,0,1
 583 754 583 754 634.5 741 c 128,-1,2
 686 728 686 728 720 704.5 c 128,-1,3
 754 681 754 681 771.5 649 c 128,-1,4
 789 617 789 617 789 578 c 0,5,6
 789 500 789 500 722 452.5 c 0,7,8
 659 407 659 407 507 391 c 1,9,-1
 507 387 l 1,10,11
 587 364 587 364 601 354.5 c 0,12,13
 630 335 630 335 647.5 308 c 128,-1,14
 665 281 665 281 673.5 244.5 c 128,-1,15
 682 208 682 208 685 161 c 0,16,17
 687 135 687 135 688 113 c 128,-1,18
 689 91 689 91 693 74 c 128,-1,19
 697 57 697 57 706.5 47.5 c 128,-1,20
 716 38 716 38 736 38 c 0,21,22
 750 38 750 38 761.5 42 c 128,-1,23
 773 46 773 46 786 54 c 1,24,-1
 802 25 l 1,25,26
 784 9 784 9 754 -1 c 128,-1,27
 724 -11 724 -11 662 -11 c 0,28,29
 602 -11 602 -11 566.5 3 c 128,-1,30
 531 17 531 17 501.5 56 c 128,-1,31
 472 95 472 95 468.5 141 c 128,-1,32
 465 187 465 187 463 233 c 0,33,34
 460 308 460 308 445.5 338 c 0,35,36
 422 385 422 385 384 385 c 2,37,-1
 349 385 l 1,38,-1
 270 31 l 1,39,-1
 358 31 l 1,40,-1
 358 0 l 1,41,-1
 -1 0 l 1,42,-1
 -1 31 l 1,43,-1
 72 31 l 1,44,-1
 223 724 l 1,45,-1
 125 724 l 1,46,-1
 125 754 l 1,47,-1
 496 754 l 2,0,1
424 724 m 1,48,-1
 355 415 l 1,49,-1
 394 415 l 2,50,51
 480 415 480 415 526.5 468 c 128,-1,52
 573 521 573 521 573 614 c 0,53,54
 573 642 573 642 568 663 c 128,-1,55
 563 684 563 684 549.5 697.5 c 128,-1,56
 536 711 536 711 513 717.5 c 128,-1,57
 490 724 490 724 454 724 c 2,58,-1
 424 724 l 1,48,-1
EndSplineSet
EndChar

StartChar: S
Encoding: 83 83 54
Width: 581
Flags: W
LayerCount: 2
Fore
SplineSet
562 754 m 1,0,-1
 587 754 l 1,1,-1
 553 555 l 1,2,-1
 523 555 l 1,3,4
 523 598 523 598 509.5 630 c 128,-1,5
 496 662 496 662 473.5 684 c 128,-1,6
 451 706 451 706 420 717 c 128,-1,7
 389 728 389 728 355 728 c 0,8,9
 323 728 323 728 298 719 c 128,-1,10
 273 710 273 710 256 695 c 128,-1,11
 239 680 239 680 230 660 c 128,-1,12
 221 640 221 640 221 618 c 0,13,14
 221 578.333333333 221 578.333333333 305 534 c 0,15,16
 341 515 341 515 383 496.5 c 128,-1,17
 425 478 425 478 461 450 c 128,-1,18
 497 422 497 422 521 380 c 128,-1,19
 545 338 545 338 545 253 c 0,20,21
 545 194 545 194 524.5 145.5 c 128,-1,22
 504 97 504 97 468 61.5 c 128,-1,23
 432 26 432 26 382 6.5 c 128,-1,24
 332 -13 332 -13 274 -13 c 0,25,26
 217 -13 217 -13 174 4 c 128,-1,27
 131 21 131 21 100 49 c 1,28,-1
 50 0 l 1,29,-1
 15 0 l 1,30,-1
 52 213 l 1,31,-1
 82 213 l 1,32,33
 118 22 118 22 274 22 c 0,34,35
 316 22 316 22 347.5 34.5 c 128,-1,36
 379 47 379 47 400.5 66.5 c 128,-1,37
 422 86 422 86 433 111 c 128,-1,38
 444 136 444 136 444 161 c 0,39,40
 444 204.541666667 444 204.541666667 361 249.5 c 0,41,42
 325 269 325 269 284 287.5 c 128,-1,43
 243 306 243 306 207 332.5 c 128,-1,44
 171 359 171 359 147.5 397 c 128,-1,45
 124 435 124 435 124 515 c 0,46,47
 124 563 124 563 141 607.5 c 128,-1,48
 158 652 158 652 189.5 686.5 c 128,-1,49
 221 721 221 721 265.5 742 c 128,-1,50
 310 763 310 763 366 763 c 0,51,52
 415 763 415 763 455.5 747.5 c 128,-1,53
 496 732 496 732 522 708 c 1,54,-1
 562 754 l 1,0,-1
EndSplineSet
EndChar

StartChar: T
Encoding: 84 84 55
Width: 751
Flags: W
LayerCount: 2
Fore
SplineSet
160 754 m 1,0,-1
 824 754 l 5,1,-1
 791 513 l 5,2,-1
 756 513 l 5,3,4
 756 576 756 576 750.5 616.5 c 132,-1,5
 745 657 745 657 729.5 681 c 132,-1,6
 714 705 714 705 686.5 714.5 c 132,-1,7
 659 724 659 724 615 724 c 6,8,-1
 588 724 l 5,9,-1
 434 31 l 5,10,-1
 562 31 l 5,11,-1
 562 0 l 5,12,-1
 133 0 l 1,13,-1
 133 31 l 1,14,-1
 236 31 l 1,15,-1
 387 724 l 1,16,-1
 344 724 l 2,17,18
 286 724 286 724 226 673 c 128,-1,19
 166 622 166 622 123 513 c 1,20,-1
 88 513 l 1,21,-1
 160 754 l 1,0,-1
EndSplineSet
EndChar

StartChar: U
Encoding: 85 85 56
Width: 752
Flags: W
LayerCount: 2
Fore
SplineSet
114 754 m 1,0,-1
 523 754 l 1,1,-1
 523 724 l 1,2,-1
 428 724 l 1,3,-1
 317 226 l 2,4,5
 312 204 312 204 311.5 196 c 0,6,7
 310 181 310 181 310 168 c 0,8,9
 310 101 310 101 342.5 66 c 128,-1,10
 375 31 375 31 418 31 c 4,11,12
 453 31 453 31 475.5 42.5 c 128,-1,13
 498 54 498 54 525 77.5 c 128,-1,14
 552 101 552 101 572.5 138 c 128,-1,15
 593.06888 175.12432 593.06888 175.12432 604 226 c 2,16,-1
 711 724 l 1,17,-1
 611 724 l 1,18,-1
 611 754 l 1,19,-1
 838 754 l 1,20,-1
 838 724 l 1,21,-1
 751 724 l 1,22,-1
 644 226 l 2,23,24
 631 166 631 166 610.5 122.5 c 0,25,26
 590 78 590 78 557 48.5 c 128,-1,27
 524 19 524 19 477 4 c 128,-1,28
 430 -11 430 -11 365 -11 c 0,29,30
 302 -11 302 -11 254.5 2.5 c 128,-1,31
 207 16 207 16 176 40 c 128,-1,32
 145 64 145 64 129.5 97 c 128,-1,33
 114 130 114 130 114 170 c 0,34,35
 114 198.074766355 114 198.074766355 120 226 c 2,36,-1
 227 724 l 1,37,-1
 114 724 l 1,38,-1
 114 754 l 1,0,-1
EndSplineSet
EndChar

StartChar: V
Encoding: 86 86 57
Width: 666
Flags: W
LayerCount: 2
Fore
SplineSet
632 754 m 5,0,-1
 852 754 l 5,1,-1
 852 724 l 5,2,-1
 773 724 l 5,3,-1
 224 -13 l 5,4,-1
 141 -13 l 1,5,-1
 175 724 l 1,6,-1
 97 724 l 1,7,-1
 97 754 l 1,8,-1
 466 754 l 5,9,-1
 466 724 l 5,10,-1
 387 724 l 5,11,-1
 354 224 l 5,12,-1
 358 224 l 5,13,-1
 736 724 l 5,14,-1
 632 724 l 5,15,-1
 632 754 l 5,0,-1
EndSplineSet
EndChar

StartChar: W
Encoding: 87 87 58
Width: 972
Flags: W
LayerCount: 2
Fore
SplineSet
963 754 m 5,0,-1
 1183 754 l 5,1,-1
 1183 724 l 5,2,-1
 1121 724 l 5,3,-1
 552 -13 l 5,4,-1
 463 -13 l 1,5,-1
 479 328 l 1,6,-1
 200 -13 l 1,7,-1
 117 -13 l 1,8,-1
 151 724 l 1,9,-1
 68 724 l 1,10,-1
 68 754 l 1,11,-1
 926 754 l 5,12,-1
 926 724 l 5,13,-1
 867 724 l 5,14,-1
 694 495 l 5,15,-1
 676 210 l 5,16,-1
 680 210 l 5,17,-1
 1082 724 l 5,18,-1
 963 724 l 5,19,-1
 963 754 l 5,0,-1
330 210 m 1,20,-1
 334 210 l 1,21,-1
 481 384 l 1,22,-1
 497 724 l 1,23,-1
 363 724 l 1,24,-1
 330 210 l 1,20,-1
709 724 m 5,25,-1
 698 551 l 5,26,-1
 830 724 l 5,27,-1
 709 724 l 5,25,-1
EndSplineSet
EndChar

StartChar: X
Encoding: 88 88 59
Width: 635
Flags: W
LayerCount: 2
Fore
SplineSet
63 754 m 1,0,-1
 432 754 l 1,1,-1
 432 724 l 1,2,-1
 356 724 l 1,3,-1
 417 499 l 5,4,-1
 421 499 l 5,5,-1
 599 724 l 1,6,-1
 488 724 l 1,7,-1
 488 754 l 1,8,-1
 733 754 l 1,9,-1
 733 724 l 1,10,-1
 634 724 l 1,11,-1
 431 463 l 5,12,-1
 566 30 l 1,13,-1
 651 30 l 1,14,-1
 651 0 l 1,15,-1
 272 0 l 1,16,-1
 272 30 l 1,17,-1
 354 30 l 1,18,-1
 281 286 l 1,19,-1
 277 286 l 1,20,-1
 82 30 l 1,21,-1
 203 30 l 1,22,-1
 203 0 l 1,23,-1
 -54 0 l 1,24,-1
 -54 30 l 1,25,-1
 42 30 l 1,26,-1
 265 324 l 1,27,-1
 141 724 l 1,28,-1
 63 724 l 1,29,-1
 63 754 l 1,0,-1
EndSplineSet
EndChar

StartChar: Y
Encoding: 89 89 60
Width: 677
Flags: W
LayerCount: 2
Fore
SplineSet
607 754 m 1,0,-1
 832 754 l 1,1,-1
 832 724 l 1,2,-1
 755 724 l 1,3,-1
 492 311 l 1,4,-1
 428 31 l 1,5,-1
 546 31 l 1,6,-1
 546 0 l 1,7,-1
 117 0 l 1,8,-1
 117 31 l 1,9,-1
 230 31 l 1,10,-1
 294 323 l 1,11,-1
 149 724 l 1,12,-1
 67 724 l 1,13,-1
 67 754 l 1,14,-1
 471 754 l 1,15,-1
 471 724 l 1,16,-1
 355 724 l 1,17,-1
 490 374 l 1,18,-1
 494 374 l 1,19,-1
 719 724 l 1,20,-1
 607 724 l 1,21,-1
 607 754 l 1,0,-1
EndSplineSet
EndChar

StartChar: Z
Encoding: 90 90 61
Width: 699
Flags: W
LayerCount: 2
Fore
SplineSet
-1 30 m 1,0,-1
 513 720 l 1,1,-1
 513 724 l 1,2,-1
 392 724 l 2,3,4
 336 724 336 724 279 678 c 128,-1,5
 222 632 222 632 181 533 c 1,6,-1
 146 533 l 1,7,-1
 208 754 l 1,8,-1
 750 754 l 1,9,-1
 750 724 l 1,10,-1
 250 35 l 1,11,-1
 250 30 l 1,12,-1
 379 30 l 2,13,14
 442 30 442 30 456 38.5 c 132,-1,15
 470 47 470 47 497 69.5 c 132,-1,16
 524 92 524 92 550.5 131 c 132,-1,17
 577 170 577 170 606 232 c 5,18,-1
 646 232 l 5,19,-1
 586 0 l 5,20,-1
 -1 0 l 1,21,-1
 -1 30 l 1,0,-1
EndSplineSet
EndChar

StartChar: bracketleft
Encoding: 91 91 62
Width: 389
Flags: W
LayerCount: 2
Fore
SplineSet
-1 -100 m 1,0,-1
 179 754 l 1,1,-1
 458 754 l 5,2,-1
 452 724 l 5,3,-1
 356 724 l 5,4,-1
 182 -100 l 5,5,-1
 277 -100 l 5,6,-1
 271 -130 l 5,7,-1
 -4 -130 l 1,8,-1
 -1 -100 l 1,0,-1
EndSplineSet
EndChar

StartChar: backslash
Encoding: 92 92 63
Width: 225
Flags: W
LayerCount: 2
Fore
SplineSet
157 754 m 1,0,-1
 207 0 l 1,1,-1
 128 0 l 1,2,-1
 78 754 l 1,3,-1
 157 754 l 1,0,-1
EndSplineSet
Validated: 1
EndChar

StartChar: bracketright
Encoding: 93 93 64
Width: 389
Flags: W
LayerCount: 2
Fore
SplineSet
437 724 m 5,0,-1
 256 -130 l 5,1,-1
 -23 -130 l 5,2,-1
 -17 -100 l 5,3,-1
 78 -100 l 5,4,-1
 253 724 l 5,5,-1
 158 724 l 5,6,-1
 164 754 l 5,7,-1
 439 754 l 5,8,-1
 437 724 l 5,0,-1
EndSplineSet
EndChar

StartChar: asciicircum
Encoding: 94 94 65
Width: 521
Flags: W
LayerCount: 2
Fore
SplineSet
15 173 m 1,0,-1
 230 645 l 1,1,-1
 279 645 l 1,2,-1
 496 173 l 1,3,-1
 422 173 l 1,4,-1
 254 541 l 1,5,-1
 89 173 l 1,6,-1
 15 173 l 1,0,-1
EndSplineSet
Validated: 1
EndChar

StartChar: underscore
Encoding: 95 95 66
Width: 558
Flags: W
LayerCount: 2
Fore
SplineSet
-91 -70 m 1,0,-1
 493 -70 l 1,1,-1
 493 -124 l 1,2,-1
 -91 -124 l 1,3,-1
 -91 -70 l 1,0,-1
EndSplineSet
Validated: 1
EndChar

StartChar: grave
Encoding: 96 96 67
Width: 300
Flags: W
LayerCount: 2
Fore
SplineSet
305 554 m 1,0,-1
 158 649 l 2,1,2
 134 664 134 664 128.5 679.5 c 128,-1,3
 123 695 123 695 123 704 c 0,4,5
 123 733 123 733 141 746.5 c 128,-1,6
 159 760 159 760 185 760 c 0,7,8
 204 760 204 760 219 751 c 128,-1,9
 234 742 234 742 251 718 c 2,10,-1
 368 554 l 1,11,-1
 305 554 l 1,0,-1
EndSplineSet
Validated: 1
EndChar

StartChar: a
Encoding: 97 97 68
Width: 606
Flags: W
LayerCount: 2
Fore
SplineSet
391 390 m 1,0,-1
 406 450 l 1,1,-1
 580 450 l 1,2,-1
 493 87 l 2,3,4
 490 75 490 75 489 65.5 c 0,5,6
 488 57 488 57 488 54 c 0,7,8
 488 41 488 41 500 41 c 0,9,10
 515 41 515 41 542.5 66.5 c 128,-1,11
 570 92 570 92 598 161 c 1,12,-1
 623 152 l 1,13,14
 601 83 601 83 557.5 39.5 c 0,15,16
 507 -11 507 -11 418 -11 c 0,17,18
 379 -11 379 -11 347.5 8.5 c 128,-1,19
 316 28 316 28 316 70 c 1,20,-1
 316 70 l 1,21,22
 296 35 296 35 267 13.5 c 0,23,24
 234 -11 234 -11 192 -11 c 0,25,26
 125 -11 125 -11 78.5 35.5 c 0,27,28
 29 85 29 85 29 166 c 0,29,30
 29 280 29 280 117.5 372 c 0,31,32
 204 462 204 462 305 462 c 0,33,34
 342 462 342 462 363.5 444.5 c 128,-1,35
 385 427 385 427 391 390 c 1,36,-1
 391 390 l 1,0,-1
233 35 m 0,37,38
 254 35 254 35 303 102.5 c 0,39,40
 321 128 321 128 335 166 c 1,41,-1
 369 302 l 2,42,43
 372 314 372 314 372 333 c 0,44,45
 372 372 372 372 361 397.5 c 128,-1,46
 350 423 350 423 326 423 c 0,47,48
 292 423 292 423 247.5 321 c 0,49,50
 201 214 201 214 201 97 c 0,51,52
 201 58 201 58 210.5 46.5 c 128,-1,53
 220 35 220 35 233 35 c 0,37,38
EndSplineSet
Substitution2: "Single Substitution lookup 7 subtable" ordfeminine
EndChar

StartChar: b
Encoding: 98 98 69
Width: 580
Flags: W
LayerCount: 2
Fore
SplineSet
71 754 m 1,0,-1
 348 754 l 1,1,-1
 272 429 l 1,2,-1
 272 429 l 1,3,4
 305 462 305 462 362 462 c 0,5,6
 443 462 443 462 488.5 419 c 0,7,8
 541 370 541 370 541 284 c 0,9,10
 541 169 541 169 451 77.5 c 0,11,12
 362 -13 362 -13 220 -13 c 0,13,14
 141 -13 141 -13 86.5 28 c 128,-1,15
 32 69 32 69 32 135 c 0,16,17
 32 170.451612903 32 170.451612903 40 204 c 2,18,-1
 164 724 l 1,19,-1
 71 724 l 1,20,-1
 71 754 l 1,0,-1
333 424 m 0,21,22
 297 424 297 424 255 355 c 1,23,-1
 209 148 l 2,24,25
 203 121 203 121 203 82 c 0,26,27
 203 21 203 21 236 21 c 0,28,29
 278 21 278 21 323 174.5 c 4,30,31
 356 288 356 288 356 371 c 0,32,33
 356 424 356 424 333 424 c 0,21,22
EndSplineSet
EndChar

StartChar: c
Encoding: 99 99 70
Width: 499
Flags: W
LayerCount: 2
Fore
SplineSet
514 337 m 0,0,1
 514 301 514 301 491.5 274 c 128,-1,2
 469 247 469 247 419 247 c 0,3,4
 371 247 371 247 346.5 268 c 0,5,6
 320 291 320 291 320 323 c 128,-1,7
 320 355 320 355 336 375 c 128,-1,8
 352 395 352 395 352 407 c 256,9,10
 352 421 352 421 346.5 426.5 c 128,-1,11
 341 432 341 432 332 432 c 0,12,13
 311 432 311 432 286 371.5 c 0,14,15
 256 301 256 301 217 105 c 0,16,17
 215 95 215 95 215 83 c 0,18,19
 215 53 215 53 231 41 c 128,-1,20
 247 29 247 29 268 29 c 0,21,22
 317 29 317 29 363.5 54.5 c 128,-1,23
 410 80 410 80 457 148 c 1,24,-1
 482 129 l 1,25,26
 442 63 442 63 380.5 26 c 128,-1,27
 319 -11 319 -11 243 -11 c 0,28,29
 128 -11 128 -11 73 46 c 0,30,31
 22 99 22 99 22 177 c 0,32,33
 22 283 22 283 111.5 372.5 c 128,-1,34
 201 462 201 462 338 462 c 0,35,36
 419 462 419 462 464 430 c 0,37,38
 514 396 514 396 514 337 c 0,0,1
EndSplineSet
EndChar

StartChar: d
Encoding: 100 100 71
Width: 639
Flags: W
LayerCount: 2
Fore
SplineSet
249 38 m 0,0,1
 264 38 264 38 288 61.5 c 0,2,3
 326 98 326 98 353 170 c 1,4,-1
 387 311 l 2,5,6
 389 319 389 319 389 334 c 0,7,8
 389 408 389 408 357 408 c 0,9,10
 317 408 317 408 274.5 318.5 c 0,11,12
 228 220 228 220 228 107 c 0,13,14
 228 38 228 38 249 38 c 0,0,1
376 754 m 1,15,-1
 658 754 l 1,16,-1
 500 87 l 2,17,18
 497 75 497 75 496 65.5 c 0,19,20
 495 57 495 57 495 54 c 0,21,22
 495 41 495 41 507 41 c 0,23,24
 522 41 522 41 549.5 66.5 c 128,-1,25
 577 92 577 92 605 161 c 1,26,-1
 630 152 l 1,27,28
 620 121 620 121 603.5 91.5 c 128,-1,29
 587 62 587 62 564.5 39.5 c 128,-1,30
 542 17 542 17 513 3 c 128,-1,31
 484 -11 484 -11 450 -11 c 0,32,33
 411 -11 411 -11 372 8.5 c 128,-1,34
 333 28 333 28 333 70 c 1,35,36
 316 46 316 46 278.5 15.5 c 0,37,38
 246 -11 246 -11 209 -11 c 0,39,40
 132 -11 132 -11 85.5 35.5 c 0,41,42
 36 85 36 85 36 168 c 0,43,44
 36 283 36 283 124.5 373.5 c 0,45,46
 211 462 211 462 322 462 c 0,47,48
 362 462 362 462 380 439.5 c 128,-1,49
 398 417 398 417 405 389 c 1,50,-1
 486 724 l 1,51,-1
 376 724 l 1,52,-1
 376 754 l 1,15,-1
EndSplineSet
EndChar

StartChar: e
Encoding: 101 101 72
Width: 524
Flags: W
LayerCount: 2
Fore
SplineSet
342 462 m 4,0,1
 430 462 430 462 477 426.5 c 4,2,3
 523 392 523 392 523 337 c 4,4,5
 523 276 523 276 467.5 238 c 4,6,7
 407 196 407 196 284 196 c 4,8,9
 266 196 266 196 261 196.5 c 132,-1,10
 256 197 256 197 238 199 c 5,11,12
 220 93 220 93 220 73 c 4,13,14
 220 43 220 43 229.5 36 c 132,-1,15
 239 29 239 29 263 29 c 4,16,17
 312 29 312 29 363.5 54.5 c 132,-1,18
 415 80 415 80 462 148 c 5,19,-1
 487 129 l 5,20,21
 447 63 447 63 385.5 26 c 132,-1,22
 324 -11 324 -11 248 -11 c 4,23,24
 133 -11 133 -11 78 46 c 4,25,26
 27 99 27 99 27 177 c 4,27,28
 27 286 27 286 117.5 373 c 4,29,30
 210 462 210 462 342 462 c 4,0,1
343 432 m 4,31,32
 324 432 324 432 303.5 404.5 c 4,33,34
 273 363 273 363 244 232 c 5,35,-1
 253 232 l 6,36,37
 294 232 294 232 327 272 c 4,38,39
 360 313 360 313 360 412 c 4,40,41
 360 432 360 432 343 432 c 4,31,32
EndSplineSet
EndChar

StartChar: f
Encoding: 102 102 73
Width: 370
Flags: W
LayerCount: 2
Fore
SplineSet
38 450 m 5,0,-1
 139 450 l 5,1,2
 175 602 175 602 259.5 688 c 4,3,4
 336 766 336 766 452 766 c 4,5,6
 533 766 533 766 573 728 c 4,7,8
 609 694 609 694 609 637 c 4,9,10
 609 598 609 598 586 574 c 132,-1,11
 563 550 563 550 521 550 c 4,12,13
 482 550 482 550 457.5 571 c 132,-1,14
 433 592 433 592 433 628 c 4,15,16
 433 669 433 669 458.5 689 c 132,-1,17
 484 709 484 709 484 718 c 4,18,19
 484 726 484 726 478 731 c 132,-1,20
 472 736 472 736 458 736 c 4,21,22
 440 736 440 736 424 724.5 c 132,-1,23
 408 713 408 713 393 686 c 132,-1,24
 378 659 378 659 364.5 614 c 4,25,26
 351.41356674 569.409190372 351.41356674 569.409190372 338 501 c 6,27,-1
 328 450 l 5,28,-1
 449 450 l 5,29,-1
 449 420 l 5,30,-1
 322 420 l 5,31,-1
 273 175 l 6,32,33
 222 -78 222 -78 136.5 -206.5 c 4,34,35
 58 -324 58 -324 -72 -324 c 4,36,37
 -135 -324 -135 -324 -179 -286 c 4,38,39
 -213 -257 -213 -257 -213 -215 c 4,40,41
 -213 -176 -213 -176 -186 -149 c 132,-1,42
 -159 -122 -159 -122 -126 -122 c 4,43,44
 -86 -122 -86 -122 -63.5 -143 c 132,-1,45
 -41 -164 -41 -164 -41 -194 c 4,46,47
 -41 -225 -41 -225 -62.5 -242.5 c 132,-1,48
 -84 -260 -84 -260 -84 -272 c 4,49,50
 -84 -289 -84 -289 -61 -289 c 4,51,52
 -49 -289 -49 -289 -38.5 -281 c 132,-1,53
 -28 -273 -28 -273 -16 -241 c 132,-1,54
 -4 -209 -4 -209 12 -144.5 c 4,55,56
 30.0811808118 -71.7232472325 30.0811808118 -71.7232472325 52 33 c 6,57,-1
 133 420 l 5,58,-1
 38 420 l 5,59,-1
 38 450 l 5,0,-1
EndSplineSet
EndChar

StartChar: g
Encoding: 103 103 74
Width: 529
Flags: W
LayerCount: 2
Fore
SplineSet
243 131 m 0,0,1
 204 131 204 131 164.5 139.5 c 128,-1,2
 125 148 125 148 104 162 c 1,3,4
 61 140 61 140 61 124 c 0,5,6
 61 113 61 113 81.5 106 c 0,7,8
 109 96 109 96 169 94 c 2,9,-1
 349 88 l 2,10,11
 410 86 410 86 436.5 41 c 0,12,13
 459 4 459 4 459 -70 c 0,14,15
 459 -114 459 -114 441 -158.5 c 128,-1,16
 423 -203 423 -203 386.5 -238.5 c 128,-1,17
 350 -274 350 -274 293 -296.5 c 128,-1,18
 236 -319 236 -319 158 -319 c 0,19,20
 55 -319 55 -319 -2 -280.5 c 128,-1,21
 -59 -242 -59 -242 -59 -176 c 0,22,23
 -59 -159 -59 -159 -54 -142 c 128,-1,24
 -49 -125 -49 -125 -36 -108.5 c 128,-1,25
 -23 -92 -23 -92 -0.5 -82 c 128,-1,26
 22 -72 22 -72 57 -65 c 1,27,-1
 57 -65 l 1,28,29
 18 -46 18 -46 -2 -12 c 0,30,31
 -19 17 -19 17 -19 63 c 0,32,33
 -19 102 -19 102 14.5 137.5 c 0,34,35
 41 166 41 166 80 183 c 1,36,37
 46 221 46 221 46 275 c 0,38,39
 46 355 46 355 120.5 409.5 c 0,40,41
 192 462 192 462 305 462 c 0,42,43
 377 462 377 462 417 434.5 c 0,44,45
 461 404 461 404 478 374 c 1,46,-1
 483 374 l 1,47,48
 498 418 498 418 519 444 c 128,-1,49
 540 470 540 470 569 470 c 0,50,51
 592 470 592 470 608 458 c 132,-1,53
 624 446 624 446 624 423 c 0,54,55
 624 401 624 401 614.5 388.5 c 0,56,57
 600 368 600 368 572 368 c 0,58,59
 557 368 557 368 544 379.5 c 128,-1,60
 531 391 531 391 526 391 c 0,61,62
 518 391 518 391 511 374.5 c 128,-1,63
 504 358 504 358 496 314 c 1,64,65
 492 238 492 238 414.5 179.5 c 0,66,67
 349 131 349 131 243 131 c 0,0,1
97 -80 m 0,68,69
 73 -99 73 -99 60 -119.5 c 128,-1,70
 47 -140 47 -140 47 -174 c 0,71,72
 47 -284 47 -284 169 -284 c 0,73,74
 228 -284 228 -284 272.5 -268 c 128,-1,75
 317 -252 317 -252 346.5 -228 c 128,-1,76
 376 -204 376 -204 391 -176.5 c 128,-1,77
 406 -149 406 -149 406 -126 c 0,78,79
 406 -120 406 -120 387 -108.5 c 0,80,81
 370 -97 370 -97 333 -95 c 0,82,-1
 97 -80 l 0,68,69
231 156 m 0,83,84
 265 156 265 156 295.5 228.5 c 0,85,86
 334 320 334 320 334 382 c 0,87,88
 334 437 334 437 314 437 c 0,89,90
 281 437 281 437 249 371.5 c 0,91,92
 208 289 208 289 208 220 c 256,93,94
 208 156 208 156 231 156 c 0,83,84
EndSplineSet
EndChar

StartChar: h
Encoding: 104 104 75
Width: 614
Flags: W
LayerCount: 2
Fore
SplineSet
103 754 m 1,0,-1
 384 754 l 1,1,-1
 286 362 l 1,2,-1
 276 357 l 1,3,4
 317 410 317 410 345 429 c 0,5,6
 394 462 394 462 439 462 c 0,7,8
 509 462 509 462 537.5 441.5 c 0,9,10
 569 419 569 419 569 375 c 0,11,12
 569 354.419354839 569 354.419354839 563 331 c 2,13,-1
 501 89 l 2,14,15
 498 76 498 76 497 68 c 128,-1,17
 496 60 496 60 496 55 c 0,18,19
 496 35 496 35 512 35 c 0,20,21
 531 35 531 35 557.5 62.5 c 128,-1,22
 584 90 584 90 611 155 c 1,23,-1
 636 146 l 1,24,25
 619 99 619 99 598.5 68.5 c 128,-1,26
 578 38 578 38 556 20.5 c 0,27,28
 516 -11 516 -11 432 -11 c 0,29,30
 385 -11 385 -11 349.5 11 c 128,-1,31
 314 33 314 33 314 75 c 0,32,33
 314 85 314 85 315 92.5 c 0,34,35
 317 102 317 102 318 107 c 2,36,-1
 382 356 l 2,37,38
 387 375 387 375 387 390 c 128,-1,39
 387 405 387 405 376 405 c 0,40,41
 359 405 359 405 325 370 c 0,42,43
 288 331 288 331 259 254 c 1,44,-1
 196 0 l 1,45,-1
 13 0 l 1,46,-1
 189 724 l 1,47,-1
 103 724 l 1,48,-1
 103 754 l 1,0,-1
EndSplineSet
EndChar

StartChar: i
Encoding: 105 105 76
Width: 380
Flags: W
LayerCount: 2
Fore
SplineSet
167 640.5 m 0,0,1
 167 680 167 680 194 707 c 0,2,3
 222 735 222 735 261 735 c 0,4,5
 301.505616355 734.523685285 301.505616355 734.523685285 328.5 707 c 0,6,7
 354 681 354 681 354 640.5 c 128,-1,8
 354 600 354 600 328.5 573.5 c 0,9,10
 301 546 301 546 261 546 c 0,11,12
 223 546 223 546 195 574 c 128,-1,13
 167 602 167 602 167 640.5 c 0,0,1
48 450 m 5,14,-1
 329 450 l 5,15,-1
 245 87 l 6,16,17
 242 73 242 73 241 65 c 132,-1,18
 240 57 240 57 240 54 c 4,19,20
 240 37 240 37 253 37 c 4,21,22
 261 37 261 37 273 43 c 132,-1,23
 285 49 285 49 299.5 62.5 c 132,-1,24
 314 76 314 76 329.5 99 c 132,-1,25
 345 122 345 122 360 156 c 5,26,-1
 385 147 l 5,27,28
 357 66 357 66 304 27 c 4,29,30
 251 -11 251 -11 172 -11 c 4,31,32
 103 -11 103 -11 79 8.5 c 132,-1,33
 55 28 55 28 55 70 c 4,34,35
 55 76 55 76 55.5 82.5 c 132,-1,36
 56 89 56 89 58 98 c 4,37,38
 63 119 63 119 63 120 c 4,39,40
 64 123 64 123 71 153 c 6,41,-1
 137 420 l 5,42,-1
 48 420 l 5,43,-1
 48 450 l 5,14,-1
EndSplineSet
EndChar

StartChar: j
Encoding: 106 106 77
Width: 337
Flags: W
LayerCount: 2
Fore
SplineSet
157 640.5 m 0,0,1
 157 680 157 680 184 707 c 0,2,3
 212 735 212 735 251 735 c 0,4,5
 291.505859375 734.5234375 291.505859375 734.5234375 318.5 707 c 0,6,7
 344 681 344 681 344 640.5 c 128,-1,8
 344 600 344 600 318.5 573.5 c 0,9,10
 291 546 291 546 251 546 c 0,11,12
 213 546 213 546 185 574 c 128,-1,13
 157 602 157 602 157 640.5 c 0,0,1
43 450 m 1,14,-1
 324 450 l 1,15,-1
 223 -3 l 2,16,17
 182 -188 182 -188 89.5 -268.5 c 0,18,19
 25 -324 25 -324 -75 -324 c 0,20,21
 -142 -324 -142 -324 -180.5 -295 c 128,-1,22
 -219 -266 -219 -266 -219 -222 c 0,23,24
 -219 -181 -219 -181 -192.5 -155.5 c 128,-1,25
 -166 -130 -166 -130 -127 -130 c 0,26,27
 -91 -130 -91 -130 -71 -153.5 c 128,-1,28
 -51 -177 -51 -177 -51 -216 c 0,29,30
 -51 -235 -51 -235 -63 -250 c 128,-1,31
 -75 -265 -75 -265 -75 -272 c 0,32,33
 -75 -278 -75 -278 -71.5 -282.5 c 128,-1,34
 -68 -287 -68 -287 -59 -287 c 0,35,36
 -55 -287 -55 -287 -48.5 -283.5 c 128,-1,37
 -42 -280 -42 -280 -33.5 -262.5 c 128,-1,38
 -25 -245 -25 -245 -13.5 -209.5 c 0,39,40
 -2.09004474273 -173.285794183 -2.09004474273 -173.285794183 12 -110 c 2,41,-1
 130 420 l 1,42,-1
 43 420 l 1,43,-1
 43 450 l 1,14,-1
EndSplineSet
EndChar

StartChar: k
Encoding: 107 107 78
Width: 593
Flags: W
LayerCount: 2
Fore
SplineSet
264 271 m 1,0,1
 271 277 271 277 280.5 281 c 128,-1,2
 290 285 290 285 304 285 c 1,3,4
 329 312 329 312 346 343 c 128,-1,5
 363 374 363 374 380 400.5 c 128,-1,6
 397 427 397 427 423.5 444.5 c 128,-1,7
 450 462 450 462 484 462 c 0,8,9
 533 462 533 462 559 434.5 c 0,10,11
 588 404 588 404 588 363 c 0,12,13
 588 330 588 330 563 302.5 c 128,-1,14
 538 275 538 275 497 275 c 0,15,16
 463 275 463 275 441.5 297 c 128,-1,17
 420 319 420 319 420 355 c 0,18,19
 420 377 420 377 431 391 c 128,-1,20
 442 405 442 405 442 410 c 0,21,22
 442 414 442 414 434 414 c 0,23,24
 425 414 425 414 413 397.5 c 128,-1,25
 401 381 401 381 387.5 358.5 c 128,-1,26
 374 336 374 336 361 313.5 c 128,-1,27
 348 291 348 291 338 278 c 1,28,29
 390 274 390 274 438.5 239 c 0,30,31
 478 211 478 211 478 163.5 c 0,32,33
 478 136 478 136 473 110 c 128,-1,34
 468 84 468 84 468 64 c 0,35,36
 468 46 468 46 486 46 c 0,37,38
 498 46 498 46 521.5 68.5 c 128,-1,39
 545 91 545 91 568 145 c 1,40,-1
 595 132 l 1,41,42
 560 57 560 57 519 22 c 128,-1,43
 478 -13 478 -13 408 -13 c 0,44,45
 341 -13 341 -13 313.5 8 c 0,46,47
 277 34 277 34 277 77 c 0,48,49
 277 105 277 105 286.5 122 c 0,50,51
 297 141 297 141 304 156 c 128,-1,52
 311 171 311 171 316.5 188.5 c 128,-1,53
 322 206 322 206 322 223 c 0,54,55
 322 251 322 251 317 254 c 1,56,57
 306 243 306 243 291.5 234 c 0,58,59
 280 227 280 227 272 227 c 256,60,61
 261 227 261 227 254 234 c 1,62,-1
 196 0 l 1,63,-1
 13 0 l 1,64,-1
 189 724 l 1,65,-1
 103 724 l 1,66,-1
 103 754 l 1,67,-1
 384 754 l 1,68,-1
 264 271 l 1,0,1
EndSplineSet
EndChar

StartChar: l
Encoding: 108 108 79
Width: 362
Flags: W
LayerCount: 2
Fore
SplineSet
118 754 m 5,0,-1
 380 754 l 5,1,-1
 221 87 l 6,2,3
 218 74 218 74 217 65.5 c 132,-1,4
 216 57 216 57 216 54 c 4,5,6
 216 41 216 41 228 41 c 4,7,8
 242 41 242 41 266.5 66.5 c 132,-1,9
 291 92 291 92 316 161 c 5,10,-1
 341 152 l 5,11,12
 316 70 316 70 271.5 29.5 c 132,-1,13
 227 -11 227 -11 156 -11 c 4,14,15
 103 -11 103 -11 75.5 12.5 c 132,-1,16
 48 36 48 36 48 67 c 4,17,18
 48 79 48 79 50.5 96.5 c 132,-1,19
 53.0240963855 114.168674699 53.0240963855 114.168674699 57 132 c 6,20,-1
 189 724 l 5,21,-1
 118 724 l 5,22,-1
 118 754 l 5,0,-1
EndSplineSet
EndChar

StartChar: m
Encoding: 109 109 80
Width: 851
Flags: W
LayerCount: 2
Fore
SplineSet
44 450 m 1,0,-1
 325 450 l 1,1,-1
 306 371 l 1,2,-1
 296 371 l 1,3,4
 330 421 330 421 350 435.5 c 0,5,6
 384 462 384 462 430 462 c 0,7,8
 475 462 475 462 512.5 436 c 128,-1,9
 550 410 550 410 552 351 c 1,10,-1
 542 351 l 1,11,12
 564 397 564 397 597.5 427.5 c 0,13,14
 637 462 637 462 686 462 c 0,15,16
 745 462 745 462 775 440 c 0,17,18
 811 415 811 415 813 374 c 0,19,20
 814.011118833 350.744266852 814.011118833 350.744266852 810 332 c 2,21,-1
 758 89 l 2,22,23
 755.897366596 83.1789327688 755.897366596 83.1789327688 754 68 c 0,24,25
 753 60 753 60 753 55 c 0,26,27
 753 35 753 35 769 35 c 0,28,29
 786 35 786 35 805.5 58 c 128,-1,30
 825 81 825 81 849 135 c 1,31,-1
 874 126 l 1,32,33
 858 85 858 85 840.5 58.5 c 128,-1,34
 823 32 823 32 803.5 16.5 c 128,-1,35
 784 1 784 1 763 -7 c 128,-1,36
 742 -15 742 -15 689 -15 c 0,37,38
 642 -15 642 -15 606.5 9 c 128,-1,39
 571 33 571 33 571 75 c 0,40,41
 571 85 571 85 572 92.5 c 0,42,43
 574 102 574 102 575 107 c 2,44,-1
 627 356 l 2,45,46
 630 371 630 371 630.5 374.5 c 0,47,48
 632 386 632 386 632 394 c 0,49,50
 632 406 632 406 624 406 c 0,51,52
 615 406 615 406 593.5 379.5 c 0,53,54
 561 342 561 342 536 258 c 1,55,-1
 485 0 l 1,56,-1
 299 0 l 1,57,-1
 376 356 l 2,58,59
 379 371 379 371 379.5 374.5 c 0,60,61
 381 386 381 386 381 394 c 0,62,63
 381 407 381 407 368 407 c 0,64,65
 350 407 350 407 324 365.5 c 0,66,67
 312 347 312 347 286 290 c 1,68,-1
 218 0 l 1,69,-1
 35 0 l 1,70,-1
 131 420 l 1,71,-1
 44 420 l 1,72,-1
 44 450 l 1,0,-1
EndSplineSet
EndChar

StartChar: n
Encoding: 110 110 81
Width: 642
Flags: W
LayerCount: 2
Fore
SplineSet
49 450 m 5,0,-1
 330 450 l 5,1,-1
 305 351 l 5,2,-1
 292 351 l 5,3,4
 330 409 330 409 356.5 427.5 c 4,5,6
 406 462 406 462 462 462 c 4,7,8
 536 462 536 462 563 443 c 4,9,10
 594 421 594 421 594 382 c 4,11,12
 594 361.34375 594 361.34375 588 338 c 6,13,-1
 524 89 l 6,14,15
 521 79 521 79 520 68 c 4,16,17
 519 60 519 60 519 55 c 4,18,19
 519 35 519 35 535 35 c 4,20,21
 554 35 554 35 580.5 62.5 c 132,-1,22
 607 90 607 90 634 155 c 5,23,-1
 659 146 l 5,24,25
 642 99 642 99 621.5 68.5 c 132,-1,26
 601 38 601 38 579 20.5 c 132,-1,27
 557 3 557 3 525.5 -4 c 132,-1,28
 494 -11 494 -11 460 -11 c 4,29,30
 393 -11 393 -11 365 11 c 132,-1,31
 337 33 337 33 337 75 c 4,32,33
 337 85 337 85 338 92.5 c 4,34,35
 340 102 340 102 341 107 c 6,36,-1
 405 356 l 6,37,38
 407 365 407 365 408.5 374.5 c 4,39,40
 410 386 410 386 410 394 c 4,41,42
 410 410 410 410 396 410 c 4,43,44
 381 410 381 410 358.5 390.5 c 4,45,46
 311 349 311 349 280 248 c 5,47,-1
 218 0 l 5,48,-1
 35 0 l 5,49,-1
 136 420 l 5,50,-1
 49 420 l 5,51,-1
 49 450 l 5,0,-1
EndSplineSet
EndChar

StartChar: o
Encoding: 111 111 82
Width: 596
Flags: W
LayerCount: 2
Fore
SplineSet
345 427 m 0,0,1
 309 427 309 427 263 321 c 0,2,3
 222 227 222 227 222 112 c 0,4,5
 222 22 222 22 255 22 c 0,6,7
 286 22 286 22 332 128 c 0,8,9
 373 222 373 222 373 337 c 0,10,11
 373 427 373 427 345 427 c 0,0,1
242 -13 m 0,12,13
 134 -13 134 -13 78 39.5 c 0,14,15
 23 91 23 91 23 169 c 0,16,17
 23 278 23 278 116.5 369.5 c 0,18,19
 211 462 211 462 353 462 c 0,20,21
 461 462 461 462 517.5 409.5 c 0,22,23
 573 358 573 358 573 280 c 0,24,25
 573 170 573 170 479 79.5 c 0,26,27
 383 -13 383 -13 242 -13 c 0,12,13
EndSplineSet
Substitution2: "Single Substitution lookup 7 subtable" ordmasculine
EndChar

StartChar: p
Encoding: 112 112 83
Width: 638
Flags: W
LayerCount: 2
Fore
SplineSet
302 383 m 1,0,-1
 288 363 l 1,1,2
 311.799519808 411.551020408 311.799519808 411.551020408 348 436.5 c 0,3,4
 385 462 385 462 430 462 c 0,5,6
 508 462 508 462 554.5 413.5 c 0,7,8
 604 362 604 362 604 277 c 0,9,10
 604 165 604 165 524.5 78 c 0,11,12
 443 -11 443 -11 316 -11 c 0,13,14
 278 -11 278 -11 252.5 8 c 128,-1,15
 227 27 227 27 214 67 c 1,16,-1
 224 62 l 1,17,-1
 141 -279 l 1,18,-1
 239 -279 l 1,19,-1
 239 -309 l 1,20,-1
 -115 -309 l 1,21,-1
 -115 -279 l 1,22,-1
 -41 -279 l 1,23,-1
 125 420 l 1,24,-1
 38 420 l 1,25,-1
 38 450 l 1,26,-1
 319 450 l 1,27,-1
 302 383 l 1,0,-1
390 418 m 0,28,29
 374 418 374 418 354 403.5 c 0,30,31
 318 378 318 378 279 289 c 1,32,-1
 244 144 l 1,33,-1
 242 122 l 2,34,35
 239 86 239 86 254.5 55.5 c 0,36,37
 266 31 266 31 290 31 c 128,-1,38
 314 31 314 31 349.5 90 c 0,39,40
 381 143 381 143 400 224 c 128,-1,41
 419 305 419 305 419 371 c 0,42,43
 419 418 419 418 390 418 c 0,28,29
EndSplineSet
EndChar

StartChar: q
Encoding: 113 113 84
Width: 608
Flags: W
LayerCount: 2
Fore
SplineSet
166 -279 m 1,0,-1
 252 -279 l 1,1,-1
 335 70 l 1,2,-1
 345 70 l 1,3,4
 326 42 326 42 295 15.5 c 128,-1,5
 264 -11 264 -11 218 -11 c 0,6,7
 131 -11 131 -11 84.5 35.5 c 0,8,9
 35 85 35 85 35 166 c 0,10,11
 35 279 35 279 124.5 372 c 0,12,13
 211 462 211 462 332 462 c 0,14,15
 372 462 372 462 392.5 443 c 128,-1,16
 413 424 413 424 416 381 c 1,17,-1
 412 391 l 1,18,-1
 426 450 l 1,19,-1
 613 450 l 1,20,-1
 435 -279 l 1,21,-1
 519 -279 l 1,22,-1
 519 -309 l 1,23,-1
 166 -309 l 1,24,-1
 166 -279 l 1,0,-1
259 34 m 0,25,26
 286 34 286 34 323.5 91 c 0,27,28
 351.237304688 133.36328125 351.237304688 133.36328125 365 193 c 2,29,-1
 392 310 l 2,30,31
 395 323 395 323 395 336 c 0,32,33
 395 373 395 373 386.5 398 c 128,-1,34
 378 423 378 423 355 423 c 0,35,36
 323 423 323 423 274.5 321 c 0,37,38
 227 222 227 222 227 108 c 0,39,40
 227 34 227 34 259 34 c 0,25,26
EndSplineSet
EndChar

StartChar: r
Encoding: 114 114 85
Width: 547
Flags: W
LayerCount: 2
Fore
SplineSet
56 450 m 1,0,-1
 337 450 l 1,1,-1
 316 367 l 1,2,-1
 306 357 l 1,3,4
 336 404 336 404 380 436 c 0,5,6
 416 461 416 461 464 461 c 0,7,8
 506 461 506 461 538 435.299804688 c 0,9,10
 573 406 573 406 572 358 c 0,11,12
 571 307 571 307 541.75 276 c 0,13,14
 513 246 513 246 467 246 c 0,15,16
 413 246 413 246 389 272.219726562 c 0,17,18
 356.470638894 307.065533969 356.470638894 307.065533969 364 333 c 0,19,20
 373 363 373 363 359 357 c 0,21,22
 343.784450335 350.865992874 343.784450335 350.865992874 322 314 c 0,23,24
 308 290 308 290 297 262 c 0,25,26
 276.274193548 208.112903226 276.274193548 208.112903226 276 207 c 2,27,-1
 225 0 l 1,28,-1
 42 0 l 1,29,-1
 143 420 l 1,30,-1
 56 420 l 1,31,-1
 56 450 l 1,0,-1
EndSplineSet
EndChar

StartChar: s
Encoding: 115 115 86
Width: 508
Flags: W
LayerCount: 2
Fore
SplineSet
288.845703125 462 m 0,0,1
 387 462 387 462 431.845703125 433 c 0,2,3
 487 396 487 396 486.845703125 354 c 0,4,5
 487 319 487 319 469.345703125 297.5 c 0,6,7
 448 272 448 272 412.845703125 272 c 256,8,9
 379 272 379 272 351.345703125 295 c 0,10,11
 327 315 327 315 326.845703125 351 c 0,12,13
 327 363 327 363 332.345703125 378 c 0,14,15
 338 393 338 393 337.845703125 401 c 0,16,17
 338 418 338 418 324.845703125 427.5 c 0,18,19
 312 437 312 437 282.845703125 437 c 0,20,21
 269 437 269 437 254.345703125 429.5 c 0,22,23
 230 418 230 418 231 392 c 0,24,25
 233 347 233 347 318 289 c 0,26,27
 453 198 453 198 452.845703125 116 c 256,28,29
 453 55 453 55 395.845703125 23.0185546875 c 4,30,31
 325 -16 325 -16 218.845703125 -16 c 0,32,33
 144 -16 144 -16 79.345703125 19.5 c 0,34,35
 20 51 20 51 20.845703125 112 c 0,36,37
 22 159 22 159 51.845703125 182 c 0,38,39
 77 201 77 201 111.345703125 201 c 0,40,41
 153 201 153 201 174.845703125 173.5 c 0,42,43
 192 151 192 151 191.845703125 116 c 0,44,45
 192 95 192 95 177.845703125 78 c 0,46,47
 171 70 171 70 170.845703125 57 c 256,48,49
 171 15 171 15 220.845703125 11 c 0,50,51
 265 8 265 8 289.845703125 20.5 c 0,52,53
 317 34 317 34 316.845703125 70 c 0,54,55
 317 98 317 98 258.345703125 146 c 0,56,57
 167 219 167 219 148.345703125 234.5 c 0,58,59
 83 291 83 291 82.345703125 345 c 0,60,61
 82 395 82 395 143.845703125 430 c 0,62,63
 200 462 200 462 288.845703125 462 c 0,0,1
EndSplineSet
EndChar

StartChar: t
Encoding: 116 116 87
Width: 398
Flags: W
LayerCount: 2
Fore
SplineSet
44 450 m 5,0,-1
 131 450 l 1,1,-1
 159 574 l 1,2,-1
 343 574 l 1,3,-1
 314 450 l 1,4,-1
 410 450 l 1,5,-1
 410 420 l 1,6,-1
 307 420 l 1,7,-1
 231 87 l 2,8,9
 228 74 228 74 227 66 c 128,-1,10
 226 58 226 58 226 55 c 0,11,12
 226 40 226 40 246 40 c 0,13,14
 265 40 265 40 295.5 63 c 128,-1,15
 326 86 326 86 357 151 c 1,16,-1
 382 142 l 1,17,18
 367 104 367 104 346 75 c 128,-1,19
 325 46 325 46 300 27 c 128,-1,20
 275 8 275 8 246.5 -1.5 c 128,-1,21
 218 -11 218 -11 165 -11 c 0,22,23
 101 -11 101 -11 75.5 12.5 c 128,-1,24
 50 36 50 36 50 66 c 0,25,26
 50 80 50 80 53 99 c 0,27,28
 56.1003717472 119.152416357 56.1003717472 119.152416357 59 132 c 2,29,-1
 124 420 l 1,30,-1
 44 420 l 5,31,-1
 44 450 l 5,0,-1
EndSplineSet
EndChar

StartChar: u
Encoding: 117 117 88
Width: 648
Flags: W
LayerCount: 2
Fore
SplineSet
41 450 m 1,0,-1
 330 450 l 1,1,-1
 239 95 l 2,2,3
 237 87 237 87 237 77 c 0,4,5
 237 61 237 61 250.5 56 c 128,-1,6
 264 51 264 51 296 73.5 c 0,7,8
 339 105 339 105 361 192 c 1,9,-1
 425 450 l 1,10,-1
 609 450 l 1,11,-1
 522 87 l 2,12,13
 519 75 519 75 518 65.5 c 0,14,15
 517 57 517 57 517 54 c 0,16,17
 517 41 517 41 529 41 c 0,18,19
 544 41 544 41 571.5 66.5 c 128,-1,20
 599 92 599 92 627 161 c 1,21,-1
 652 152 l 1,22,23
 642 121 642 121 625.5 91.5 c 128,-1,24
 609 62 609 62 586.5 39.5 c 128,-1,25
 564 17 564 17 535 3 c 132,-1,26
 506 -11 506 -11 462 -11 c 4,27,28
 403 -11 403 -11 373 8.5 c 128,-1,29
 343 28 343 28 343 70 c 0,30,31
 343 76 343 76 343.5 82 c 128,-1,32
 344 88 344 88 346 98 c 1,33,-1
 356 98 l 1,34,35
 327 56 327 56 276.5 23 c 0,36,37
 226 -11 226 -11 167 -11 c 128,-1,38
 108 -11 108 -11 81 8 c 0,39,40
 50 30 50 30 50 69 c 0,41,42
 50 89.6835443038 50 89.6835443038 56 113 c 2,43,-1
 135 420 l 1,44,-1
 41 420 l 1,45,-1
 41 450 l 1,0,-1
EndSplineSet
EndChar

StartChar: v
Encoding: 118 118 89
Width: 552
Flags: W
LayerCount: 2
Fore
SplineSet
461 302 m 4,0,1
 441 293 441 293 420 294 c 4,2,3
 385 295 385 295 367 319 c 4,4,5
 348 345 348 345 348 379 c 4,6,7
 348 418 348 418 376 442 c 132,-1,9
 404 466 404 466 448 467 c 4,10,11
 489 467 489 467 510.5 444 c 132,-1,12
 532 421 532 421 532 385 c 4,13,14
 532 333 532 333 488 220 c 4,15,16
 453 131 453 131 376 55 c 4,17,18
 308 -12 308 -12 226 -12 c 4,19,20
 175 -12 175 -12 131.5 14.5 c 128,-1,21
 88 41 88 41 88 98 c 0,22,23
 88 120.75862069 88 120.75862069 94 143 c 2,24,-1
 152 358 l 2,25,26
 155 369 155 369 156 379 c 0,27,28
 157 387 157 387 157 392 c 0,29,30
 157 411 157 411 141 411 c 0,31,32
 124 411 124 411 102.5 385.5 c 128,-1,33
 81 360 81 360 51 297 c 1,34,-1
 28 308 l 1,35,36
 60 384 60 384 98 423 c 128,-1,37
 136 462 136 462 212 462 c 128,-1,38
 288 462 288 462 309 433 c 128,-1,39
 330 404 330 404 330 376 c 0,40,41
 330 365 330 365 328.5 357 c 128,-1,42
 327 349 327 349 325 338 c 2,43,-1
 271 114 l 2,44,45
 267 97 267 97 267 85 c 0,46,47
 267 52 267 52 290 52 c 4,48,49
 330 52 330 52 380 111 c 4,50,51
 427 167 427 167 448 216 c 4,52,53
 471 267 471 267 474.080078125 295.942382812 c 4,54,55
 475 304 475 304 468.814453125 304.008789062 c 4,56,57
 466 304 466 304 461 302 c 4,0,1
EndSplineSet
EndChar

StartChar: w
Encoding: 119 119 90
Width: 872
Flags: W
LayerCount: 2
Fore
SplineSet
546 -12 m 0,0,1
 493 -12 493 -12 446.5 26 c 128,-1,89
 400 64 400 64 400 126 c 0,87,88
 400 143 400 143 403 163 c 2,85,86
 410 210 l 1,84,-1
 424 240 l 1,83,-1
 414 214 414 214 396 155.5 c 128,-1,82
 378 97 378 97 352.5 62 c 128,-1,81
 327 27 327 27 294.5 7.5 c 128,-1,80
 262 -12 262 -12 219 -12 c 0,78,79
 178 -12 178 -12 159.5 -5.5 c 128,-1,77
 141 1 141 1 127 13.5 c 128,-1,76
 113 26 113 26 104.5 45 c 128,-1,75
 96 64 96 64 96 88 c 0,73,74
 96 108 96 108 102 132 c 2,71,72
 158 358 l 2,70,-1
 161.024 370.204 161.024 370.204 162 378.5 c 0,68,69
 163 387 163 387 163 392 c 0,66,67
 163 411 163 411 147 411 c 0,64,65
 130 411 130 411 108.5 385.5 c 128,-1,63
 87 360 87 360 57 297 c 1,61,62
 34 308 l 1,59,60
 66 384 66 384 104 423 c 128,-1,58
 142 462 142 462 218 462 c 0,56,57
 264 462 264 462 300 438 c 128,-1,55
 336 414 336 414 336 379 c 0,53,54
 336 369 336 369 334.5 360 c 128,-1,52
 333 351 333 351 331 338 c 2,50,51
 285 125 l 2,49,-1
 281 106.47826087 281 106.47826087 281 97 c 0,47,48
 281 81 281 81 286.5 76 c 128,-1,46
 292 71 292 71 299 71 c 0,44,45
 317 71 317 71 330.5 91 c 0,42,43
 337 101 337 101 355.5 149.5 c 0,40,41
 367 178 367 178 396.5 272 c 0,38,39
 431 383 431 383 447 450 c 1,36,37
 635 450 l 1,35,-1
 587 215 l 2,34,-1
 580.920283437 185.234720992 580.920283437 185.234720992 576 138 c 0,32,33
 573 107 573 107 573 93 c 0,30,31
 573 52 573 52 610 52 c 0,28,29
 650 52 650 52 700 111 c 0,26,27
 747 167 747 167 768 216 c 0,24,25
 791 267 791 267 794.080078125 295.942382812 c 0,22,23
 795 304 795 304 788.814453125 304.008789062 c 0,20,21
 786 304 786 304 781 302 c 0,18,19
 761 293 761 293 740 294 c 0,16,17
 705 295 705 295 687 319 c 0,14,15
 668 345 668 345 668 379 c 0,12,13
 668 418 668 418 696 442 c 128,-1,11
 724 466 724 466 768 467 c 0,9,10
 809 467 809 467 830.5 444 c 128,-1,8
 852 421 852 421 852 385 c 0,6,7
 852 333 852 333 808 220 c 0,4,5
 773 131 773 131 696 55 c 0,2,3
 628 -12 628 -12 546 -12 c 0,0,1
EndSplineSet
EndChar

StartChar: x
Encoding: 120 120 91
Width: 574
Flags: W
LayerCount: 2
Fore
SplineSet
41 -13 m 0,0,1
 1 -13 1 -13 -22.5 10.5 c 0,2,3
 -48 36 -48 36 -48 68 c 0,4,5
 -48 103 -48 103 -23.5 131 c 0,6,7
 3 161 3 161 43 161 c 0,8,9
 60 161 60 161 75.5 153 c 0,10,11
 93 144 93 144 102.5 130 c 132,-1,12
 112 116 112 116 109 97.5 c 128,-1,13
 106 79 106 79 111 79 c 128,-1,14
 116 79 116 79 121.5 82 c 128,-1,15
 127 85 127 85 136 95.5 c 128,-1,16
 145 106 145 106 156.5 122 c 128,-1,17
 168 138 168 138 191 173 c 1,18,-1
 154 367 l 2,19,20
 149 395 149 395 134 395 c 0,21,22
 120 395 120 395 107.5 375 c 128,-1,23
 95 355 95 355 66 293 c 1,24,-1
 43 302 l 1,25,26
 57 337 57 337 73.5 366.5 c 128,-1,27
 90 396 90 396 110 417 c 128,-1,28
 130 438 130 438 159.5 450 c 128,-1,29
 189 462 189 462 219 462 c 0,30,31
 269 462 269 462 298 435.5 c 0,32,33
 329 406 329 406 335 362 c 2,34,-1
 338 340 l 1,35,-1
 337 342 l 1,36,37
 379 406 379 406 412.5 434 c 128,-1,38
 446 462 446 462 478 462 c 0,39,40
 519 462 519 462 543 440.5 c 128,-1,41
 567 419 567 419 567 384 c 128,-1,42
 567 349 567 349 543.5 321 c 128,-1,43
 520 293 520 293 488 291 c 0,44,45
 449 289 449 289 425.5 312 c 0,46,47
 409 328 409 328 409.5 350.5 c 128,-1,48
 410 373 410 373 403 373 c 0,49,50
 395.60870183 374.052182561 395.60870183 374.052182561 377 348 c 0,51,52
 367 334 367 334 361.5 324.5 c 128,-1,53
 356 315 356 315 349 302 c 1,54,-1
 399 67 l 2,55,56
 403 48 403 48 416 48 c 0,57,58
 431 48 431 48 448.5 71 c 128,-1,59
 466 94 466 94 498 159 c 1,60,-1
 521 147 l 1,61,62
 504 112 504 112 487.5 82.5 c 128,-1,63
 471 53 471 53 451.5 32 c 128,-1,64
 432 11 432 11 403.5 -1 c 128,-1,65
 375 -13 375 -13 344 -13 c 0,66,67
 300 -13 300 -13 262.5 11.5 c 0,68,69
 215.054503729 42.9638554217 215.054503729 42.9638554217 204 101 c 2,70,-1
 196 143 l 1,71,-1
 202 143 l 1,72,73
 173 97 173 97 150 67 c 128,-1,74
 127 37 127 37 108 19 c 128,-1,75
 89 1 89 1 73 -6 c 128,-1,76
 57 -13 57 -13 41 -13 c 0,0,1
EndSplineSet
EndChar

StartChar: y
Encoding: 121 121 92
Width: 571
Flags: W
LayerCount: 2
Fore
SplineSet
348 76 m 6,0,1
 317.323714696 -7.4847169156 317.323714696 -7.4847169156 273.65234375 -77 c 0,2,3
 218 -164 218 -164 186.15234375 -202.5 c 0,4,5
 142 -255 142 -255 97.65234375 -284.5 c 0,6,7
 54 -314 54 -314 13.65234375 -314 c 256,8,9
 -39 -314 -39 -314 -68.84765625 -286.5 c 0,10,11
 -99 -258 -99 -258 -99.34765625 -217 c 0,12,13
 -99 -181 -99 -181 -70.34765625 -153 c 0,14,15
 -43 -127 -43 -127 -6.34765625 -127 c 0,16,17
 23 -127 23 -127 40.15234375 -139.5 c 0,18,19
 60 -154 60 -154 68.65234375 -172.5 c 0,20,21
 77 -189 77 -189 71.15234375 -222 c 0,22,23
 66 -255 66 -255 76.65234375 -255 c 0,24,25
 89 -255 89 -255 110.65234375 -236 c 0,26,27
 133 -217 133 -217 159.65234375 -183 c 0,28,29
 187 -149 187 -149 213.15234375 -110 c 0,30,31
 240 -71 240 -71 268.65234375 -17 c 1,32,-1
 142.65234375 338 l 2,33,34
 136 358 136 358 129.65234375 369 c 0,35,36
 125 378 125 378 115.65234375 378 c 0,37,38
 103 378 103 378 90.15234375 361 c 0,39,40
 78 344 78 344 49.65234375 283 c 1,41,-1
 19.65234375 297 l 1,42,43
 38 334 38 334 55.15234375 364 c 0,44,45
 73 394 73 394 92.65234375 416 c 0,46,47
 113 438 113 438 141.65234375 450 c 0,48,49
 171 462 171 462 203.65234375 462 c 0,50,51
 246 462 246 462 267.15234375 449 c 0,52,53
 299.731776874 429.163313403 299.731776874 429.163313403 310.65234375 397 c 2,54,-1
 383.65234375 182 l 1,55,-1
 357.65234375 182 l 1,56,-1
 411.65234375 347 l 2,57,58
 435 418 435 418 467.65234375 442.5 c 0,59,60
 494 462 494 462 534.65234375 462 c 0,61,62
 578 462 578 462 600.15234375 437 c 0,63,64
 625 410 625 410 624.65234375 372 c 0,65,66
 625 334 625 334 597.65234375 306 c 0,67,68
 571 278 571 278 531.65234375 278 c 0,69,70
 489 278 489 278 472.65234375 305 c 0,71,72
 462 323 462 323 453.65234375 325 c 0,73,74
 442 327 442 327 437.701171875 318.436523438 c 0,75,76
 436.14153484 315.874907005 436.14153484 315.874907005 419.65234375 271 c 2,77,-1
 348 76 l 6,0,1
EndSplineSet
EndChar

StartChar: z
Encoding: 122 122 93
Width: 494
Flags: W
LayerCount: 2
Fore
SplineSet
39 227 m 1,0,-1
 141 450 l 1,1,-1
 166 450 l 1,2,3
 220 433 220 433 287.5 425 c 128,-1,4
 355 417 355 417 423 417 c 0,5,6
 431 417 431 417 433 424 c 128,-1,7
 435 431 435 431 437.5 439.5 c 128,-1,8
 440 448 440 448 445.5 455 c 128,-1,9
 451 462 451 462 466 462 c 0,10,11
 492 462 492 462 492 440 c 0,12,13
 492 419.86038961 492 419.86038961 467 399 c 2,14,-1
 159 142 l 1,15,-1
 179 188 l 1,16,17
 237 188 237 188 268.5 177.5 c 128,-1,18
 300 167 300 167 318 140.5 c 128,-1,19
 336 114 336 114 350.5 108.5 c 128,-1,20
 365 103 365 103 379 103 c 0,21,22
 401 103 401 103 410 115.5 c 128,-1,23
 419 128 419 128 419 136 c 0,24,25
 419 147 419 147 405 145.5 c 128,-1,26
 391 144 391 144 376 145 c 0,27,28
 355 146 355 146 340 158.5 c 0,29,30
 320 175 320 175 320 204 c 0,31,32
 320 241 320 241 343 260 c 128,-1,33
 366 279 366 279 398 279 c 0,34,35
 435 279 435 279 458 248 c 0,36,37
 476 223 476 223 476 181 c 0,38,39
 476 149 476 149 452 108.5 c 128,-1,40
 428 68 428 68 406.5 43 c 128,-1,41
 385 18 385 18 355.5 2.5 c 128,-1,42
 326 -13 326 -13 290 -13 c 0,43,44
 261 -13 261 -13 235 -3.5 c 128,-1,45
 209 6 209 6 184.5 17 c 128,-1,46
 160 28 160 28 136.5 37.5 c 128,-1,47
 113 47 113 47 89 47 c 0,48,49
 83 47 83 47 80 45.5 c 128,-1,50
 77 44 77 44 77 38 c 0,51,52
 77 33 77 33 78.5 26.5 c 128,-1,53
 80 20 80 20 80 14 c 0,54,55
 80 2 80 2 71 -5.5 c 128,-1,56
 62 -13 62 -13 47 -13 c 0,57,58
 29 -13 29 -13 19 -3 c 128,-1,59
 9 7 9 7 9 24 c 0,60,61
 9 31 9 31 11.5 38.5 c 128,-1,62
 14 46 14 46 21.5 56 c 128,-1,63
 29 66 29 66 42.5 79.5 c 0,64,65
 53.4390243902 90.4390243902 53.4390243902 90.4390243902 79 112 c 2,66,-1
 341 333 l 1,67,-1
 328 316 l 1,68,69
 290 305 290 305 240.5 285 c 128,-1,70
 191 265 191 265 164 265 c 0,71,72
 121 265 121 265 94 276 c 1,73,-1
 66 216 l 1,74,-1
 39 227 l 1,0,-1
EndSplineSet
EndChar

StartChar: braceleft
Encoding: 123 123 94
Width: 320
Flags: W
LayerCount: 2
Fore
SplineSet
39 326 m 1,0,1
 58 326 58 326 72 331.5 c 128,-1,2
 86 337 86 337 96.5 350.5 c 128,-1,3
 107 364 107 364 115 386.5 c 128,-1,4
 123 409 123 409 130 443 c 2,5,-1
 158 572 l 2,6,7
 170 629 170 629 184.5 664.5 c 128,-1,8
 199 700 199 700 226 720 c 128,-1,9
 253 740 253 740 297.5 747 c 128,-1,10
 342 754 342 754 415 754 c 1,11,-1
 409 724 l 1,12,13
 384 724 384 724 366 718 c 128,-1,14
 348 712 348 712 335 697 c 128,-1,15
 322 682 322 682 313 657 c 128,-1,16
 304 632 304 632 296 594 c 2,17,-1
 264 440 l 2,18,19
 257 408 257 408 247 386 c 128,-1,20
 237 364 237 364 221.5 349 c 128,-1,21
 206 334 206 334 185 326 c 128,-1,22
 164 318 164 318 135 315 c 1,23,-1
 134 311 l 1,24,25
 178 305 178 305 197 284.5 c 128,-1,26
 216 264 216 264 216 229 c 0,27,28
 216 224 216 224 215 216.5 c 128,-1,29
 214 209 214 209 210.5 189.5 c 128,-1,30
 207 170 207 170 199 133 c 128,-1,31
 191 96 191 96 177 30 c 0,32,33
 172 5 172 5 169.5 -10 c 128,-1,34
 167 -25 167 -25 167 -39 c 0,35,36
 167 -74 167 -74 182.5 -87 c 128,-1,37
 198 -100 198 -100 234 -100 c 1,38,-1
 228 -130 l 1,39,40
 124 -130 124 -130 79 -108 c 128,-1,41
 34 -86 34 -86 34 -34 c 0,42,43
 34 -17 34 -17 38 5 c 128,-1,44
 42 27 42 27 47 52 c 0,45,46
 60 113 60 113 67.5 148.5 c 128,-1,47
 75 184 75 184 78.5 203 c 128,-1,48
 82 222 82 222 83 230 c 128,-1,49
 84 238 84 238 84 244 c 0,50,51
 84 273 84 273 74 286 c 128,-1,52
 64 299 64 299 34 299 c 1,53,-1
 39 326 l 1,0,1
EndSplineSet
Validated: 1
EndChar

StartChar: bar
Encoding: 124 124 95
Width: 387
Flags: W
LayerCount: 2
Fore
SplineSet
263 763 m 1,0,-1
 263 -157 l 1,1,-1
 184 -157 l 1,2,-1
 184 763 l 1,3,-1
 263 763 l 1,0,-1
EndSplineSet
Validated: 1
EndChar

StartChar: braceright
Encoding: 125 125 96
Width: 320
Flags: W
LayerCount: 2
Fore
SplineSet
334 298 m 1,0,1
 314 298 314 298 300.5 292.5 c 128,-1,2
 287 287 287 287 276.5 273.5 c 128,-1,3
 266 260 266 260 258 237.5 c 128,-1,4
 250 215 250 215 243 181 c 2,5,-1
 215 52 l 2,6,7
 203 -5 203 -5 188.5 -40.5 c 128,-1,8
 174 -76 174 -76 147 -96 c 128,-1,9
 120 -116 120 -116 75.5 -123 c 128,-1,10
 31 -130 31 -130 -42 -130 c 1,11,-1
 -36 -100 l 1,12,13
 -11 -100 -11 -100 7 -94 c 128,-1,14
 25 -88 25 -88 38 -73 c 128,-1,15
 51 -58 51 -58 60 -33 c 128,-1,16
 69 -8 69 -8 77 30 c 2,17,-1
 109 184 l 2,18,19
 116 216 116 216 126 238 c 128,-1,20
 136 260 136 260 151.5 275 c 128,-1,21
 167 290 167 290 188 298 c 128,-1,22
 209 306 209 306 238 309 c 1,23,-1
 239 313 l 1,24,25
 195 319 195 319 176 339.5 c 128,-1,26
 157 360 157 360 157 395 c 0,27,28
 157 400 157 400 158 407.5 c 128,-1,29
 159 415 159 415 162.5 434.5 c 128,-1,30
 166 454 166 454 174 491 c 128,-1,31
 182 528 182 528 196 594 c 0,32,33
 201 619 201 619 203.5 634 c 128,-1,34
 206 649 206 649 206 663 c 0,35,36
 206 698 206 698 190.5 711 c 128,-1,37
 175 724 175 724 139 724 c 1,38,-1
 145 754 l 1,39,40
 249 754 249 754 294 732 c 128,-1,41
 339 710 339 710 339 658 c 0,42,43
 339 641 339 641 335 619 c 128,-1,44
 331 597 331 597 326 572 c 0,45,46
 313 511 313 511 305.5 475.5 c 128,-1,47
 298 440 298 440 294.5 421 c 128,-1,48
 291 402 291 402 290 394 c 128,-1,49
 289 386 289 386 289 380 c 0,50,51
 289 351 289 351 299 338 c 128,-1,52
 309 325 309 325 339 325 c 1,53,-1
 334 298 l 1,0,1
EndSplineSet
Validated: 1
EndChar

StartChar: asciitilde
Encoding: 126 126 97
Width: 495
Flags: W
LayerCount: 2
Fore
SplineSet
502 310 m 1,0,1
 489 293 489 293 475.5 276.5 c 128,-1,2
 462 260 462 260 445.5 247.5 c 128,-1,3
 429 235 429 235 409.5 227.5 c 128,-1,4
 390 220 390 220 365 220 c 256,5,6
 340 220 340 220 316 229.5 c 128,-1,7
 292 239 292 239 268.5 250.5 c 128,-1,8
 245 262 245 262 221.5 271.5 c 128,-1,9
 198 281 198 281 174 281 c 0,10,11
 155 281 155 281 141 275.5 c 128,-1,12
 127 270 127 270 116 260.5 c 128,-1,13
 105 251 105 251 95.5 238.5 c 128,-1,14
 86 226 86 226 77 211 c 1,15,-1
 27 258 l 1,16,17
 39 276 39 276 53.5 293 c 128,-1,18
 68 310 68 310 85 323.5 c 128,-1,19
 102 337 102 337 123.5 345 c 128,-1,20
 145 353 145 353 172 353 c 0,21,22
 197 353 197 353 221.5 343.5 c 128,-1,23
 246 334 246 334 269 322.5 c 128,-1,24
 292 311 292 311 315 301.5 c 128,-1,25
 338 292 338 292 361 292 c 0,26,27
 395 292 395 292 414 310 c 128,-1,28
 433 328 433 328 451 355 c 1,29,-1
 502 310 l 1,0,1
EndSplineSet
Validated: 1
EndChar

StartChar: cent
Encoding: 162 162 100
Width: 486
Flags: W
LayerCount: 2
Fore
SplineSet
226 137 m 1,0,1
 186 143 186 143 155.5 160.5 c 128,-1,2
 125 178 125 178 104.5 202.5 c 128,-1,3
 84 227 84 227 73.5 258 c 128,-1,4
 63 289 63 289 63 322 c 0,5,6
 63 372 63 372 86 421 c 128,-1,7
 109 470 109 470 148 508.5 c 128,-1,8
 187 547 187 547 238.5 572 c 128,-1,9
 290 597 290 597 347 599 c 1,10,-1
 382 734 l 1,11,-1
 411 734 l 1,12,-1
 376 599 l 1,13,14
 406 597 406 597 431.5 588 c 128,-1,15
 457 579 457 579 475.5 565 c 128,-1,16
 494 551 494 551 504 533 c 128,-1,17
 514 515 514 515 514 495 c 0,18,19
 514 469 514 469 496.5 447 c 128,-1,20
 479 425 479 425 439 425 c 0,21,22
 405 425 405 425 387.5 442 c 128,-1,23
 370 459 370 459 370 481 c 0,24,25
 370 498 370 498 378 514.5 c 128,-1,26
 386 531 386 531 386 545 c 0,27,28
 386 563 386 563 368 568 c 1,29,-1
 265 175 l 1,30,-1
 279 175 l 2,31,32
 328 175 328 175 379.5 200.5 c 128,-1,33
 431 226 431 226 478 294 c 1,34,-1
 503 275 l 1,35,36
 463 209 463 209 401.5 172 c 128,-1,37
 340 135 340 135 264 135 c 2,38,-1
 254 135 l 1,39,-1
 221 6 l 1,40,-1
 192 6 l 1,41,-1
 226 137 l 1,0,1
206 229 m 0,42,43
 206 192 206 192 238 181 c 1,44,-1
 339 569 l 1,45,46
 321 566 321 566 304 550.5 c 128,-1,47
 287 535 287 535 270.5 499.5 c 128,-1,48
 254 464 254 464 238.5 404 c 128,-1,49
 223 344 223 344 208 251 c 0,50,51
 207 246 207 246 206.5 240 c 128,-1,52
 206 234 206 234 206 229 c 0,42,43
EndSplineSet
Validated: 1
EndChar

StartChar: sterling
Encoding: 163 163 101
Width: 591
Flags: W
LayerCount: 2
Fore
SplineSet
77 404 m 1,0,-1
 156 404 l 1,1,2
 159 458 159 458 178.5 512 c 128,-1,3
 198 566 198 566 235.5 609 c 128,-1,4
 273 652 273 652 328 679 c 128,-1,5
 383 706 383 706 456 706 c 0,6,7
 525 706 525 706 563.5 681 c 128,-1,8
 602 656 602 656 602 608 c 0,9,10
 602 578 602 578 584.5 554 c 128,-1,11
 567 530 567 530 531 530 c 0,12,13
 500 530 500 530 487 547 c 128,-1,14
 474 564 474 564 474 583 c 0,15,16
 474 597 474 597 479.5 606.5 c 128,-1,17
 485 616 485 616 491.5 622.5 c 128,-1,18
 498 629 498 629 503.5 634.5 c 128,-1,19
 509 640 509 640 509 646 c 0,20,21
 509 655 509 655 495.5 660.5 c 128,-1,22
 482 666 482 666 459 666 c 0,23,24
 420 666 420 666 395 650.5 c 128,-1,25
 370 635 370 635 355 609 c 128,-1,26
 340 583 340 583 334.5 547 c 128,-1,27
 329 511 329 511 329 471 c 2,28,-1
 329 404 l 1,29,-1
 471 404 l 1,30,-1
 460 355 l 1,31,-1
 328 355 l 1,32,33
 326 320 326 320 319.5 288.5 c 128,-1,34
 313 257 313 257 302.5 228 c 128,-1,35
 292 199 292 199 277 170 c 128,-1,36
 262 141 262 141 243 111 c 1,37,38
 265 105 265 105 291 102 c 128,-1,39
 317 99 317 99 340 99 c 0,40,41
 403 99 403 99 443 123 c 128,-1,42
 483 147 483 147 500 204 c 1,43,-1
 539 204 l 1,44,45
 531 167 531 167 517 127.5 c 128,-1,46
 503 88 503 88 480 55 c 128,-1,47
 457 22 457 22 423 1 c 128,-1,48
 389 -20 389 -20 340 -20 c 0,49,50
 299 -20 299 -20 266.5 -3 c 128,-1,51
 234 14 234 14 207 54 c 1,52,53
 184 23 184 23 145.5 1.5 c 128,-1,54
 107 -20 107 -20 63 -20 c 0,55,56
 25 -20 25 -20 1 -1.5 c 128,-1,57
 -23 17 -23 17 -23 50 c 0,58,59
 -23 69 -23 69 -14.5 86 c 128,-1,60
 -6 103 -6 103 9.5 116 c 128,-1,61
 25 129 25 129 46.5 136.5 c 128,-1,62
 68 144 68 144 94 144 c 0,63,64
 110 144 110 144 129 141.5 c 128,-1,65
 148 139 148 139 163 136 c 0,66,67
 164 138 164 138 169.5 160.5 c 128,-1,68
 175 183 175 183 175 212 c 0,69,70
 175 244 175 244 168 280 c 128,-1,71
 161 316 161 316 157 355 c 1,72,-1
 66 355 l 1,73,-1
 77 404 l 1,0,-1
79 105 m 0,74,75
 56 105 56 105 38 90.5 c 128,-1,76
 20 76 20 76 20 55 c 0,77,78
 20 37 20 37 33 26 c 128,-1,79
 46 15 46 15 64 15 c 0,80,81
 78 15 78 15 90.5 21.5 c 128,-1,82
 103 28 103 28 112.5 37.5 c 128,-1,83
 122 47 122 47 129.5 59 c 128,-1,84
 137 71 137 71 142 83 c 1,85,86
 133 91 133 91 114.5 98 c 128,-1,87
 96 105 96 105 79 105 c 0,74,75
EndSplineSet
Validated: 1
EndChar

StartChar: currency
Encoding: 164 164 102
Width: 689
Flags: W
LayerCount: 2
Fore
SplineSet
140 172 m 1,0,-1
 193 234 l 1,1,2
 173 263 173 263 161.5 296.5 c 128,-1,3
 150 330 150 330 150 368 c 0,4,5
 150 443 150 443 192 502 c 1,6,-1
 140 564 l 1,7,-1
 192 611 l 1,8,-1
 242 554 l 1,9,10
 271 577 271 577 307 589.5 c 128,-1,11
 343 602 343 602 384 602 c 0,12,13
 424 602 424 602 460 589.5 c 128,-1,14
 496 577 496 577 526 554 c 1,15,-1
 577 611 l 1,16,-1
 629 564 l 1,17,-1
 576 502 l 1,18,19
 596 473 596 473 607.5 439 c 128,-1,20
 619 405 619 405 619 368 c 0,21,22
 619 330 619 330 607.5 296.5 c 128,-1,23
 596 263 596 263 576 234 c 1,24,-1
 629 172 l 1,25,-1
 577 125 l 1,26,-1
 526 182 l 1,27,28
 496 159 496 159 460 147 c 128,-1,29
 424 135 424 135 384 135 c 256,30,31
 344 135 344 135 308 147 c 128,-1,32
 272 159 272 159 243 182 c 1,33,-1
 192 125 l 1,34,-1
 140 172 l 1,0,-1
230 368 m 256,35,36
 230 336 230 336 242 308 c 128,-1,37
 254 280 254 280 275 259.5 c 128,-1,38
 296 239 296 239 324 227 c 128,-1,39
 352 215 352 215 384 215 c 256,40,41
 416 215 416 215 444.5 227 c 128,-1,42
 473 239 473 239 494 259.5 c 128,-1,43
 515 280 515 280 527 308 c 128,-1,44
 539 336 539 336 539 368 c 256,45,46
 539 400 539 400 527 428 c 128,-1,47
 515 456 515 456 494 477 c 128,-1,48
 473 498 473 498 444.5 510 c 128,-1,49
 416 522 416 522 384 522 c 256,50,51
 352 522 352 522 324 510 c 128,-1,52
 296 498 296 498 275 477 c 128,-1,53
 254 456 254 456 242 428 c 128,-1,54
 230 400 230 400 230 368 c 256,35,36
EndSplineSet
Validated: 1
EndChar

StartChar: yen
Encoding: 165 165 103
Width: 627
Flags: W
LayerCount: 2
Fore
SplineSet
520 683 m 1,0,-1
 745 683 l 1,1,-1
 745 653 l 1,2,-1
 667 653 l 1,3,-1
 448 328 l 1,4,-1
 595 328 l 1,5,-1
 583 279 l 1,6,-1
 415 279 l 1,7,-1
 408 267 l 1,8,-1
 391 202 l 1,9,-1
 569 202 l 1,10,-1
 557 153 l 1,11,-1
 378 153 l 1,12,-1
 347 31 l 1,13,-1
 464 31 l 1,14,-1
 464 0 l 1,15,-1
 85 0 l 1,16,-1
 85 31 l 1,17,-1
 199 31 l 1,18,-1
 229 153 l 1,19,-1
 65 153 l 1,20,-1
 77 202 l 1,21,-1
 241 202 l 1,22,-1
 260 279 l 1,23,-1
 91 279 l 1,24,-1
 103 328 l 1,25,-1
 244 328 l 1,26,-1
 123 653 l 1,27,-1
 40 653 l 1,28,-1
 40 683 l 1,29,-1
 394 683 l 1,30,-1
 394 653 l 1,31,-1
 279 653 l 1,32,-1
 408 334 l 1,33,-1
 412 334 l 1,34,-1
 632 653 l 1,35,-1
 520 653 l 1,36,-1
 520 683 l 1,0,-1
EndSplineSet
Validated: 1
EndChar

StartChar: brokenbar
Encoding: 166 166 104
Width: 387
Flags: W
LayerCount: 2
Fore
SplineSet
272 763 m 1,0,-1
 272 347 l 1,1,-1
 193 347 l 1,2,-1
 193 763 l 1,3,-1
 272 763 l 1,0,-1
272 249 m 1,4,-1
 272 -157 l 1,5,-1
 193 -157 l 1,6,-1
 193 249 l 1,7,-1
 272 249 l 1,4,-1
EndSplineSet
Validated: 1
EndChar

StartChar: section
Encoding: 167 167 105
Width: 519
Flags: W
LayerCount: 2
Fore
SplineSet
168 -126 m 0,0,1
 184 -126 184 -126 205.5 -122.5 c 128,-1,2
 227 -119 227 -119 246 -110.5 c 128,-1,3
 265 -102 265 -102 278 -87 c 128,-1,4
 291 -72 291 -72 291 -48 c 0,5,6
 291 -22 291 -22 274 1.5 c 128,-1,7
 257 25 257 25 232 48 c 128,-1,8
 207 71 207 71 177.5 95.5 c 128,-1,9
 148 120 148 120 123 149.5 c 128,-1,10
 98 179 98 179 81 214 c 128,-1,11
 64 249 64 249 64 293 c 0,12,13
 64 357 64 357 99.5 402.5 c 128,-1,14
 135 448 135 448 193 467 c 1,15,16
 180 490 180 490 172.5 514 c 128,-1,17
 165 538 165 538 165 566 c 0,18,19
 165 606 165 606 182 640.5 c 128,-1,20
 199 675 199 675 228.5 700.5 c 128,-1,21
 258 726 258 726 297.5 740 c 128,-1,22
 337 754 337 754 383 754 c 0,23,24
 420 754 420 754 446 745 c 128,-1,25
 472 736 472 736 488.5 721.5 c 128,-1,26
 505 707 505 707 513 688 c 128,-1,27
 521 669 521 669 521 650 c 0,28,29
 521 619 521 619 503 596.5 c 128,-1,30
 485 574 485 574 450 574 c 0,31,32
 424 574 424 574 410.5 586.5 c 128,-1,33
 397 599 397 599 397 619 c 0,34,35
 397 635 397 635 404 644 c 128,-1,36
 411 653 411 653 420 660 c 128,-1,37
 429 667 429 667 436 673.5 c 128,-1,38
 443 680 443 680 443 691 c 0,39,40
 443 708 443 708 426.5 713.5 c 128,-1,41
 410 719 410 719 387 719 c 0,42,43
 363 719 363 719 341 713.5 c 128,-1,44
 319 708 319 708 302.5 697.5 c 128,-1,45
 286 687 286 687 276.5 671 c 128,-1,46
 267 655 267 655 267 634 c 0,47,48
 267 605 267 605 284 581 c 128,-1,49
 301 557 301 557 326.5 534.5 c 128,-1,50
 352 512 352 512 382 489 c 128,-1,51
 412 466 412 466 437.5 439 c 128,-1,52
 463 412 463 412 480 379 c 128,-1,53
 497 346 497 346 497 303 c 0,54,55
 497 242 497 242 462 196.5 c 128,-1,56
 427 151 427 151 369 131 c 1,57,58
 381 110 381 110 388.5 86.5 c 128,-1,59
 396 63 396 63 396 36 c 0,60,61
 396 -6 396 -6 378.5 -42 c 128,-1,62
 361 -78 361 -78 331 -104.5 c 128,-1,63
 301 -131 301 -131 260.5 -146 c 128,-1,64
 220 -161 220 -161 173 -161 c 0,65,66
 136 -161 136 -161 110 -152 c 128,-1,67
 84 -143 84 -143 67.5 -128.5 c 128,-1,68
 51 -114 51 -114 43 -95 c 128,-1,69
 35 -76 35 -76 35 -56 c 0,70,71
 35 -23 35 -23 54.5 0.5 c 128,-1,72
 74 24 74 24 108 24 c 0,73,74
 134 24 134 24 146.5 10.5 c 128,-1,75
 159 -3 159 -3 159 -24 c 0,76,77
 159 -41 159 -41 152 -51 c 128,-1,78
 145 -61 145 -61 136 -67.5 c 128,-1,79
 127 -74 127 -74 120 -80.5 c 128,-1,80
 113 -87 113 -87 113 -98 c 0,81,82
 113 -115 113 -115 130 -120.5 c 128,-1,83
 147 -126 147 -126 168 -126 c 0,0,1
386 222 m 0,84,85
 386 249 386 249 368 274 c 128,-1,86
 350 299 350 299 324 324.5 c 128,-1,87
 298 350 298 350 267.5 377.5 c 128,-1,88
 237 405 237 405 213 437 c 1,89,90
 199 429 199 429 187 416 c 128,-1,91
 175 403 175 403 175 379 c 0,92,93
 175 349 175 349 193.5 323 c 128,-1,94
 212 297 212 297 239 271 c 128,-1,95
 266 245 266 245 296.5 218 c 128,-1,96
 327 191 327 191 351 159 c 1,97,98
 366 170 366 170 376 186 c 128,-1,99
 386 202 386 202 386 222 c 0,84,85
EndSplineSet
Validated: 1
EndChar

StartChar: dieresis
Encoding: 168 168 106
Width: 340
Flags: W
LayerCount: 2
Fore
SplineSet
118 667 m 256,0,1
 118 694 118 694 137.5 713.5 c 128,-1,2
 157 733 157 733 184 733 c 256,3,4
 211 733 211 733 230.5 713.5 c 128,-1,5
 250 694 250 694 250 667 c 256,6,7
 250 640 250 640 230.5 620.5 c 128,-1,8
 211 601 211 601 184 601 c 256,9,10
 157 601 157 601 137.5 620.5 c 128,-1,11
 118 640 118 640 118 667 c 256,0,1
308 667 m 256,12,13
 308 694 308 694 327.5 713.5 c 128,-1,14
 347 733 347 733 374 733 c 256,15,16
 401 733 401 733 420.5 713.5 c 128,-1,17
 440 694 440 694 440 667 c 256,18,19
 440 640 440 640 420.5 620.5 c 128,-1,20
 401 601 401 601 374 601 c 256,21,22
 347 601 347 601 327.5 620.5 c 128,-1,23
 308 640 308 640 308 667 c 256,12,13
EndSplineSet
Validated: 1
EndChar

StartChar: copyright
Encoding: 169 169 107
Width: 853
Flags: W
LayerCount: 2
Fore
SplineSet
392 -10 m 0,0,1
 320 -10 320 -10 263.5 12 c 128,-1,2
 207 34 207 34 167 74 c 128,-1,3
 127 114 127 114 106 170.5 c 128,-1,4
 85 227 85 227 85 295 c 0,5,6
 85 390 85 390 123.5 473.5 c 128,-1,7
 162 557 162 557 226 619.5 c 128,-1,8
 290 682 290 682 373 718 c 128,-1,9
 456 754 456 754 545 754 c 0,10,11
 615 754 615 754 672.5 731 c 128,-1,12
 730 708 730 708 770.5 667 c 128,-1,13
 811 626 811 626 833 568.5 c 128,-1,14
 855 511 855 511 855 442 c 0,15,16
 855 352 855 352 818 270 c 128,-1,17
 781 188 781 188 717.5 125.5 c 128,-1,18
 654 63 654 63 570 26.5 c 128,-1,19
 486 -10 486 -10 392 -10 c 0,0,1
543 705 m 0,20,21
 491 705 491 705 440.5 689.5 c 128,-1,22
 390 674 390 674 345 646.5 c 128,-1,23
 300 619 300 619 261 581 c 128,-1,24
 222 543 222 543 194 498 c 128,-1,25
 166 453 166 453 150 402.5 c 128,-1,26
 134 352 134 352 134 300 c 0,27,28
 134 244 134 244 152.5 196.5 c 128,-1,29
 171 149 171 149 205 114 c 128,-1,30
 239 79 239 79 288 59 c 128,-1,31
 337 39 337 39 397 39 c 0,32,33
 477 39 477 39 550.5 72.5 c 128,-1,34
 624 106 624 106 680.5 162 c 128,-1,35
 737 218 737 218 771 290.5 c 128,-1,36
 805 363 805 363 805 441 c 0,37,38
 805 499 805 499 785.5 547.5 c 128,-1,39
 766 596 766 596 731.5 631 c 128,-1,40
 697 666 697 666 649 685.5 c 128,-1,41
 601 705 601 705 543 705 c 0,20,21
427 152 m 0,42,43
 384 152 384 152 349.5 166.5 c 128,-1,44
 315 181 315 181 291 206 c 128,-1,45
 267 231 267 231 254 265 c 128,-1,46
 241 299 241 299 241 337 c 0,47,48
 241 389 241 389 264.5 438 c 128,-1,49
 288 487 288 487 327 525 c 128,-1,50
 366 563 366 563 418 586 c 128,-1,51
 470 609 470 609 527 609 c 0,52,53
 557 609 557 609 583 601.5 c 128,-1,54
 609 594 609 594 632 575 c 1,55,-1
 661 604 l 1,56,-1
 675 604 l 1,57,-1
 647 471 l 1,58,-1
 628 471 l 1,59,60
 628 492 628 492 623.5 511 c 128,-1,61
 619 530 619 530 609 544.5 c 128,-1,62
 599 559 599 559 582.5 568 c 128,-1,63
 566 577 566 577 542 577 c 0,64,65
 510 577 510 577 484.5 562 c 128,-1,66
 459 547 459 547 440 522 c 128,-1,67
 421 497 421 497 407.5 465.5 c 128,-1,68
 394 434 394 434 386 401 c 128,-1,69
 378 368 378 368 374 336.5 c 128,-1,70
 370 305 370 305 370 281 c 0,71,72
 370 231 370 231 387.5 208 c 128,-1,73
 405 185 405 185 452 185 c 0,74,75
 508 185 508 185 541 213.5 c 128,-1,76
 574 242 574 242 593 285 c 1,77,-1
 613 285 l 1,78,-1
 586 160 l 1,79,-1
 571 160 l 1,80,-1
 557 187 l 1,81,82
 527 170 527 170 493.5 161 c 128,-1,83
 460 152 460 152 427 152 c 0,42,43
EndSplineSet
Validated: 1
EndChar

StartChar: ordfeminine
Encoding: 170 170 108
Width: 402
Flags: W
LayerCount: 2
Fore
SplineSet
363 715 m 1,0,-1
 372 753 l 1,1,-1
 460 753 l 1,2,-1
 412 562 l 2,3,4
 407 545 407 545 405 534 c 128,-1,5
 403 523 403 523 403 514 c 0,6,7
 403 496 403 496 413 496 c 0,8,9
 436 496 436 496 465 565 c 1,10,-1
 488 559 l 1,11,12
 471 511 471 511 445.5 484.5 c 128,-1,13
 420 458 420 458 384 458 c 0,14,15
 364 458 364 458 344 469 c 128,-1,16
 324 480 324 480 322 512 c 1,17,-1
 318 512 l 1,18,19
 304 486 304 486 281.5 472 c 128,-1,20
 259 458 259 458 229 458 c 0,21,22
 186 458 186 458 154.5 488 c 128,-1,23
 123 518 123 518 123 573 c 0,24,25
 123 610 123 610 138 644.5 c 128,-1,26
 153 679 153 679 178 705.5 c 128,-1,27
 203 732 203 732 233.5 747.5 c 128,-1,28
 264 763 264 763 296 763 c 0,29,30
 325 763 325 763 338 749.5 c 128,-1,31
 351 736 351 736 359 715 c 1,32,-1
 363 715 l 1,0,-1
252 498 m 0,33,34
 269 498 269 498 291 516 c 128,-1,35
 313 534 313 534 331 585 c 1,36,-1
 350 662 l 1,37,38
 350 688 350 688 340.5 706 c 128,-1,39
 331 724 331 724 310 724 c 256,40,41
 289 724 289 724 272.5 705 c 128,-1,42
 256 686 256 686 244 659 c 128,-1,43
 232 632 232 632 226 602 c 128,-1,44
 220 572 220 572 220 550 c 0,45,46
 220 498 220 498 252 498 c 0,33,34
EndSplineSet
Validated: 1
EndChar

StartChar: guillemotleft
Encoding: 171 171 109
Width: 528
Flags: W
LayerCount: 2
Fore
SplineSet
239 28 m 1,0,-1
 57 209 l 1,1,-1
 62 231 l 1,2,-1
 320 412 l 1,3,-1
 333 401 l 1,4,-1
 204 220 l 1,5,-1
 257 43 l 1,6,-1
 239 28 l 1,0,-1
422 28 m 1,7,-1
 240 209 l 1,8,-1
 245 231 l 1,9,-1
 503 412 l 1,10,-1
 516 401 l 1,11,-1
 387 220 l 1,12,-1
 440 43 l 1,13,-1
 422 28 l 1,7,-1
EndSplineSet
Validated: 1
EndChar

StartChar: logicalnot
Encoding: 172 172 110
Width: 558
Flags: W
LayerCount: 2
Fore
SplineSet
30 326 m 1,0,-1
 528 326 l 1,1,-1
 528 55 l 1,2,-1
 435 55 l 1,3,-1
 435 277 l 1,4,-1
 30 277 l 1,5,-1
 30 326 l 1,0,-1
EndSplineSet
Validated: 1
EndChar

StartChar: uni00AD
Encoding: 173 173 111
Width: 415
Flags: W
LayerCount: 2
Fore
SplineSet
60 246 m 1,0,-1
 355 246 l 1,1,-1
 355 182 l 1,2,-1
 60 182 l 1,3,-1
 60 246 l 1,0,-1
EndSplineSet
Validated: 1
EndChar

StartChar: registered
Encoding: 174 174 112
Width: 853
Flags: W
LayerCount: 2
Fore
SplineSet
381 -10 m 0,0,1
 309 -10 309 -10 252.5 12 c 128,-1,2
 196 34 196 34 156 74 c 128,-1,3
 116 114 116 114 95 170.5 c 128,-1,4
 74 227 74 227 74 295 c 0,5,6
 74 390 74 390 112.5 473.5 c 128,-1,7
 151 557 151 557 215 619.5 c 128,-1,8
 279 682 279 682 362 718 c 128,-1,9
 445 754 445 754 534 754 c 0,10,11
 604 754 604 754 661.5 731 c 128,-1,12
 719 708 719 708 759.5 667 c 128,-1,13
 800 626 800 626 822 568.5 c 128,-1,14
 844 511 844 511 844 442 c 0,15,16
 844 352 844 352 807 270 c 128,-1,17
 770 188 770 188 706.5 125.5 c 128,-1,18
 643 63 643 63 559 26.5 c 128,-1,19
 475 -10 475 -10 381 -10 c 0,0,1
532 705 m 0,20,21
 480 705 480 705 429.5 689.5 c 128,-1,22
 379 674 379 674 334 646.5 c 128,-1,23
 289 619 289 619 250 581 c 128,-1,24
 211 543 211 543 183 498 c 128,-1,25
 155 453 155 453 139 402.5 c 128,-1,26
 123 352 123 352 123 300 c 0,27,28
 123 244 123 244 141.5 196.5 c 128,-1,29
 160 149 160 149 194 114 c 128,-1,30
 228 79 228 79 277 59 c 128,-1,31
 326 39 326 39 386 39 c 0,32,33
 466 39 466 39 539.5 72.5 c 128,-1,34
 613 106 613 106 669.5 162 c 128,-1,35
 726 218 726 218 760 290.5 c 128,-1,36
 794 363 794 363 794 441 c 0,37,38
 794 499 794 499 774.5 547.5 c 128,-1,39
 755 596 755 596 720.5 631 c 128,-1,40
 686 666 686 666 638 685.5 c 128,-1,41
 590 705 590 705 532 705 c 0,20,21
496 602 m 2,42,43
 577 602 577 602 619 575 c 128,-1,44
 661 548 661 548 661 503 c 0,45,46
 661 454 661 454 616 421.5 c 128,-1,47
 571 389 571 389 494 384 c 1,48,-1
 494 380 l 1,49,50
 530 367 530 367 550.5 355.5 c 128,-1,51
 571 344 571 344 581 329.5 c 128,-1,52
 591 315 591 315 593.5 295.5 c 128,-1,53
 596 276 596 276 598 247 c 0,54,55
 599 225 599 225 603 207.5 c 128,-1,56
 607 190 607 190 627 190 c 0,57,58
 642 190 642 190 652 200 c 1,59,-1
 661 181 l 1,60,61
 653 172 653 172 642 166.5 c 128,-1,62
 631 161 631 161 600 161 c 0,63,64
 555 161 555 161 530 172.5 c 128,-1,65
 505 184 505 184 492.5 203 c 128,-1,66
 480 222 480 222 476.5 247.5 c 128,-1,67
 473 273 473 273 471 301 c 256,68,69
 469 329 469 329 462 353.5 c 128,-1,70
 455 378 455 378 433 383 c 1,71,-1
 414 383 l 1,72,-1
 372 193 l 1,73,-1
 439 193 l 1,74,-1
 435 161 l 1,75,-1
 218 161 l 1,76,-1
 222 193 l 1,77,-1
 261 193 l 1,78,-1
 343 570 l 1,79,-1
 305 570 l 1,80,-1
 308 602 l 1,81,-1
 496 602 l 2,42,43
456 570 m 1,82,-1
 421 412 l 1,83,-1
 468 412 l 2,84,85
 506 412 506 412 526.5 438 c 128,-1,86
 547 464 547 464 547 510 c 0,87,88
 547 538 547 538 536 554 c 128,-1,89
 525 570 525 570 489 570 c 2,90,-1
 456 570 l 1,82,-1
EndSplineSet
Validated: 1
EndChar

StartChar: macron
Encoding: 175 175 113
Width: 375
Flags: W
LayerCount: 2
Fore
SplineSet
134 713 m 1,0,-1
 474 713 l 1,1,-1
 455 627 l 1,2,-1
 115 627 l 1,3,-1
 134 713 l 1,0,-1
EndSplineSet
Validated: 1
EndChar

StartChar: degree
Encoding: 176 176 114
Width: 383
Flags: W
LayerCount: 2
Fore
SplineSet
287 763 m 0,0,1
 321 763 321 763 348 750.5 c 128,-1,2
 375 738 375 738 394.5 717 c 128,-1,3
 414 696 414 696 424.5 668 c 128,-1,4
 435 640 435 640 435 608 c 0,5,6
 435 573 435 573 423 545.5 c 128,-1,7
 411 518 411 518 391 498.5 c 128,-1,8
 371 479 371 479 343.5 469 c 128,-1,9
 316 459 316 459 286 459 c 256,10,11
 256 459 256 459 228.5 469 c 128,-1,12
 201 479 201 479 181 498.5 c 128,-1,13
 161 518 161 518 149 546 c 128,-1,14
 137 574 137 574 137 610 c 256,15,16
 137 646 137 646 149 674 c 128,-1,17
 161 702 161 702 181.5 722 c 128,-1,18
 202 742 202 742 229 752.5 c 128,-1,19
 256 763 256 763 287 763 c 0,0,1
288 708 m 256,20,21
 246 708 246 708 223 681.5 c 128,-1,22
 200 655 200 655 200 612 c 256,23,24
 200 569 200 569 223.5 541 c 128,-1,25
 247 513 247 513 288 513 c 0,26,27
 328 513 328 513 350.5 540 c 128,-1,28
 373 567 373 567 373 611 c 0,29,30
 373 652 373 652 351.5 680 c 128,-1,31
 330 708 330 708 288 708 c 256,20,21
EndSplineSet
Validated: 1
EndChar

StartChar: plusminus
Encoding: 177 177 115
Width: 598
Flags: W
LayerCount: 2
Fore
SplineSet
69 460 m 1,0,-1
 291 460 l 1,1,-1
 291 702 l 1,2,-1
 345 702 l 1,3,-1
 345 460 l 1,4,-1
 567 460 l 1,5,-1
 567 406 l 1,6,-1
 345 406 l 1,7,-1
 345 164 l 1,8,-1
 291 164 l 1,9,-1
 291 406 l 1,10,-1
 69 406 l 1,11,-1
 69 460 l 1,0,-1
69 92 m 1,12,-1
 567 92 l 1,13,-1
 567 38 l 1,14,-1
 69 38 l 1,15,-1
 69 92 l 1,12,-1
EndSplineSet
Validated: 1
EndChar

StartChar: twosuperior
Encoding: 178 178 116
Width: 370
Flags: W
LayerCount: 2
Fore
SplineSet
124 516 m 1,0,-1
 229 589 l 2,1,2
 262 612 262 612 282.5 634 c 128,-1,3
 303 656 303 656 314 676.5 c 128,-1,4
 325 697 325 697 328.5 716 c 128,-1,5
 332 735 332 735 332 752 c 0,6,7
 332 793 332 793 317 809.5 c 128,-1,8
 302 826 302 826 277 826 c 0,9,10
 262 826 262 826 249 820.5 c 128,-1,11
 236 815 236 815 227 808 c 128,-1,12
 218 801 218 801 213 793.5 c 128,-1,13
 208 786 208 786 208 782 c 0,14,15
 208 775 208 775 216.5 772 c 128,-1,16
 225 769 225 769 235.5 765 c 128,-1,17
 246 761 246 761 255 752.5 c 128,-1,18
 264 744 264 744 264 727 c 0,19,20
 264 707 264 707 251 695.5 c 128,-1,21
 238 684 238 684 221 684 c 0,22,23
 215 684 215 684 206 686 c 128,-1,24
 197 688 197 688 188.5 694 c 128,-1,25
 180 700 180 700 174 710.5 c 128,-1,26
 168 721 168 721 168 738 c 0,27,28
 168 756 168 756 175.5 775 c 128,-1,29
 183 794 183 794 198.5 810 c 128,-1,30
 214 826 214 826 238.5 836.5 c 128,-1,31
 263 847 263 847 298 847 c 0,32,33
 326 847 326 847 350 840 c 128,-1,34
 374 833 374 833 392 819.5 c 128,-1,35
 410 806 410 806 420.5 787 c 128,-1,36
 431 768 431 768 431 745 c 0,37,38
 431 719 431 719 412 686 c 128,-1,39
 393 653 393 653 338 622 c 2,40,-1
 198 542 l 1,41,-1
 198 538 l 1,42,-1
 353 538 l 2,43,44
 359 538 359 538 363.5 539.5 c 128,-1,45
 368 541 368 541 371.5 545.5 c 128,-1,46
 375 550 375 550 378 559 c 128,-1,47
 381 568 381 568 384 584 c 1,48,-1
 402 584 l 1,49,-1
 370 458 l 1,50,-1
 111 458 l 1,51,-1
 124 516 l 1,0,-1
EndSplineSet
Validated: 1
EndChar

StartChar: threesuperior
Encoding: 179 179 117
Width: 357
Flags: W
LayerCount: 2
Fore
SplineSet
238 677 m 0,0,1
 258 677 258 677 273.5 688 c 128,-1,2
 289 699 289 699 299 715.5 c 128,-1,3
 309 732 309 732 314 751.5 c 128,-1,4
 319 771 319 771 319 788 c 0,5,6
 319 816 319 816 307.5 824 c 128,-1,7
 296 832 296 832 276 832 c 256,8,9
 256 832 256 832 245.5 826 c 128,-1,10
 235 820 235 820 235 811 c 0,11,12
 235 805 235 805 238.5 801.5 c 128,-1,13
 242 798 242 798 245.5 794.5 c 128,-1,14
 249 791 249 791 252.5 786.5 c 128,-1,15
 256 782 256 782 256 774 c 0,16,17
 256 760 256 760 246 750 c 128,-1,18
 236 740 236 740 220 740 c 0,19,20
 207 740 207 740 196.5 748.5 c 128,-1,21
 186 757 186 757 186 776 c 0,22,23
 186 808 186 808 217 829 c 128,-1,24
 248 850 248 850 295 850 c 0,25,26
 347 850 347 850 373.5 826 c 128,-1,27
 400 802 400 802 400 769 c 256,28,29
 400 736 400 736 372 710 c 128,-1,30
 344 684 344 684 289 669 c 1,31,-1
 289 665 l 1,32,33
 308 665 308 665 326 658 c 128,-1,34
 344 651 344 651 358 638.5 c 128,-1,35
 372 626 372 626 380.5 608.5 c 128,-1,36
 389 591 389 591 389 570 c 0,37,38
 389 544 389 544 376.5 522.5 c 128,-1,39
 364 501 364 501 341.5 485 c 128,-1,40
 319 469 319 469 288.5 460 c 128,-1,41
 258 451 258 451 222 451 c 0,42,43
 164 451 164 451 139.5 472 c 128,-1,44
 115 493 115 493 115 521 c 0,45,46
 115 538 115 538 123.5 552.5 c 128,-1,47
 132 567 132 567 151 567 c 0,48,49
 166 567 166 567 176.5 558 c 128,-1,50
 187 549 187 549 187 534 c 0,51,52
 187 523 187 523 181.5 517.5 c 128,-1,53
 176 512 176 512 170 508 c 128,-1,54
 164 504 164 504 158.5 501 c 128,-1,55
 153 498 153 498 153 493 c 0,56,57
 153 487 153 487 159 482.5 c 128,-1,58
 165 478 165 478 174 475 c 128,-1,59
 183 472 183 472 193.5 470 c 128,-1,60
 204 468 204 468 213 468 c 0,61,62
 227 468 227 468 241 472 c 128,-1,63
 255 476 255 476 266.5 487.5 c 128,-1,64
 278 499 278 499 285 520 c 128,-1,65
 292 541 292 541 292 576 c 0,66,67
 292 617 292 617 280.5 635.5 c 128,-1,68
 269 654 269 654 240 654 c 0,69,70
 232 654 232 654 227.5 653 c 128,-1,71
 223 652 223 652 220.5 651.5 c 128,-1,72
 218 651 218 651 216 650 c 128,-1,73
 214 649 214 649 210 649 c 0,74,75
 200 649 200 649 196 653.5 c 128,-1,76
 192 658 192 658 192 664 c 0,77,78
 192 672 192 672 196.5 676 c 128,-1,79
 201 680 201 680 207 680 c 0,80,81
 212 680 212 680 220.5 678.5 c 128,-1,82
 229 677 229 677 238 677 c 0,0,1
EndSplineSet
Validated: 1
EndChar

StartChar: acute
Encoding: 180 180 118
Width: 300
Flags: W
LayerCount: 2
Fore
SplineSet
102 554 m 1,0,-1
 256 718 l 2,1,2
 282 745 282 745 299.5 752.5 c 128,-1,3
 317 760 317 760 331 760 c 0,4,5
 360 760 360 760 375 743 c 128,-1,6
 390 726 390 726 390 702 c 0,7,8
 390 682 390 682 379 669.5 c 128,-1,9
 368 657 368 657 339 643 c 2,10,-1
 164 554 l 1,11,-1
 102 554 l 1,0,-1
EndSplineSet
Validated: 1
EndChar

StartChar: mu
Encoding: 181 181 119
Width: 598
Flags: W
LayerCount: 2
Fore
SplineSet
41 450 m 1,0,-1
 280 450 l 1,1,-1
 189 95 l 2,2,3
 187 88 187 88 185.5 76.5 c 128,-1,4
 184 65 184 65 184 57 c 0,5,6
 184 35 184 35 203 35 c 0,7,8
 215 35 215 35 236 46 c 128,-1,9
 257 57 257 57 280 77.5 c 128,-1,10
 303 98 303 98 324.5 127 c 128,-1,11
 346 156 346 156 361 192 c 1,12,-1
 425 450 l 1,13,-1
 559 450 l 1,14,-1
 472 87 l 2,15,16
 469 74 469 74 468 65.5 c 128,-1,17
 467 57 467 57 467 54 c 0,18,19
 467 41 467 41 479 41 c 0,20,21
 494 41 494 41 521.5 66.5 c 128,-1,22
 549 92 549 92 577 161 c 1,23,-1
 602 152 l 1,24,25
 592 121 592 121 575.5 91.5 c 128,-1,26
 559 62 559 62 536.5 39.5 c 128,-1,27
 514 17 514 17 485 3 c 128,-1,28
 456 -11 456 -11 422 -11 c 0,29,30
 383 -11 383 -11 359 8.5 c 128,-1,31
 335 28 335 28 335 70 c 0,32,33
 335 76 335 76 335.5 82 c 128,-1,34
 336 88 336 88 338 98 c 1,35,-1
 332 98 l 1,36,37
 317 77 317 77 298 57.5 c 128,-1,38
 279 38 279 38 256.5 23 c 128,-1,39
 234 8 234 8 208 -1.5 c 128,-1,40
 182 -11 182 -11 152 -11 c 0,41,42
 109 -11 109 -11 81 8 c 1,43,-1
 77 8 l 1,44,45
 76 -11 76 -11 76 -27 c 128,-1,46
 76 -43 76 -43 76 -57 c 0,47,48
 76 -95 76 -95 78.5 -123.5 c 128,-1,49
 81 -152 81 -152 81 -174 c 0,50,51
 81 -228 81 -228 59 -252.5 c 128,-1,52
 37 -277 37 -277 5 -277 c 0,53,54
 -24 -277 -24 -277 -36.5 -260.5 c 128,-1,55
 -49 -244 -49 -244 -49 -220 c 0,56,57
 -49 -203 -49 -203 -45 -187.5 c 128,-1,58
 -41 -172 -41 -172 -30 -149 c 0,59,60
 -23 -133 -23 -133 -13.5 -110.5 c 128,-1,61
 -4 -88 -4 -88 6.5 -56.5 c 128,-1,62
 17 -25 17 -25 29.5 16.5 c 128,-1,63
 42 58 42 58 56 113 c 2,64,-1
 135 420 l 1,65,-1
 41 420 l 1,66,-1
 41 450 l 1,0,-1
EndSplineSet
Validated: 1
EndChar

StartChar: paragraph
Encoding: 182 182 120
Width: 628
Flags: W
LayerCount: 2
Fore
SplineSet
735 754 m 1,0,-1
 720 680 l 1,1,-1
 625 680 l 1,2,-1
 447 -157 l 1,3,-1
 365 -157 l 1,4,-1
 543 680 l 1,5,-1
 446 680 l 1,6,-1
 268 -157 l 1,7,-1
 186 -157 l 1,8,-1
 285 309 l 1,9,10
 189 316 189 316 142.5 366.5 c 128,-1,11
 96 417 96 417 96 498 c 0,12,13
 96 556 96 556 119.5 603.5 c 128,-1,14
 143 651 143 651 182 684.5 c 128,-1,15
 221 718 221 718 272 736 c 128,-1,16
 323 754 323 754 379 754 c 2,17,-1
 735 754 l 1,0,-1
EndSplineSet
Validated: 1
EndChar

StartChar: periodcentered
Encoding: 183 183 121
Width: 214
Flags: W
LayerCount: 2
Fore
SplineSet
26 254 m 256,0,1
 26 290 26 290 51.5 315.5 c 128,-1,2
 77 341 77 341 113 341 c 256,3,4
 149 341 149 341 174.5 315.5 c 128,-1,5
 200 290 200 290 200 254 c 256,6,7
 200 218 200 218 174.5 192.5 c 128,-1,8
 149 167 149 167 113 167 c 256,9,10
 77 167 77 167 51.5 192.5 c 128,-1,11
 26 218 26 218 26 254 c 256,0,1
EndSplineSet
Validated: 1
EndChar

StartChar: cedilla
Encoding: 184 184 122
Width: 265
Flags: W
LayerCount: 2
Fore
SplineSet
102 10 m 1,0,-1
 59 -66 l 1,1,-1
 78 -66 l 2,2,3
 118 -66 118 -66 139 -83.5 c 128,-1,4
 160 -101 160 -101 160 -131 c 0,5,6
 160 -158 160 -158 144.5 -177.5 c 128,-1,7
 129 -197 129 -197 104.5 -209.5 c 128,-1,8
 80 -222 80 -222 50 -228.5 c 128,-1,9
 20 -235 20 -235 -8 -235 c 0,10,11
 -40 -235 -40 -235 -58.5 -229 c 128,-1,12
 -77 -223 -77 -223 -85 -218 c 1,13,-1
 -68 -179 l 1,14,15
 -63 -184 -63 -184 -46.5 -187 c 128,-1,16
 -30 -190 -30 -190 -13 -190 c 0,17,18
 20 -190 20 -190 39.5 -177 c 128,-1,19
 59 -164 59 -164 59 -140 c 0,20,21
 59 -123 59 -123 45 -112 c 128,-1,22
 31 -101 31 -101 -11 -100 c 1,23,-1
 55 10 l 1,24,-1
 102 10 l 1,0,-1
EndSplineSet
Validated: 1
EndChar

StartChar: onesuperior
Encoding: 185 185 123
Width: 298
Flags: W
LayerCount: 2
Fore
SplineSet
162 848 m 1,0,-1
 333 848 l 1,1,-1
 253 480 l 1,2,-1
 327 480 l 1,3,-1
 327 459 l 1,4,-1
 96 459 l 1,5,-1
 96 480 l 1,6,-1
 167 480 l 1,7,-1
 238 827 l 1,8,-1
 162 827 l 1,9,-1
 162 848 l 1,0,-1
EndSplineSet
Validated: 1
EndChar

StartChar: ordmasculine
Encoding: 186 186 124
Width: 374
Flags: W
LayerCount: 2
Fore
SplineSet
257 484 m 0,0,1
 281 484 281 484 299.5 501.5 c 128,-1,2
 318 519 318 519 330 546 c 128,-1,3
 342 573 342 573 348 606.5 c 128,-1,4
 354 640 354 640 354 672 c 0,5,6
 354 698 354 698 345 717.5 c 128,-1,7
 336 737 336 737 315 737 c 0,8,9
 290 737 290 737 271.5 718.5 c 128,-1,10
 253 700 253 700 240.5 672.5 c 128,-1,11
 228 645 228 645 222 612 c 128,-1,12
 216 579 216 579 216 549 c 0,13,14
 216 517 216 517 225 500.5 c 128,-1,15
 234 484 234 484 257 484 c 0,0,1
251 457 m 0,16,17
 221 457 221 457 196 466 c 128,-1,18
 171 475 171 475 154 491 c 128,-1,19
 137 507 137 507 127.5 529 c 128,-1,20
 118 551 118 551 118 576 c 0,21,22
 118 610 118 610 134.5 643.5 c 128,-1,23
 151 677 151 677 178.5 703.5 c 128,-1,24
 206 730 206 730 242.5 746.5 c 128,-1,25
 279 763 279 763 319 763 c 0,26,27
 380 763 380 763 416.5 729.5 c 128,-1,28
 453 696 453 696 453 645 c 0,29,30
 453 611 453 611 436.5 577.5 c 128,-1,31
 420 544 420 544 392 517 c 128,-1,32
 364 490 364 490 327.5 473.5 c 128,-1,33
 291 457 291 457 251 457 c 0,16,17
EndSplineSet
Validated: 1
EndChar

StartChar: guillemotright
Encoding: 187 187 125
Width: 528
Flags: W
LayerCount: 2
Fore
SplineSet
205 43 m 1,0,-1
 334 220 l 1,1,-1
 281 401 l 1,2,-1
 298 412 l 1,3,-1
 480 231 l 1,4,-1
 475 209 l 1,5,-1
 217 28 l 1,6,-1
 205 43 l 1,0,-1
22 43 m 1,7,-1
 151 220 l 1,8,-1
 98 401 l 1,9,-1
 115 412 l 1,10,-1
 297 231 l 1,11,-1
 292 209 l 1,12,-1
 34 28 l 1,13,-1
 22 43 l 1,7,-1
EndSplineSet
Validated: 1
EndChar

StartChar: onequarter
Encoding: 188 188 126
Width: 933
Flags: W
LayerCount: 2
Fore
SplineSet
522 123 m 1,0,-1
 766 389 l 1,1,-1
 809 389 l 1,2,-1
 752 123 l 1,3,-1
 802 123 l 1,4,-1
 811 159 l 1,5,-1
 828 159 l 1,6,-1
 803 60 l 1,7,-1
 786 60 l 1,8,-1
 797 104 l 1,9,-1
 748 104 l 1,10,-1
 729 17 l 1,11,-1
 772 17 l 1,12,-1
 772 0 l 1,13,-1
 604 0 l 1,14,-1
 604 17 l 1,15,-1
 642 17 l 1,16,-1
 661 104 l 1,17,-1
 522 104 l 1,18,-1
 522 123 l 1,0,-1
546 123 m 1,19,-1
 665 123 l 1,20,-1
 700 291 l 1,21,-1
 695 291 l 1,22,-1
 546 123 l 1,19,-1
213 748 m 1,23,-1
 384 748 l 1,24,-1
 304 380 l 1,25,-1
 378 380 l 1,26,-1
 378 359 l 1,27,-1
 147 359 l 1,28,-1
 147 380 l 1,29,-1
 218 380 l 1,30,-1
 289 727 l 1,31,-1
 213 727 l 1,32,-1
 213 748 l 1,23,-1
834 753 m 1,33,-1
 244 0 l 1,34,-1
 185 0 l 1,35,-1
 775 753 l 1,36,-1
 834 753 l 1,33,-1
EndSplineSet
Validated: 1
Ligature2: "'frac' Diagonal Fractions lookup 2 subtable" one fraction four
Ligature2: "'frac' Diagonal Fractions lookup 2 subtable" one slash four
EndChar

StartChar: onehalf
Encoding: 189 189 127
Width: 933
Flags: W
LayerCount: 2
Fore
SplineSet
809 753 m 1,0,-1
 219 0 l 1,1,-1
 160 0 l 1,2,-1
 750 753 l 1,3,-1
 809 753 l 1,0,-1
213 748 m 1,4,-1
 384 748 l 1,5,-1
 304 380 l 1,6,-1
 378 380 l 1,7,-1
 378 359 l 1,8,-1
 147 359 l 1,9,-1
 147 380 l 1,10,-1
 218 380 l 1,11,-1
 289 727 l 1,12,-1
 213 727 l 1,13,-1
 213 748 l 1,4,-1
528 58 m 1,14,-1
 633 131 l 2,15,16
 666 154 666 154 686.5 176 c 128,-1,17
 707 198 707 198 718 218.5 c 128,-1,18
 729 239 729 239 732.5 258 c 128,-1,19
 736 277 736 277 736 294 c 0,20,21
 736 335 736 335 721 351.5 c 128,-1,22
 706 368 706 368 681 368 c 0,23,24
 666 368 666 368 653 362.5 c 128,-1,25
 640 357 640 357 631 350 c 128,-1,26
 622 343 622 343 617 335.5 c 128,-1,27
 612 328 612 328 612 324 c 0,28,29
 612 317 612 317 620.5 314 c 128,-1,30
 629 311 629 311 639.5 307 c 128,-1,31
 650 303 650 303 659 294.5 c 128,-1,32
 668 286 668 286 668 269 c 0,33,34
 668 249 668 249 655 237.5 c 128,-1,35
 642 226 642 226 625 226 c 0,36,37
 619 226 619 226 610 228 c 128,-1,38
 601 230 601 230 592.5 236 c 128,-1,39
 584 242 584 242 578 252.5 c 128,-1,40
 572 263 572 263 572 280 c 0,41,42
 572 298 572 298 579.5 317 c 128,-1,43
 587 336 587 336 602.5 352 c 128,-1,44
 618 368 618 368 642.5 378.5 c 128,-1,45
 667 389 667 389 702 389 c 0,46,47
 730 389 730 389 754 382 c 128,-1,48
 778 375 778 375 796 361.5 c 128,-1,49
 814 348 814 348 824.5 329 c 128,-1,50
 835 310 835 310 835 287 c 0,51,52
 835 261 835 261 816 228 c 128,-1,53
 797 195 797 195 742 164 c 2,54,-1
 602 84 l 1,55,-1
 602 80 l 1,56,-1
 757 80 l 2,57,58
 763 80 763 80 767.5 81.5 c 128,-1,59
 772 83 772 83 775.5 87.5 c 128,-1,60
 779 92 779 92 782 101 c 128,-1,61
 785 110 785 110 788 126 c 1,62,-1
 806 126 l 1,63,-1
 774 0 l 1,64,-1
 515 0 l 1,65,-1
 528 58 l 1,14,-1
EndSplineSet
Validated: 1
Ligature2: "'frac' Diagonal Fractions lookup 2 subtable" one fraction two
Ligature2: "'frac' Diagonal Fractions lookup 2 subtable" one slash two
EndChar

StartChar: threequarters
Encoding: 190 190 128
Width: 933
Flags: W
LayerCount: 2
Fore
SplineSet
279 577 m 0,0,1
 299 577 299 577 314.5 588 c 128,-1,2
 330 599 330 599 340 615.5 c 128,-1,3
 350 632 350 632 355 651.5 c 128,-1,4
 360 671 360 671 360 688 c 0,5,6
 360 716 360 716 348.5 724 c 128,-1,7
 337 732 337 732 317 732 c 256,8,9
 297 732 297 732 286.5 726 c 128,-1,10
 276 720 276 720 276 711 c 0,11,12
 276 705 276 705 279.5 701.5 c 128,-1,13
 283 698 283 698 286.5 694.5 c 128,-1,14
 290 691 290 691 293.5 686.5 c 128,-1,15
 297 682 297 682 297 674 c 0,16,17
 297 660 297 660 287 650 c 128,-1,18
 277 640 277 640 261 640 c 0,19,20
 248 640 248 640 237.5 648.5 c 128,-1,21
 227 657 227 657 227 676 c 0,22,23
 227 708 227 708 258 729 c 128,-1,24
 289 750 289 750 336 750 c 0,25,26
 388 750 388 750 414.5 726 c 128,-1,27
 441 702 441 702 441 669 c 256,28,29
 441 636 441 636 413 610 c 128,-1,30
 385 584 385 584 330 569 c 1,31,-1
 330 565 l 1,32,33
 349 565 349 565 367 558 c 128,-1,34
 385 551 385 551 399 538.5 c 128,-1,35
 413 526 413 526 421.5 508.5 c 128,-1,36
 430 491 430 491 430 470 c 0,37,38
 430 444 430 444 417.5 422.5 c 128,-1,39
 405 401 405 401 382.5 385 c 128,-1,40
 360 369 360 369 329.5 360 c 128,-1,41
 299 351 299 351 263 351 c 0,42,43
 205 351 205 351 180.5 372 c 128,-1,44
 156 393 156 393 156 421 c 0,45,46
 156 438 156 438 164.5 452.5 c 128,-1,47
 173 467 173 467 192 467 c 0,48,49
 207 467 207 467 217.5 458 c 128,-1,50
 228 449 228 449 228 434 c 0,51,52
 228 423 228 423 222.5 417.5 c 128,-1,53
 217 412 217 412 211 408 c 128,-1,54
 205 404 205 404 199.5 401 c 128,-1,55
 194 398 194 398 194 393 c 0,56,57
 194 387 194 387 200 382.5 c 128,-1,58
 206 378 206 378 215 375 c 128,-1,59
 224 372 224 372 234.5 370 c 128,-1,60
 245 368 245 368 254 368 c 0,61,62
 268 368 268 368 282 372 c 128,-1,63
 296 376 296 376 307.5 387.5 c 128,-1,64
 319 399 319 399 326 420 c 128,-1,65
 333 441 333 441 333 476 c 0,66,67
 333 517 333 517 321.5 535.5 c 128,-1,68
 310 554 310 554 281 554 c 0,69,70
 273 554 273 554 268.5 553 c 128,-1,71
 264 552 264 552 261.5 551.5 c 128,-1,72
 259 551 259 551 257 550 c 128,-1,73
 255 549 255 549 251 549 c 0,74,75
 241 549 241 549 237 553.5 c 128,-1,76
 233 558 233 558 233 564 c 0,77,78
 233 572 233 572 237.5 576 c 128,-1,79
 242 580 242 580 248 580 c 0,80,81
 253 580 253 580 261.5 578.5 c 128,-1,82
 270 577 270 577 279 577 c 0,0,1
855 753 m 1,83,-1
 265 0 l 1,84,-1
 206 0 l 1,85,-1
 796 753 l 1,86,-1
 855 753 l 1,83,-1
522 123 m 1,87,-1
 766 389 l 1,88,-1
 809 389 l 1,89,-1
 752 123 l 1,90,-1
 802 123 l 1,91,-1
 811 159 l 1,92,-1
 828 159 l 1,93,-1
 803 60 l 1,94,-1
 786 60 l 1,95,-1
 797 104 l 1,96,-1
 748 104 l 1,97,-1
 729 17 l 1,98,-1
 772 17 l 1,99,-1
 772 0 l 1,100,-1
 604 0 l 1,101,-1
 604 17 l 1,102,-1
 642 17 l 1,103,-1
 661 104 l 1,104,-1
 522 104 l 1,105,-1
 522 123 l 1,87,-1
546 123 m 1,106,-1
 665 123 l 1,107,-1
 700 291 l 1,108,-1
 695 291 l 1,109,-1
 546 123 l 1,106,-1
EndSplineSet
Validated: 1
Ligature2: "'frac' Diagonal Fractions lookup 2 subtable" three fraction four
Ligature2: "'frac' Diagonal Fractions lookup 2 subtable" three slash four
EndChar

StartChar: questiondown
Encoding: 191 191 129
Width: 479
Flags: W
LayerCount: 2
Fore
SplineSet
377 368 m 0,0,1
 377 331 377 331 352 306 c 128,-1,2
 327 281 327 281 291 281 c 0,3,4
 254 281 254 281 229 306 c 128,-1,5
 204 331 204 331 204 368 c 0,6,7
 204 404 204 404 229 429 c 128,-1,8
 254 454 254 454 291 454 c 0,9,10
 327 454 327 454 352 429 c 128,-1,11
 377 404 377 404 377 368 c 0,0,1
278 218 m 1,12,13
 281 192 281 192 281 170 c 0,14,15
 281 107 281 107 263 65.5 c 128,-1,16
 245 24 245 24 218.5 -4 c 128,-1,17
 192 -32 192 -32 161 -51.5 c 128,-1,18
 130 -71 130 -71 103.5 -90 c 128,-1,19
 77 -109 77 -109 59 -132 c 128,-1,20
 41 -155 41 -155 41 -191 c 0,21,22
 41 -210 41 -210 47 -228 c 128,-1,23
 53 -246 53 -246 67 -260 c 128,-1,24
 81 -274 81 -274 103 -282.5 c 128,-1,25
 125 -291 125 -291 157 -291 c 0,26,27
 195 -291 195 -291 218 -280 c 128,-1,28
 241 -269 241 -269 241 -254 c 0,29,30
 241 -245 241 -245 233.5 -239.5 c 128,-1,31
 226 -234 226 -234 216.5 -227 c 128,-1,32
 207 -220 207 -220 199.5 -208.5 c 128,-1,33
 192 -197 192 -197 192 -177 c 0,34,35
 192 -159 192 -159 198.5 -146 c 128,-1,36
 205 -133 205 -133 215.5 -125 c 128,-1,37
 226 -117 226 -117 238 -113.5 c 128,-1,38
 250 -110 250 -110 261 -110 c 0,39,40
 287 -110 287 -110 308 -128.5 c 128,-1,41
 329 -147 329 -147 329 -182 c 0,42,43
 329 -208 329 -208 316.5 -232.5 c 128,-1,44
 304 -257 304 -257 281 -277 c 128,-1,45
 258 -297 258 -297 224 -309 c 128,-1,46
 190 -321 190 -321 147 -321 c 0,47,48
 102 -321 102 -321 65.5 -307 c 128,-1,49
 29 -293 29 -293 3.5 -268 c 128,-1,50
 -22 -243 -22 -243 -36 -207.5 c 128,-1,51
 -50 -172 -50 -172 -50 -130 c 0,52,53
 -50 -74 -50 -74 -27.5 -36 c 128,-1,54
 -5 2 -5 2 28.5 29 c 128,-1,55
 62 56 62 56 101.5 75.5 c 128,-1,56
 141 95 141 95 174.5 115 c 128,-1,57
 208 135 208 135 230.5 158.5 c 128,-1,58
 253 182 253 182 253 218 c 1,59,-1
 278 218 l 1,12,13
EndSplineSet
Validated: 1
EndChar

StartChar: AE
Encoding: 198 198 136
Width: 998
Flags: W
LayerCount: 2
Fore
SplineSet
396 754 m 1,0,-1
 1033 754 l 1,1,-1
 997 548 l 1,2,-1
 957 548 l 1,3,4
 957 600 957 600 949.5 634 c 128,-1,5
 942 668 942 668 923 688 c 128,-1,6
 904 708 904 708 873 716 c 128,-1,7
 842 724 842 724 796 724 c 2,8,-1
 695 724 l 1,9,-1
 624 404 l 1,10,-1
 670 404 l 2,11,12
 721 404 721 404 757 434 c 128,-1,13
 793 464 793 464 816 535 c 1,14,-1
 851 535 l 1,15,-1
 786 227 l 1,16,-1
 752 227 l 1,17,18
 752 272 752 272 745 301 c 128,-1,19
 738 330 738 330 725.5 346 c 128,-1,20
 713 362 713 362 694.5 368 c 128,-1,21
 676 374 676 374 654 374 c 2,22,-1
 617 374 l 1,23,-1
 540 30 l 1,24,-1
 698 30 l 2,25,26
 731 30 731 30 760 38.5 c 128,-1,27
 789 47 789 47 816 69.5 c 128,-1,28
 843 92 843 92 869.5 131 c 128,-1,29
 896 170 896 170 925 232 c 1,30,-1
 965 232 l 1,31,-1
 905 0 l 1,32,-1
 295 0 l 1,33,-1
 295 30 l 1,34,-1
 393 30 l 1,35,-1
 433 212 l 1,36,-1
 135 212 l 1,37,-1
 -6 30 l 1,38,-1
 88 30 l 1,39,-1
 88 0 l 1,40,-1
 -102 0 l 1,41,-1
 -102 30 l 1,42,-1
 -48 30 l 1,43,-1
 492 724 l 1,44,-1
 396 724 l 1,45,-1
 396 754 l 1,0,-1
439 239 m 1,46,-1
 544 724 l 1,47,-1
 534 724 l 1,48,-1
 161 245 l 1,49,-1
 439 245 l 1,50,-1
 439 239 l 1,46,-1
EndSplineSet
Validated: 1
EndChar

StartChar: Eth
Encoding: 208 208 146
Width: 770
Flags: W
LayerCount: 2
Fore
SplineSet
39 402 m 1,0,-1
 135 402 l 1,1,-1
 205 724 l 1,2,-1
 100 724 l 1,3,-1
 100 754 l 1,4,-1
 436 754 l 2,5,6
 591 754 591 754 669.5 669.5 c 128,-1,7
 748 585 748 585 748 438 c 0,8,9
 748 352 748 352 716.5 273 c 128,-1,10
 685 194 685 194 628.5 133 c 128,-1,11
 572 72 572 72 494.5 36 c 128,-1,12
 417 0 417 0 325 0 c 2,13,-1
 -41 0 l 1,14,-1
 -41 32 l 1,15,-1
 55 32 l 1,16,-1
 126 362 l 1,17,-1
 39 362 l 1,18,-1
 39 402 l 1,0,-1
356 724 m 1,19,-1
 284 402 l 1,20,-1
 404 402 l 1,21,-1
 404 362 l 1,22,-1
 275 362 l 1,23,-1
 202 32 l 1,24,-1
 296 32 l 2,25,26
 363 32 363 32 417 65.5 c 128,-1,27
 471 99 471 99 509.5 161.5 c 128,-1,28
 548 224 548 224 569 314 c 128,-1,29
 590 404 590 404 590 518 c 0,30,31
 590 560 590 560 585 597.5 c 128,-1,32
 580 635 580 635 563.5 663 c 128,-1,33
 547 691 547 691 515 707.5 c 128,-1,34
 483 724 483 724 429 724 c 2,35,-1
 356 724 l 1,19,-1
EndSplineSet
Validated: 1
EndChar

StartChar: multiply
Encoding: 215 215 153
Width: 598
Flags: W
LayerCount: 2
Fore
SplineSet
136 574 m 1,0,-1
 323 386 l 1,1,-1
 512 575 l 1,2,-1
 556 532 l 1,3,-1
 367 343 l 1,4,-1
 546 164 l 1,5,-1
 506 117 l 1,6,-1
 323 299 l 1,7,-1
 146 122 l 1,8,-1
 102 165 l 1,9,-1
 280 343 l 1,10,-1
 96 527 l 1,11,-1
 136 574 l 1,0,-1
EndSplineSet
Validated: 1
EndChar

StartChar: Oslash
Encoding: 216 216 154
Width: 789
Flags: W
LayerCount: 2
Fore
SplineSet
54 -53 m 1,0,-1
 160 70 l 1,1,2
 115 113 115 113 90 173 c 128,-1,3
 65 233 65 233 65 304 c 0,4,5
 65 388 65 388 101 470.5 c 128,-1,6
 137 553 137 553 197 618 c 128,-1,7
 257 683 257 683 335.5 723 c 128,-1,8
 414 763 414 763 500 763 c 0,9,10
 557 763 557 763 607 744.5 c 128,-1,11
 657 726 657 726 695 692 c 1,12,-1
 792 804 l 1,13,-1
 850 804 l 1,14,-1
 726 660 l 1,15,16
 760 619 760 619 779 566.5 c 128,-1,17
 798 514 798 514 798 454 c 0,18,19
 798 369 798 369 762 285.5 c 128,-1,20
 726 202 726 202 665.5 136 c 128,-1,21
 605 70 605 70 526.5 29.5 c 128,-1,22
 448 -11 448 -11 363 -11 c 0,23,24
 314 -11 314 -11 271 2.5 c 128,-1,25
 228 16 228 16 193 42 c 1,26,-1
 112 -53 l 1,27,-1
 54 -53 l 1,0,-1
239 162 m 1,28,-1
 621 606 l 1,29,30
 618 630 618 630 611.5 652.5 c 128,-1,31
 605 675 605 675 591.5 692.5 c 128,-1,32
 578 710 578 710 556.5 720.5 c 128,-1,33
 535 731 535 731 503 731 c 0,34,35
 452 731 452 731 412.5 704.5 c 128,-1,36
 373 678 373 678 343.5 634 c 128,-1,37
 314 590 314 590 294 533.5 c 128,-1,38
 274 477 274 477 261.5 417.5 c 128,-1,39
 249 358 249 358 243.5 299.5 c 128,-1,40
 238 241 238 241 238 194 c 0,41,42
 238 192 238 192 238 185 c 128,-1,43
 238 178 238 178 239 170 c 2,44,-1
 239 162 l 1,28,-1
357 21 m 0,45,46
 408 21 408 21 447.5 46.5 c 128,-1,47
 487 72 487 72 516.5 114.5 c 128,-1,48
 546 157 546 157 566.5 212 c 128,-1,49
 587 267 587 267 599.5 324.5 c 128,-1,50
 612 382 612 382 617.5 438.5 c 128,-1,51
 623 495 623 495 624 541 c 1,52,-1
 249 106 l 1,53,54
 260 64 260 64 286 42.5 c 128,-1,55
 312 21 312 21 357 21 c 0,45,46
EndSplineSet
Validated: 1
EndChar

StartChar: Thorn
Encoding: 222 222 160
Width: 642
Flags: W
LayerCount: 2
Fore
SplineSet
144 754 m 1,0,-1
 453 754 l 1,1,-1
 453 723 l 1,2,-1
 365 723 l 1,3,-1
 333 581 l 1,4,-1
 403 581 l 2,5,6
 539 581 539 581 607.5 532 c 128,-1,7
 676 483 676 483 676 398 c 0,8,9
 676 347 676 347 651.5 306 c 128,-1,10
 627 265 627 265 579.5 236 c 128,-1,11
 532 207 532 207 462.5 191 c 128,-1,12
 393 175 393 175 303 175 c 2,13,-1
 243 175 l 1,14,-1
 211 31 l 1,15,-1
 299 31 l 1,16,-1
 299 0 l 1,17,-1
 -10 0 l 1,18,-1
 -10 31 l 1,19,-1
 63 31 l 1,20,-1
 214 723 l 1,21,-1
 144 723 l 1,22,-1
 144 754 l 1,0,-1
326 551 m 1,23,-1
 248 200 l 1,24,-1
 331 200 l 2,25,26
 417 200 417 200 463.5 256.5 c 128,-1,27
 510 313 510 313 510 431 c 0,28,29
 510 463 510 463 505.5 486 c 128,-1,30
 501 509 501 509 488 523.5 c 128,-1,31
 475 538 475 538 451.5 544.5 c 128,-1,32
 428 551 428 551 391 551 c 2,33,-1
 326 551 l 1,23,-1
EndSplineSet
Validated: 1
EndChar

StartChar: germandbls
Encoding: 223 223 161
Width: 589
Flags: W
LayerCount: 2
Fore
SplineSet
121 550 m 2,0,1
 132 601 132 601 158 641 c 128,-1,2
 184 681 184 681 221.5 708 c 128,-1,3
 259 735 259 735 306 749 c 128,-1,4
 353 763 353 763 406 763 c 0,5,6
 493 763 493 763 545.5 726.5 c 128,-1,7
 598 690 598 690 598 622 c 0,8,9
 598 588 598 588 584.5 559 c 128,-1,10
 571 530 571 530 547.5 506.5 c 128,-1,11
 524 483 524 483 492.5 466 c 128,-1,12
 461 449 461 449 424 439 c 1,13,-1
 424 435 l 1,14,15
 455 432 455 432 481 418 c 128,-1,16
 507 404 507 404 526 380.5 c 128,-1,17
 545 357 545 357 555 327 c 128,-1,18
 565 297 565 297 565 263 c 0,19,20
 565 218 565 218 547.5 170.5 c 128,-1,21
 530 123 530 123 497 83.5 c 128,-1,22
 464 44 464 44 417.5 19 c 128,-1,23
 371 -6 371 -6 313 -6 c 0,24,25
 257 -6 257 -6 235 16 c 128,-1,26
 213 38 213 38 213 68 c 0,27,28
 213 95 213 95 229 115 c 128,-1,29
 245 135 245 135 274 135 c 0,30,31
 291 135 291 135 303 127 c 128,-1,32
 315 119 315 119 315 101 c 0,33,34
 315 89 315 89 309.5 81 c 128,-1,35
 304 73 304 73 297.5 66.5 c 128,-1,36
 291 60 291 60 285.5 53.5 c 128,-1,37
 280 47 280 47 280 38 c 0,38,39
 280 24 280 24 295 24 c 0,40,41
 322 24 322 24 344 54.5 c 128,-1,42
 366 85 366 85 382.5 129.5 c 128,-1,43
 399 174 399 174 408 223 c 128,-1,44
 417 272 417 272 417 309 c 0,45,46
 417 418 417 418 335 418 c 2,47,-1
 298 418 l 1,48,-1
 305 450 l 1,49,-1
 343 450 l 2,50,51
 378 450 378 450 402 473.5 c 128,-1,52
 426 497 426 497 440.5 530 c 128,-1,53
 455 563 455 563 461 598 c 128,-1,54
 467 633 467 633 467 656 c 0,55,56
 467 699 467 699 449.5 715 c 128,-1,57
 432 731 432 731 403 731 c 0,58,59
 317 731 317 731 293 615 c 2,60,-1
 200 175 l 2,61,62
 172 43 172 43 135.5 -51 c 128,-1,63
 99 -145 99 -145 56.5 -206 c 128,-1,64
 14 -267 14 -267 -33.5 -295.5 c 128,-1,65
 -81 -324 -81 -324 -131 -324 c 0,66,67
 -159 -324 -159 -324 -178.5 -316.5 c 128,-1,68
 -198 -309 -198 -309 -210.5 -296.5 c 128,-1,69
 -223 -284 -223 -284 -228.5 -268 c 128,-1,70
 -234 -252 -234 -252 -234 -236 c 0,71,72
 -234 -208 -234 -208 -218.5 -190 c 128,-1,73
 -203 -172 -203 -172 -172 -172 c 0,74,75
 -142 -172 -142 -172 -127 -188 c 128,-1,76
 -112 -204 -112 -204 -112 -224 c 0,77,78
 -112 -240 -112 -240 -118.5 -250 c 128,-1,79
 -125 -260 -125 -260 -125 -272 c 0,80,81
 -125 -289 -125 -289 -102 -289 c 0,82,83
 -90 -289 -90 -289 -79.5 -281 c 128,-1,84
 -69 -273 -69 -273 -57 -241 c 128,-1,85
 -45 -209 -45 -209 -29 -144.5 c 128,-1,86
 -13 -80 -13 -80 11 33 c 2,87,-1
 121 550 l 2,0,1
EndSplineSet
Validated: 1
EndChar

StartChar: ae
Encoding: 230 230 168
Width: 847
Flags: W
LayerCount: 2
Fore
SplineSet
411 390 m 1,0,-1
 426 450 l 1,1,-1
 560 450 l 1,2,-1
 556 435 l 1,3,4
 583 448 583 448 610.5 455 c 128,-1,5
 638 462 638 462 665 462 c 0,6,7
 699 462 699 462 728.5 453.5 c 128,-1,8
 758 445 758 445 779.5 429 c 128,-1,9
 801 413 801 413 813.5 391.5 c 128,-1,10
 826 370 826 370 826 344 c 0,11,12
 826 315 826 315 812 288.5 c 128,-1,13
 798 262 798 262 770 241.5 c 128,-1,14
 742 221 742 221 701 208.5 c 128,-1,15
 660 196 660 196 605 196 c 0,16,17
 588 196 588 196 568 196.5 c 128,-1,18
 548 197 548 197 530 199 c 1,19,20
 525 178 525 178 521 154.5 c 128,-1,21
 517 131 517 131 513 105 c 0,22,23
 512 100 512 100 511.5 94 c 128,-1,24
 511 88 511 88 511 83 c 0,25,26
 511 53 511 53 530.5 41 c 128,-1,27
 550 29 550 29 584 29 c 0,28,29
 633 29 633 29 684.5 54.5 c 128,-1,30
 736 80 736 80 783 148 c 1,31,-1
 808 129 l 1,32,33
 768 63 768 63 706.5 26 c 128,-1,34
 645 -11 645 -11 569 -11 c 0,35,36
 497 -11 497 -11 450 20.5 c 128,-1,37
 403 52 403 52 383 100 c 1,38,-1
 377 100 l 1,39,40
 364 80 364 80 346.5 60 c 128,-1,41
 329 40 329 40 305.5 24.5 c 128,-1,42
 282 9 282 9 254 -1 c 128,-1,43
 226 -11 226 -11 192 -11 c 0,44,45
 160 -11 160 -11 130.5 1 c 128,-1,46
 101 13 101 13 78.5 35.5 c 128,-1,47
 56 58 56 58 42.5 91 c 128,-1,48
 29 124 29 124 29 166 c 0,49,50
 29 224 29 224 53.5 277.5 c 128,-1,51
 78 331 78 331 117.5 372 c 128,-1,52
 157 413 157 413 206.5 437.5 c 128,-1,53
 256 462 256 462 305 462 c 0,54,55
 342 462 342 462 365.5 444.5 c 128,-1,56
 389 427 389 427 405 390 c 1,57,-1
 411 390 l 1,0,-1
213 30 m 0,58,59
 228 30 228 30 247 37 c 128,-1,60
 266 44 266 44 285.5 60.5 c 128,-1,61
 305 77 305 77 323 102.5 c 128,-1,62
 341 128 341 128 355 166 c 1,63,-1
 389 302 l 2,64,65
 390 311 390 311 391 319 c 128,-1,66
 392 327 392 327 392 333 c 0,67,68
 392 372 392 372 371 397.5 c 128,-1,69
 350 423 350 423 326 423 c 0,70,71
 295 423 295 423 267 394.5 c 128,-1,72
 239 366 239 366 217.5 321 c 128,-1,73
 196 276 196 276 183.5 219.5 c 128,-1,74
 171 163 171 163 171 107 c 0,75,76
 171 62 171 62 180.5 46 c 128,-1,77
 190 30 190 30 213 30 c 0,58,59
652 432 m 0,78,79
 636 432 636 432 621 424 c 128,-1,80
 606 416 606 416 591.5 394 c 128,-1,81
 577 372 577 372 563 333 c 128,-1,82
 549 294 549 294 536 232 c 1,83,-1
 574 232 l 2,84,85
 610 232 610 232 636 242.5 c 128,-1,86
 662 253 662 253 679.5 270 c 128,-1,87
 697 287 697 287 705 310 c 128,-1,88
 713 333 713 333 713 359 c 0,89,90
 713 391 713 391 698 411.5 c 128,-1,91
 683 432 683 432 652 432 c 0,78,79
EndSplineSet
Validated: 1
EndChar

StartChar: eth
Encoding: 240 240 178
Width: 583
Flags: W
LayerCount: 2
Fore
SplineSet
253 600 m 1,0,-1
 392 648 l 1,1,2
 346 711 346 711 263 725 c 1,3,-1
 279 754 l 1,4,5
 336 752 336 752 384.5 731.5 c 128,-1,6
 433 711 433 711 473 676 c 1,7,-1
 616 725 l 1,8,-1
 627 682 l 1,9,-1
 507 640 l 1,10,11
 547 592 547 592 569.5 529 c 128,-1,12
 592 466 592 466 592 393 c 0,13,14
 592 317 592 317 566 244.5 c 128,-1,15
 540 172 540 172 493.5 115 c 128,-1,16
 447 58 447 58 382.5 23.5 c 128,-1,17
 318 -11 318 -11 241 -11 c 0,18,19
 194 -11 194 -11 154 2 c 128,-1,20
 114 15 114 15 85 39.5 c 128,-1,21
 56 64 56 64 39 99 c 128,-1,22
 22 134 22 134 22 179 c 0,23,24
 22 235 22 235 48 285 c 128,-1,25
 74 335 74 335 116.5 373 c 128,-1,26
 159 411 159 411 214 433 c 128,-1,27
 269 455 269 455 328 455 c 0,28,29
 360 455 360 455 387 448.5 c 128,-1,30
 414 442 414 442 431 431 c 1,31,-1
 435 432 l 1,32,33
 436 447 436 447 437 455.5 c 128,-1,34
 438 464 438 464 438 481 c 0,35,36
 438 517 438 517 431.5 549 c 128,-1,37
 425 581 425 581 414 608 c 1,38,-1
 266 557 l 1,39,-1
 253 600 l 1,0,-1
409 223 m 0,40,41
 417 254 417 254 423 288 c 128,-1,42
 429 322 429 322 429 364 c 1,43,44
 422 384 422 384 402 399.5 c 128,-1,45
 382 415 382 415 352 415 c 0,46,47
 313 415 313 415 281.5 386.5 c 128,-1,48
 250 358 250 358 227.5 315 c 128,-1,49
 205 272 205 272 192.5 221.5 c 128,-1,50
 180 171 180 171 180 127 c 0,51,52
 180 76 180 76 199 50 c 128,-1,53
 218 24 218 24 263 24 c 0,54,55
 289 24 289 24 309.5 34 c 128,-1,56
 330 44 330 44 347.5 67 c 128,-1,57
 365 90 365 90 380 128.5 c 128,-1,58
 395 167 395 167 409 223 c 0,40,41
EndSplineSet
Validated: 1
EndChar

StartChar: divide
Encoding: 247 247 185
Width: 598
Flags: W
LayerCount: 2
Fore
SplineSet
80 370 m 1,0,-1
 578 370 l 1,1,-1
 578 316 l 1,2,-1
 80 316 l 1,3,-1
 80 370 l 1,0,-1
257 142 m 256,4,5
 257 174 257 174 279.5 196.5 c 128,-1,6
 302 219 302 219 334 219 c 256,7,8
 366 219 366 219 388.5 196.5 c 128,-1,9
 411 174 411 174 411 142 c 256,10,11
 411 110 411 110 388.5 87.5 c 128,-1,12
 366 65 366 65 334 65 c 256,13,14
 302 65 302 65 279.5 87.5 c 128,-1,15
 257 110 257 110 257 142 c 256,4,5
257 544 m 256,16,17
 257 576 257 576 279.5 598.5 c 128,-1,18
 302 621 302 621 334 621 c 256,19,20
 366 621 366 621 388.5 598.5 c 128,-1,21
 411 576 411 576 411 544 c 256,22,23
 411 512 411 512 388.5 489.5 c 128,-1,24
 366 467 366 467 334 467 c 256,25,26
 302 467 302 467 279.5 489.5 c 128,-1,27
 257 512 257 512 257 544 c 256,16,17
EndSplineSet
Validated: 1
EndChar

StartChar: oslash
Encoding: 248 248 186
Width: 556
Flags: W
LayerCount: 2
Fore
SplineSet
-34 -53 m 1,0,-1
 68 49 l 1,1,2
 23 97 23 97 23 169 c 0,3,4
 23 223 23 223 48.5 275.5 c 128,-1,5
 74 328 74 328 116.5 369.5 c 128,-1,6
 159 411 159 411 215 436.5 c 128,-1,7
 271 462 271 462 333 462 c 0,8,9
 401 462 401 462 451 429 c 1,10,-1
 505 483 l 1,11,-1
 563 483 l 1,12,-1
 483 404 l 1,13,14
 533 354 533 354 533 280 c 0,15,16
 533 226 533 226 507.5 173.5 c 128,-1,17
 482 121 482 121 439 79.5 c 128,-1,18
 396 38 396 38 339.5 12.5 c 128,-1,19
 283 -13 283 -13 222 -13 c 0,20,21
 186 -13 186 -13 155 -4 c 128,-1,22
 124 5 124 5 99 22 c 1,23,-1
 23 -53 l 1,24,-1
 -34 -53 l 1,0,-1
225 22 m 0,25,26
 260 22 260 22 288 47.5 c 128,-1,27
 316 73 316 73 336 113.5 c 128,-1,28
 356 154 356 154 367.5 204 c 128,-1,29
 379 254 379 254 382 303 c 1,30,-1
 172 95 l 1,31,32
 174 59 174 59 185 40.5 c 128,-1,33
 196 22 196 22 225 22 c 0,25,26
330 427 m 0,34,35
 295 427 295 427 268 402.5 c 128,-1,36
 241 378 241 378 221 338.5 c 128,-1,37
 201 299 201 299 189 250 c 128,-1,38
 177 201 177 201 173 153 c 1,39,-1
 382 361 l 1,40,41
 380 393 380 393 368.5 410 c 128,-1,42
 357 427 357 427 330 427 c 0,34,35
EndSplineSet
Validated: 1
EndChar

StartChar: thorn
Encoding: 254 254 192
Width: 569
Flags: W
LayerCount: 2
Fore
SplineSet
-114 -279 m 1,0,-1
 -41 -279 l 1,1,-1
 198 724 l 1,2,-1
 105 724 l 1,3,-1
 105 754 l 1,4,-1
 332 754 l 1,5,-1
 248 390 l 1,6,-1
 253 390 l 1,7,8
 272 421 272 421 304.5 441.5 c 128,-1,9
 337 462 337 462 377 462 c 0,10,11
 404 462 404 462 432 451.5 c 128,-1,12
 460 441 460 441 483.5 419.5 c 128,-1,13
 507 398 507 398 521.5 365 c 128,-1,14
 536 332 536 332 536 287 c 0,15,16
 536 228 536 228 511.5 173.5 c 128,-1,17
 487 119 487 119 445.5 77.5 c 128,-1,18
 404 36 404 36 349 11.5 c 128,-1,19
 294 -13 294 -13 233 -13 c 0,20,21
 211 -13 211 -13 192.5 -9.5 c 128,-1,22
 174 -6 174 -6 157 0 c 1,23,-1
 92 -279 l 1,24,-1
 190 -279 l 1,25,-1
 190 -309 l 1,26,-1
 -114 -309 l 1,27,-1
 -114 -279 l 1,0,-1
355 425 m 0,28,29
 324 425 324 425 290 397 c 128,-1,30
 256 369 256 369 230 312 c 1,31,-1
 193 148 l 2,32,33
 191 137 191 137 189 121.5 c 128,-1,34
 187 106 187 106 187 93 c 0,35,36
 187 58 187 58 202 42 c 128,-1,37
 217 26 217 26 240 26 c 0,38,39
 272 26 272 26 299.5 55 c 128,-1,40
 327 84 327 84 347.5 130.5 c 128,-1,41
 368 177 368 177 379.5 235.5 c 128,-1,42
 391 294 391 294 391 352 c 0,43,44
 391 394 391 394 383.5 409.5 c 128,-1,45
 376 425 376 425 355 425 c 0,28,29
EndSplineSet
Validated: 1
EndChar

StartChar: Dcroat
Encoding: 272 272 210
Width: 770
Flags: W
LayerCount: 2
Fore
SplineSet
39 402 m 1,0,-1
 135 402 l 1,1,-1
 205 724 l 1,2,-1
 100 724 l 1,3,-1
 100 754 l 1,4,-1
 436 754 l 2,5,6
 591 754 591 754 669.5 669.5 c 128,-1,7
 748 585 748 585 748 438 c 0,8,9
 748 352 748 352 716.5 273 c 128,-1,10
 685 194 685 194 628.5 133 c 128,-1,11
 572 72 572 72 494.5 36 c 128,-1,12
 417 0 417 0 325 0 c 2,13,-1
 -41 0 l 1,14,-1
 -41 32 l 1,15,-1
 55 32 l 1,16,-1
 126 362 l 1,17,-1
 39 362 l 1,18,-1
 39 402 l 1,0,-1
356 724 m 1,19,-1
 284 402 l 1,20,-1
 404 402 l 1,21,-1
 404 362 l 1,22,-1
 275 362 l 1,23,-1
 202 32 l 1,24,-1
 296 32 l 2,25,26
 363 32 363 32 417 65.5 c 128,-1,27
 471 99 471 99 509.5 161.5 c 128,-1,28
 548 224 548 224 569 314 c 128,-1,29
 590 404 590 404 590 518 c 0,30,31
 590 560 590 560 585 597.5 c 128,-1,32
 580 635 580 635 563.5 663 c 128,-1,33
 547 691 547 691 515 707.5 c 128,-1,34
 483 724 483 724 429 724 c 2,35,-1
 356 724 l 1,19,-1
EndSplineSet
Validated: 1
EndChar

StartChar: dcroat
Encoding: 273 273 211
Width: 609
Flags: W
LayerCount: 2
Fore
SplineSet
396 754 m 1,0,-1
 648 754 l 1,1,-1
 616 621 l 1,2,-1
 667 621 l 1,3,-1
 667 586 l 1,4,-1
 608 586 l 1,5,-1
 490 87 l 2,6,7
 487 74 487 74 486 65.5 c 128,-1,8
 485 57 485 57 485 54 c 0,9,10
 485 41 485 41 497 41 c 0,11,12
 512 41 512 41 539.5 66.5 c 128,-1,13
 567 92 567 92 595 161 c 1,14,-1
 620 152 l 1,15,16
 610 121 610 121 593.5 91.5 c 128,-1,17
 577 62 577 62 554.5 39.5 c 128,-1,18
 532 17 532 17 503 3 c 128,-1,19
 474 -11 474 -11 440 -11 c 0,20,21
 401 -11 401 -11 377 8.5 c 128,-1,22
 353 28 353 28 353 70 c 1,23,-1
 346 70 l 1,24,25
 336 56 336 56 321.5 41.5 c 128,-1,26
 307 27 307 27 288.5 15.5 c 128,-1,27
 270 4 270 4 247.5 -3.5 c 128,-1,28
 225 -11 225 -11 199 -11 c 0,29,30
 167 -11 167 -11 137.5 1 c 128,-1,31
 108 13 108 13 85.5 35.5 c 128,-1,32
 63 58 63 58 49.5 91.5 c 128,-1,33
 36 125 36 125 36 168 c 0,34,35
 36 226 36 226 60.5 279.5 c 128,-1,36
 85 333 85 333 124.5 373.5 c 128,-1,37
 164 414 164 414 213.5 438 c 128,-1,38
 263 462 263 462 312 462 c 0,39,40
 352 462 352 462 378 444.5 c 128,-1,41
 404 427 404 427 421 389 c 1,42,-1
 425 389 l 1,43,-1
 472 586 l 1,44,-1
 372 586 l 1,45,-1
 372 621 l 1,46,-1
 481 621 l 1,47,-1
 506 724 l 1,48,-1
 396 724 l 1,49,-1
 396 754 l 1,0,-1
220 30 m 0,50,51
 236 30 236 30 256.5 37.5 c 128,-1,52
 277 45 277 45 298 61.5 c 128,-1,53
 319 78 319 78 338.5 104.5 c 128,-1,54
 358 131 358 131 373 170 c 1,55,-1
 407 311 l 2,56,57
 408 317 408 317 408.5 322.5 c 128,-1,58
 409 328 409 328 409 334 c 0,59,60
 409 353 409 353 402.5 369.5 c 128,-1,61
 396 386 396 386 385 398 c 128,-1,62
 374 410 374 410 360 416.5 c 128,-1,63
 346 423 346 423 332 423 c 0,64,65
 302 423 302 423 274 393.5 c 128,-1,66
 246 364 246 364 224.5 318.5 c 128,-1,67
 203 273 203 273 190.5 217 c 128,-1,68
 178 161 178 161 178 107 c 0,69,70
 178 62 178 62 187.5 46 c 128,-1,71
 197 30 197 30 220 30 c 0,50,51
EndSplineSet
Validated: 1
EndChar

StartChar: gcommaaccent
Encoding: 291 291 229
Width: 529
Flags: W
LayerCount: 2
Fore
SplineSet
243 131 m 0,0,1
 204 131 204 131 174.5 139.5 c 128,-1,2
 145 148 145 148 124 162 c 1,3,4
 71 148 71 148 71 108 c 0,5,6
 71 98 71 98 75 90 c 128,-1,7
 79 82 79 82 89.5 77 c 128,-1,8
 100 72 100 72 119.5 68.5 c 128,-1,9
 139 65 139 65 169 64 c 2,10,-1
 349 58 l 2,11,12
 402 56 402 56 430.5 22 c 128,-1,13
 459 -12 459 -12 459 -70 c 0,14,15
 459 -114 459 -114 441 -158.5 c 128,-1,16
 423 -203 423 -203 386.5 -238.5 c 128,-1,17
 350 -274 350 -274 293 -296.5 c 128,-1,18
 236 -319 236 -319 158 -319 c 0,19,20
 55 -319 55 -319 -2 -280.5 c 128,-1,21
 -59 -242 -59 -242 -59 -176 c 0,22,23
 -59 -159 -59 -159 -54 -142 c 128,-1,24
 -49 -125 -49 -125 -36 -108.5 c 128,-1,25
 -23 -92 -23 -92 -0.5 -77 c 128,-1,26
 22 -62 22 -62 57 -49 c 1,27,-1
 57 -45 l 1,28,29
 35 -32 35 -32 18 -8 c 128,-1,30
 1 16 1 16 1 53 c 0,31,32
 1 80 1 80 10.5 101 c 128,-1,33
 20 122 20 122 34.5 137.5 c 128,-1,34
 49 153 49 153 66.5 164.5 c 128,-1,35
 84 176 84 176 100 183 c 1,36,37
 82 203 82 203 74 226.5 c 128,-1,38
 66 250 66 250 66 275 c 0,39,40
 66 316 66 316 86.5 350.5 c 128,-1,41
 107 385 107 385 140.5 409.5 c 128,-1,42
 174 434 174 434 217 448 c 128,-1,43
 260 462 260 462 305 462 c 0,44,45
 339 462 339 462 364 454.5 c 128,-1,46
 389 447 389 447 407 434.5 c 128,-1,47
 425 422 425 422 437 406 c 128,-1,48
 449 390 449 390 458 374 c 1,49,-1
 463 374 l 1,50,51
 478 418 478 418 494 441 c 128,-1,52
 510 464 510 464 539 464 c 0,53,54
 562 464 562 464 573 452 c 128,-1,55
 584 440 584 440 584 423 c 0,56,57
 584 409 584 409 574.5 394.5 c 128,-1,58
 565 380 565 380 542 380 c 0,59,60
 527 380 527 380 519 385.5 c 128,-1,61
 511 391 511 391 506 391 c 0,62,63
 498 391 498 391 491 374.5 c 128,-1,64
 484 358 484 358 476 314 c 1,65,66
 474 271 474 271 455 237 c 128,-1,67
 436 203 436 203 404.5 179.5 c 128,-1,68
 373 156 373 156 331 143.5 c 128,-1,69
 289 131 289 131 243 131 c 0,0,1
103 -60 m 2,70,71
 101 -60 101 -60 100 -59.5 c 128,-1,72
 99 -59 99 -59 97 -59 c 0,73,74
 57 -83 57 -83 42 -111.5 c 128,-1,75
 27 -140 27 -140 27 -174 c 0,76,77
 27 -284 27 -284 169 -284 c 0,78,79
 228 -284 228 -284 272.5 -268 c 128,-1,80
 317 -252 317 -252 346.5 -228 c 128,-1,81
 376 -204 376 -204 391 -176.5 c 128,-1,82
 406 -149 406 -149 406 -126 c 0,83,84
 406 -100 406 -100 387 -88.5 c 128,-1,85
 368 -77 368 -77 333 -75 c 2,86,-1
 103 -60 l 2,70,71
231 156 m 0,87,88
 264 156 264 156 287.5 180 c 128,-1,89
 311 204 311 204 325.5 238.5 c 128,-1,90
 340 273 340 273 347 312 c 128,-1,91
 354 351 354 351 354 382 c 0,92,93
 354 408 354 408 347 422.5 c 128,-1,94
 340 437 340 437 314 437 c 0,95,96
 282 437 282 437 258.5 415.5 c 128,-1,97
 235 394 235 394 219 361.5 c 128,-1,98
 203 329 203 329 195.5 291 c 128,-1,99
 188 253 188 253 188 220 c 256,100,101
 188 187 188 187 197 171.5 c 128,-1,102
 206 156 206 156 231 156 c 0,87,88
447 775 m 1,103,104
 386 755 386 755 348 730.5 c 128,-1,105
 310 706 310 706 310 677 c 0,106,107
 310 666 310 666 314.5 660.5 c 128,-1,108
 319 655 319 655 323 655 c 256,109,110
 327 655 327 655 331 661 c 128,-1,111
 335 667 335 667 341 674 c 128,-1,112
 347 681 347 681 356.5 687 c 128,-1,113
 366 693 366 693 382 693 c 0,114,115
 410 693 410 693 423 674.5 c 128,-1,116
 436 656 436 656 436 633 c 0,117,118
 436 598 436 598 410.5 578 c 128,-1,119
 385 558 385 558 351 558 c 0,120,121
 327 558 327 558 310.5 567.5 c 128,-1,122
 294 577 294 577 283.5 591 c 128,-1,123
 273 605 273 605 268.5 622.5 c 128,-1,124
 264 640 264 640 264 656 c 0,125,126
 264 707 264 707 308 742.5 c 128,-1,127
 352 778 352 778 433 804 c 1,128,-1
 447 775 l 1,103,104
EndSplineSet
Validated: 1
EndChar

StartChar: Hbar
Encoding: 294 294 232
Width: 807
Flags: W
LayerCount: 2
Fore
SplineSet
138 754 m 1,0,-1
 477 754 l 1,1,-1
 477 724 l 1,2,-1
 382 724 l 1,3,-1
 349 578 l 1,4,-1
 608 578 l 1,5,-1
 640 724 l 1,6,-1
 547 724 l 1,7,-1
 547 754 l 1,8,-1
 886 754 l 1,9,-1
 886 724 l 1,10,-1
 791 724 l 1,11,-1
 758 578 l 1,12,-1
 869 578 l 1,13,-1
 869 538 l 1,14,-1
 749 538 l 1,15,-1
 637 31 l 1,16,-1
 745 31 l 1,17,-1
 745 0 l 1,18,-1
 396 0 l 1,19,-1
 396 31 l 1,20,-1
 489 31 l 1,21,-1
 562 365 l 1,22,-1
 302 365 l 1,23,-1
 228 31 l 1,24,-1
 336 31 l 1,25,-1
 336 0 l 1,26,-1
 -13 0 l 1,27,-1
 -13 31 l 1,28,-1
 80 31 l 1,29,-1
 190 538 l 1,30,-1
 100 538 l 1,31,-1
 100 578 l 1,32,-1
 199 578 l 1,33,-1
 231 724 l 1,34,-1
 138 724 l 1,35,-1
 138 754 l 1,0,-1
569 395 m 1,36,-1
 600 538 l 1,37,-1
 340 538 l 1,38,-1
 309 395 l 1,39,-1
 569 395 l 1,36,-1
EndSplineSet
Validated: 1
EndChar

StartChar: hbar
Encoding: 295 295 233
Width: 584
Flags: W
LayerCount: 2
Fore
SplineSet
103 754 m 1,0,-1
 334 754 l 1,1,-1
 300 621 l 1,2,-1
 409 621 l 1,3,-1
 409 581 l 1,4,-1
 290 581 l 1,5,-1
 236 362 l 1,6,-1
 242 362 l 1,7,8
 257 381 257 381 275.5 399 c 128,-1,9
 294 417 294 417 316 431 c 128,-1,10
 338 445 338 445 364.5 453.5 c 128,-1,11
 391 462 391 462 422 462 c 0,12,13
 444 462 444 462 463.5 457 c 128,-1,14
 483 452 483 452 497.5 441.5 c 128,-1,15
 512 431 512 431 520.5 414.5 c 128,-1,16
 529 398 529 398 529 375 c 0,17,18
 529 356 529 356 523 331 c 2,19,-1
 461 89 l 2,20,21
 458 76 458 76 457 68 c 128,-1,22
 456 60 456 60 456 55 c 0,23,24
 456 35 456 35 472 35 c 0,25,26
 491 35 491 35 517.5 62.5 c 128,-1,27
 544 90 544 90 571 155 c 1,28,-1
 596 146 l 1,29,30
 579 99 579 99 558.5 68.5 c 128,-1,31
 538 38 538 38 516 20.5 c 128,-1,32
 494 3 494 3 470 -4 c 128,-1,33
 446 -11 446 -11 422 -11 c 0,34,35
 375 -11 375 -11 349.5 11 c 128,-1,36
 324 33 324 33 324 75 c 0,37,38
 324 85 324 85 325 92.5 c 128,-1,39
 326 100 326 100 328 107 c 2,40,-1
 392 356 l 2,41,42
 394 363 394 363 395.5 374.5 c 128,-1,43
 397 386 397 386 397 393 c 0,44,45
 397 416 397 416 373 416 c 0,46,47
 358 416 358 416 335.5 404.5 c 128,-1,48
 313 393 313 393 290 372 c 128,-1,49
 267 351 267 351 245 321 c 128,-1,50
 223 291 223 291 209 254 c 1,51,-1
 146 0 l 1,52,-1
 13 0 l 1,53,-1
 154 581 l 1,54,-1
 84 581 l 1,55,-1
 84 621 l 1,56,-1
 164 621 l 1,57,-1
 189 724 l 1,58,-1
 103 724 l 1,59,-1
 103 754 l 1,0,-1
EndSplineSet
Validated: 1
EndChar

StartChar: dotlessi
Encoding: 305 305 243
Width: 380
Flags: W
LayerCount: 2
Fore
SplineSet
48 450 m 1,0,-1
 329 450 l 1,1,-1
 245 87 l 2,2,3
 242 73 242 73 241 65 c 128,-1,4
 240 57 240 57 240 54 c 0,5,6
 240 37 240 37 253 37 c 0,7,8
 261 37 261 37 273 43 c 128,-1,9
 285 49 285 49 299.5 62.5 c 128,-1,10
 314 76 314 76 329.5 99 c 128,-1,11
 345 122 345 122 360 156 c 1,12,-1
 385 147 l 1,13,14
 357 66 357 66 304 27 c 0,15,16
 251 -11 251 -11 172 -11 c 0,17,18
 103 -11 103 -11 79 8.5 c 128,-1,19
 55 28 55 28 55 70 c 0,20,21
 55 76 55 76 55.5 82.5 c 128,-1,22
 56 89 56 89 58 98 c 0,23,24
 63 119 63 119 63 120 c 0,25,26
 64 123 64 123 71 153 c 2,27,-1
 137 420 l 1,28,-1
 48 420 l 1,29,-1
 48 450 l 1,0,-1
EndSplineSet
EndChar

StartChar: IJ
Encoding: 306 306 244
Width: 830
Flags: W
LayerCount: 2
Fore
SplineSet
552 754 m 1,0,-1
 881 754 l 1,1,-1
 881 724 l 1,2,-1
 807 724 l 1,3,-1
 686 142 l 2,4,5
 671 71 671 71 643.5 21.5 c 128,-1,6
 616 -28 616 -28 581.5 -59 c 128,-1,7
 547 -90 547 -90 507.5 -104.5 c 128,-1,8
 468 -119 468 -119 431 -119 c 0,9,10
 397 -119 397 -119 370.5 -109 c 128,-1,11
 344 -99 344 -99 326 -82.5 c 128,-1,12
 308 -66 308 -66 298.5 -44.5 c 128,-1,13
 289 -23 289 -23 289 0 c 1,14,-1
 -7 0 l 1,15,-1
 -7 31 l 1,16,-1
 66 31 l 1,17,-1
 217 724 l 1,18,-1
 144 724 l 1,19,-1
 144 754 l 1,20,-1
 443 754 l 1,21,-1
 443 724 l 1,22,-1
 368 724 l 1,23,-1
 214 31 l 1,24,-1
 295 31 l 1,25,26
 303 53 303 53 321 68.5 c 128,-1,27
 339 84 339 84 366 84 c 0,28,29
 394 84 394 84 415.5 65.5 c 128,-1,30
 437 47 437 47 437 12 c 0,31,32
 437 -4 437 -4 432.5 -15.5 c 128,-1,33
 428 -27 428 -27 423 -36 c 128,-1,34
 418 -45 418 -45 413.5 -52 c 128,-1,35
 409 -59 409 -59 409 -65 c 0,36,37
 409 -73 409 -73 415 -78 c 128,-1,38
 421 -83 421 -83 435 -83 c 0,39,40
 445 -83 445 -83 454 -78.5 c 128,-1,41
 463 -74 463 -74 471.5 -61.5 c 128,-1,42
 480 -49 480 -49 488 -26 c 128,-1,43
 496 -3 496 -3 504 34 c 2,44,-1
 655 724 l 1,45,-1
 552 724 l 1,46,-1
 552 754 l 1,0,-1
EndSplineSet
Validated: 1
EndChar

StartChar: ij
Encoding: 307 307 245
Width: 617
Flags: W
LayerCount: 2
Fore
SplineSet
48 450 m 1,0,-1
 279 450 l 1,1,-1
 195 87 l 2,2,3
 192 73 192 73 191 65 c 128,-1,4
 190 57 190 57 190 54 c 0,5,6
 190 37 190 37 203 37 c 0,7,8
 211 37 211 37 223 43 c 128,-1,9
 235 49 235 49 249.5 62.5 c 128,-1,10
 264 76 264 76 279.5 99 c 128,-1,11
 295 122 295 122 310 156 c 1,12,-1
 335 147 l 1,13,14
 307 65 307 65 259 27 c 128,-1,15
 211 -11 211 -11 142 -11 c 0,16,17
 103 -11 103 -11 79 8.5 c 128,-1,18
 55 28 55 28 55 70 c 0,19,20
 55 76 55 76 55.5 82.5 c 128,-1,21
 56 89 56 89 58 98 c 128,-1,22
 60 107 60 107 63 120 c 128,-1,23
 66 133 66 133 71 153 c 2,24,-1
 137 420 l 1,25,-1
 48 420 l 1,26,-1
 48 450 l 1,0,-1
167 656 m 256,27,28
 167 689 167 689 190 712 c 128,-1,29
 213 735 213 735 246 735 c 256,30,31
 279 735 279 735 302 712 c 128,-1,32
 325 689 325 689 325 656 c 256,33,34
 325 623 325 623 302 600 c 128,-1,35
 279 577 279 577 246 577 c 256,36,37
 213 577 213 577 190 600 c 128,-1,38
 167 623 167 623 167 656 c 256,27,28
373 450 m 1,39,-1
 604 450 l 1,40,-1
 503 -3 l 2,41,42
 482 -98 482 -98 452.5 -160 c 128,-1,43
 423 -222 423 -222 389.5 -258.5 c 128,-1,44
 356 -295 356 -295 321.5 -309.5 c 128,-1,45
 287 -324 287 -324 255 -324 c 0,46,47
 232 -324 232 -324 211 -317.5 c 128,-1,48
 190 -311 190 -311 174.5 -300 c 128,-1,49
 159 -289 159 -289 150 -273 c 128,-1,50
 141 -257 141 -257 141 -237 c 0,51,52
 141 -211 141 -211 157.5 -195.5 c 128,-1,53
 174 -180 174 -180 203 -180 c 0,54,55
 229 -180 229 -180 244 -193.5 c 128,-1,56
 259 -207 259 -207 259 -236 c 0,57,58
 259 -248 259 -248 257 -256.5 c 128,-1,59
 255 -265 255 -265 255 -272 c 0,60,61
 255 -278 255 -278 258.5 -282.5 c 128,-1,62
 262 -287 262 -287 271 -287 c 0,63,64
 275 -287 275 -287 281.5 -283.5 c 128,-1,65
 288 -280 288 -280 296.5 -262.5 c 128,-1,66
 305 -245 305 -245 316.5 -209.5 c 128,-1,67
 328 -174 328 -174 342 -110 c 2,68,-1
 460 420 l 1,69,-1
 373 420 l 1,70,-1
 373 450 l 1,39,-1
487 656 m 256,71,72
 487 689 487 689 510 712 c 128,-1,73
 533 735 533 735 566 735 c 256,74,75
 599 735 599 735 622 712 c 128,-1,76
 645 689 645 689 645 656 c 256,77,78
 645 623 645 623 622 600 c 128,-1,79
 599 577 599 577 566 577 c 256,80,81
 533 577 533 577 510 600 c 128,-1,82
 487 623 487 623 487 656 c 256,71,72
EndSplineSet
Validated: 1
EndChar

StartChar: kgreenlandic
Encoding: 312 312 250
Width: 565
Flags: W
LayerCount: 2
Fore
SplineSet
230 252 m 1,0,1
 245 259 245 259 264 262 c 128,-1,2
 283 265 283 265 296 265 c 1,3,4
 323 295 323 295 341 329.5 c 128,-1,5
 359 364 359 364 377 393.5 c 128,-1,6
 395 423 395 423 418 442.5 c 128,-1,7
 441 462 441 462 478 462 c 0,8,9
 501 462 501 462 517 455 c 128,-1,10
 533 448 533 448 543 438 c 128,-1,11
 553 428 553 428 557.5 415.5 c 128,-1,12
 562 403 562 403 562 393 c 0,13,14
 562 366 562 366 547 345.5 c 128,-1,15
 532 325 532 325 501 325 c 0,16,17
 477 325 477 325 460.5 337 c 128,-1,18
 444 349 444 349 444 375 c 0,19,20
 444 383 444 383 445 390 c 128,-1,21
 446 397 446 397 446 402 c 0,22,23
 446 414 446 414 438 414 c 0,24,25
 428 414 428 414 414 395 c 128,-1,26
 400 376 400 376 385.5 350.5 c 128,-1,27
 371 325 371 325 356.5 298.5 c 128,-1,28
 342 272 342 272 330 258 c 1,29,30
 366 247 366 247 387.5 233 c 128,-1,31
 409 219 409 219 420.5 204 c 128,-1,32
 432 189 432 189 436 173.5 c 128,-1,33
 440 158 440 158 440 142 c 2,34,-1
 440 64 l 2,35,36
 440 50 440 50 443.5 44.5 c 128,-1,37
 447 39 447 39 455 39 c 0,38,39
 472 39 472 39 494.5 65 c 128,-1,40
 517 91 517 91 540 145 c 1,41,-1
 567 132 l 1,42,43
 532 57 532 57 491 22 c 128,-1,44
 450 -13 450 -13 400 -13 c 0,45,46
 381 -13 381 -13 363 -8 c 128,-1,47
 345 -3 345 -3 330.5 8 c 128,-1,48
 316 19 316 19 307.5 36 c 128,-1,49
 299 53 299 53 299 77 c 0,50,51
 299 94 299 94 303 110 c 128,-1,52
 307 126 307 126 311.5 142 c 128,-1,53
 316 158 316 158 320 173 c 128,-1,54
 324 188 324 188 324 203 c 0,55,56
 324 224 324 224 309 234 c 1,57,58
 296 221 296 221 278.5 214 c 128,-1,59
 261 207 261 207 245 207 c 0,60,61
 238 207 238 207 232 207.5 c 128,-1,62
 226 208 226 208 220 212 c 1,63,-1
 168 0 l 1,64,-1
 35 0 l 1,65,-1
 136 420 l 1,66,-1
 49 420 l 1,67,-1
 49 450 l 1,68,-1
 280 450 l 1,69,-1
 230 252 l 1,0,1
EndSplineSet
Validated: 1
EndChar

StartChar: Lslash
Encoding: 321 321 259
Width: 626
Flags: W
LayerCount: 2
Fore
SplineSet
107 754 m 1,0,-1
 486 754 l 1,1,-1
 486 724 l 1,2,-1
 371 724 l 1,3,-1
 303 419 l 1,4,-1
 463 503 l 1,5,-1
 452 453 l 1,6,-1
 292 369 l 1,7,-1
 216 30 l 1,8,-1
 344 30 l 2,9,10
 374 30 374 30 404 40 c 128,-1,11
 434 50 434 50 464 73.5 c 128,-1,12
 494 97 494 97 523 135.5 c 128,-1,13
 552 174 552 174 581 232 c 1,14,-1
 621 232 l 1,15,-1
 561 0 l 1,16,-1
 -29 0 l 1,17,-1
 -29 30 l 1,18,-1
 69 30 l 1,19,-1
 124 282 l 1,20,-1
 18 227 l 1,21,-1
 29 277 l 1,22,-1
 135 332 l 1,23,-1
 220 724 l 1,24,-1
 107 724 l 1,25,-1
 107 754 l 1,0,-1
EndSplineSet
Validated: 1
EndChar

StartChar: lslash
Encoding: 322 322 260
Width: 312
Flags: W
LayerCount: 2
Fore
SplineSet
118 754 m 1,0,-1
 330 754 l 1,1,-1
 257 449 l 1,2,-1
 342 489 l 1,3,-1
 331 439 l 1,4,-1
 245 398 l 1,5,-1
 171 87 l 2,6,7
 168 74 168 74 167 65.5 c 128,-1,8
 166 57 166 57 166 54 c 0,9,10
 166 41 166 41 178 41 c 0,11,12
 192 41 192 41 216.5 66.5 c 128,-1,13
 241 92 241 92 266 161 c 1,14,-1
 291 152 l 1,15,16
 266 70 266 70 224 29.5 c 128,-1,17
 182 -11 182 -11 131 -11 c 0,18,19
 88 -11 88 -11 68 12.5 c 128,-1,20
 48 36 48 36 48 67 c 0,21,22
 48 79 48 79 50.5 96.5 c 128,-1,23
 53 114 53 114 57 132 c 2,24,-1
 101 330 l 1,25,-1
 -10 278 l 1,26,-1
 1 328 l 1,27,-1
 112 380 l 1,28,-1
 189 724 l 1,29,-1
 118 724 l 1,30,-1
 118 754 l 1,0,-1
EndSplineSet
Validated: 1
EndChar

StartChar: Eng
Encoding: 330 330 268
Width: 751
Flags: W
LayerCount: 2
Fore
SplineSet
127 754 m 1,0,-1
 384 754 l 1,1,-1
 619 337 l 1,2,-1
 623 337 l 1,3,-1
 708 724 l 1,4,-1
 612 724 l 1,5,-1
 612 754 l 1,6,-1
 830 754 l 1,7,-1
 830 724 l 1,8,-1
 748 724 l 1,9,-1
 594 16 l 2,10,11
 586 -20 586 -20 574 -52 c 128,-1,12
 562 -84 562 -84 545 -107 c 128,-1,13
 528 -130 528 -130 504.5 -143.5 c 128,-1,14
 481 -157 481 -157 451 -157 c 0,15,16
 424 -157 424 -157 402 -146.5 c 128,-1,17
 380 -136 380 -136 364.5 -119.5 c 128,-1,18
 349 -103 349 -103 341 -82 c 128,-1,19
 333 -61 333 -61 333 -41 c 0,20,21
 333 -25 333 -25 338 -9.5 c 128,-1,22
 343 6 343 6 353 18.5 c 128,-1,23
 363 31 363 31 377.5 38.5 c 128,-1,24
 392 46 392 46 410 46 c 0,25,26
 438 46 438 46 459.5 27.5 c 128,-1,27
 481 9 481 9 481 -26 c 0,28,29
 481 -45 481 -45 475 -54.5 c 128,-1,30
 469 -64 469 -64 462 -69.5 c 128,-1,31
 455 -75 455 -75 449 -80 c 128,-1,32
 443 -85 443 -85 443 -95 c 0,33,34
 443 -103 443 -103 449 -108.5 c 128,-1,35
 455 -114 455 -114 471 -114 c 0,36,37
 481 -114 481 -114 491.5 -109.5 c 128,-1,38
 502 -105 502 -105 512 -92.5 c 128,-1,39
 522 -80 522 -80 531 -58.5 c 128,-1,40
 540 -37 540 -37 548 -4 c 2,41,-1
 560 52 l 1,42,-1
 255 637 l 1,43,-1
 251 637 l 1,44,-1
 252 645 l 1,45,-1
 118 30 l 1,46,-1
 222 30 l 1,47,-1
 222 0 l 1,48,-1
 -15 0 l 1,49,-1
 -15 30 l 1,50,-1
 78 30 l 1,51,-1
 229 724 l 1,52,-1
 127 724 l 1,53,-1
 127 754 l 1,0,-1
EndSplineSet
Validated: 1
EndChar

StartChar: eng
Encoding: 331 331 269
Width: 575
Flags: W
LayerCount: 2
Fore
SplineSet
49 450 m 1,0,-1
 280 450 l 1,1,-1
 255 351 l 1,2,-1
 262 351 l 1,3,4
 277 372 277 372 295.5 392 c 128,-1,5
 314 412 314 412 336.5 427.5 c 128,-1,6
 359 443 359 443 385.5 452.5 c 128,-1,7
 412 462 412 462 442 462 c 0,8,9
 462 462 462 462 480.5 457.5 c 128,-1,10
 499 453 499 453 513 443 c 128,-1,11
 527 433 527 433 535.5 418 c 128,-1,12
 544 403 544 403 544 382 c 0,13,14
 544 363 544 363 538 338 c 2,15,-1
 461 -3 l 2,16,17
 440 -98 440 -98 410.5 -160 c 128,-1,18
 381 -222 381 -222 347.5 -258.5 c 128,-1,19
 314 -295 314 -295 279.5 -309.5 c 128,-1,20
 245 -324 245 -324 213 -324 c 0,21,22
 190 -324 190 -324 169 -317.5 c 128,-1,23
 148 -311 148 -311 132.5 -300 c 128,-1,24
 117 -289 117 -289 108 -273 c 128,-1,25
 99 -257 99 -257 99 -237 c 0,26,27
 99 -211 99 -211 115.5 -195.5 c 128,-1,28
 132 -180 132 -180 161 -180 c 0,29,30
 187 -180 187 -180 202 -193.5 c 128,-1,31
 217 -207 217 -207 217 -236 c 0,32,33
 217 -248 217 -248 215 -256.5 c 128,-1,34
 213 -265 213 -265 213 -272 c 0,35,36
 213 -278 213 -278 216.5 -282.5 c 128,-1,37
 220 -287 220 -287 231 -287 c 0,38,39
 234 -287 234 -287 239.5 -284 c 128,-1,40
 245 -281 245 -281 253.5 -264 c 128,-1,41
 262 -247 262 -247 273.5 -211.5 c 128,-1,42
 285 -176 285 -176 300 -110 c 2,43,-1
 405 356 l 2,44,45
 407 363 407 363 408.5 374.5 c 128,-1,46
 410 386 410 386 410 394 c 0,47,48
 410 416 410 416 391 416 c 0,49,50
 378 416 378 416 356.5 404 c 128,-1,51
 335 392 335 392 311 370.5 c 128,-1,52
 287 349 287 349 264.5 318 c 128,-1,53
 242 287 242 287 229 248 c 2,54,-1
 168 0 l 1,55,-1
 35 0 l 1,56,-1
 136 420 l 1,57,-1
 49 420 l 1,58,-1
 49 450 l 1,0,-1
EndSplineSet
Validated: 1
EndChar

StartChar: OE
Encoding: 338 338 276
Width: 1114
Flags: W
LayerCount: 2
Fore
SplineSet
335 0 m 2,0,1
 272 0 272 0 222 23.5 c 128,-1,2
 172 47 172 47 137 86.5 c 128,-1,3
 102 126 102 126 83.5 177.5 c 128,-1,4
 65 229 65 229 65 286 c 0,5,6
 65 342 65 342 82.5 398.5 c 128,-1,7
 100 455 100 455 130.5 507.5 c 128,-1,8
 161 560 161 560 203 605 c 128,-1,9
 245 650 245 650 294 683.5 c 128,-1,10
 343 717 343 717 397 736 c 128,-1,11
 451 755 451 755 507 755 c 0,12,13
 615 755 615 755 698.5 755 c 128,-1,14
 782 755 782 755 855.5 754.5 c 128,-1,15
 929 754 929 754 999 754 c 128,-1,16
 1069 754 1069 754 1149 754 c 1,17,-1
 1113 548 l 1,18,-1
 1073 548 l 1,19,20
 1073 600 1073 600 1065.5 634 c 128,-1,21
 1058 668 1058 668 1039 688 c 128,-1,22
 1020 708 1020 708 989 716 c 128,-1,23
 958 724 958 724 912 724 c 2,24,-1
 811 724 l 1,25,-1
 739 404 l 1,26,-1
 786 404 l 2,27,28
 837 404 837 404 873 434 c 128,-1,29
 909 464 909 464 932 535 c 1,30,-1
 967 535 l 1,31,-1
 902 227 l 1,32,-1
 868 227 l 1,33,34
 868 272 868 272 861 301 c 128,-1,35
 854 330 854 330 841.5 346 c 128,-1,36
 829 362 829 362 810.5 368 c 128,-1,37
 792 374 792 374 770 374 c 2,38,-1
 733 374 l 1,39,-1
 656 30 l 1,40,-1
 814 30 l 2,41,42
 847 30 847 30 876 38.5 c 128,-1,43
 905 47 905 47 932 69.5 c 128,-1,44
 959 92 959 92 985.5 131 c 128,-1,45
 1012 170 1012 170 1041 232 c 1,46,-1
 1081 232 l 1,47,-1
 1021 0 l 1,48,-1
 335 0 l 2,0,1
331 32 m 0,49,50
 383 32 383 32 423.5 62 c 128,-1,51
 464 92 464 92 495 141 c 128,-1,52
 526 190 526 190 547.5 251 c 128,-1,53
 569 312 569 312 583 374.5 c 128,-1,54
 597 437 597 437 603 494 c 128,-1,55
 609 551 609 551 609 591 c 0,56,57
 609 618 609 618 605.5 641.5 c 128,-1,58
 602 665 602 665 591.5 683 c 128,-1,59
 581 701 581 701 561.5 711.5 c 128,-1,60
 542 722 542 722 511 722 c 0,61,62
 459 722 459 722 418 691.5 c 128,-1,63
 377 661 377 661 346.5 612.5 c 128,-1,64
 316 564 316 564 294 503 c 128,-1,65
 272 442 272 442 258.5 381 c 128,-1,66
 245 320 245 320 239 264 c 128,-1,67
 233 208 233 208 233 170 c 0,68,69
 233 92 233 92 259 62 c 128,-1,70
 285 32 285 32 331 32 c 0,49,50
EndSplineSet
Validated: 1
EndChar

StartChar: oe
Encoding: 339 339 277
Width: 836
Flags: W
LayerCount: 2
Fore
SplineSet
223 -13 m 0,0,1
 179 -13 179 -13 142.5 0.5 c 128,-1,2
 106 14 106 14 79.5 38.5 c 128,-1,3
 53 63 53 63 38 97 c 128,-1,4
 23 131 23 131 23 171 c 0,5,6
 23 225 23 225 49.5 277.5 c 128,-1,7
 76 330 76 330 119.5 371 c 128,-1,8
 163 412 163 412 218.5 437 c 128,-1,9
 274 462 274 462 332 462 c 0,10,11
 378 462 378 462 417.5 445.5 c 128,-1,12
 457 429 457 429 485 398 c 1,13,14
 525 429 525 429 568.5 445.5 c 128,-1,15
 612 462 612 462 657 462 c 0,16,17
 691 462 691 462 720 452.5 c 128,-1,18
 749 443 749 443 770 426 c 128,-1,19
 791 409 791 409 803 385.5 c 128,-1,20
 815 362 815 362 815 335 c 0,21,22
 815 304 815 304 799 278.5 c 128,-1,23
 783 253 783 253 754.5 234.5 c 128,-1,24
 726 216 726 216 685 206 c 128,-1,25
 644 196 644 196 595 196 c 0,26,27
 582 196 582 196 563.5 197 c 128,-1,28
 545 198 545 198 520 200 c 1,29,30
 514 171 514 171 510.5 152.5 c 128,-1,31
 507 134 507 134 505 122 c 128,-1,32
 503 110 503 110 502.5 103.5 c 128,-1,33
 502 97 502 97 502 92 c 0,34,35
 502 58 502 58 518 43.5 c 128,-1,36
 534 29 534 29 574 29 c 0,37,38
 692 29 692 29 774 148 c 1,39,-1
 799 129 l 1,40,41
 757 62 757 62 695.5 25.5 c 128,-1,42
 634 -11 634 -11 562 -11 c 0,43,44
 514 -11 514 -11 475 5 c 128,-1,45
 436 21 436 21 410 53 c 1,46,47
 367 21 367 21 319 4 c 128,-1,48
 271 -13 271 -13 223 -13 c 0,0,1
224 22 m 0,49,50
 256 22 256 22 285 46.5 c 128,-1,51
 314 71 314 71 335.5 113 c 128,-1,52
 357 155 357 155 369.5 210.5 c 128,-1,53
 382 266 382 266 382 328 c 0,54,55
 382 383 382 383 370.5 405 c 128,-1,56
 359 427 359 427 332 427 c 0,57,58
 300 427 300 427 271 401.5 c 128,-1,59
 242 376 242 376 220 333 c 128,-1,60
 198 290 198 290 185.5 234 c 128,-1,61
 173 178 173 178 173 117 c 0,62,63
 173 68 173 68 184 45 c 128,-1,64
 195 22 195 22 224 22 c 0,49,50
565 232 m 2,65,66
 629 232 629 232 665.5 263.5 c 128,-1,67
 702 295 702 295 702 352 c 0,68,69
 702 388 702 388 687 410 c 128,-1,70
 672 432 672 432 646 432 c 0,71,72
 610 432 610 432 580.5 383.5 c 128,-1,73
 551 335 551 335 527 232 c 1,74,-1
 565 232 l 2,65,66
EndSplineSet
Validated: 1
EndChar

StartChar: Tbar
Encoding: 358 358 297
Width: 701
Flags: W
LayerCount: 2
Fore
SplineSet
160 754 m 1,0,-1
 774 754 l 1,1,-1
 741 513 l 1,2,-1
 706 513 l 1,3,4
 706 576 706 576 700.5 616.5 c 128,-1,5
 695 657 695 657 679.5 681 c 128,-1,6
 664 705 664 705 636.5 714.5 c 128,-1,7
 609 724 609 724 565 724 c 2,8,-1
 538 724 l 1,9,-1
 477 451 l 1,10,-1
 603 451 l 1,11,-1
 603 406 l 1,12,-1
 467 406 l 1,13,-1
 384 31 l 1,14,-1
 512 31 l 1,15,-1
 512 0 l 1,16,-1
 133 0 l 1,17,-1
 133 31 l 1,18,-1
 236 31 l 1,19,-1
 317 406 l 1,20,-1
 188 406 l 1,21,-1
 188 451 l 1,22,-1
 327 451 l 1,23,-1
 387 724 l 1,24,-1
 344 724 l 2,25,26
 286 724 286 724 226 673 c 128,-1,27
 166 622 166 622 123 513 c 1,28,-1
 88 513 l 1,29,-1
 160 754 l 1,0,-1
EndSplineSet
EndChar

StartChar: tbar
Encoding: 359 359 298
Width: 348
Flags: W
LayerCount: 2
Fore
SplineSet
64 450 m 1,0,-1
 131 450 l 1,1,-1
 159 574 l 1,2,-1
 293 574 l 1,3,-1
 264 450 l 1,4,-1
 360 450 l 1,5,-1
 360 420 l 1,6,-1
 257 420 l 1,7,-1
 232 312 l 1,8,-1
 332 312 l 1,9,-1
 332 277 l 1,10,-1
 224 277 l 1,11,-1
 181 87 l 2,12,13
 178 74 178 74 177 66 c 128,-1,14
 176 58 176 58 176 55 c 0,15,16
 176 36 176 36 196 36 c 0,17,18
 215 36 215 36 245.5 61 c 128,-1,19
 276 86 276 86 307 151 c 1,20,-1
 332 142 l 1,21,22
 317 104 317 104 296 75 c 128,-1,23
 275 46 275 46 250 27 c 128,-1,24
 225 8 225 8 196.5 -1.5 c 128,-1,25
 168 -11 168 -11 140 -11 c 0,26,27
 91 -11 91 -11 70.5 12.5 c 128,-1,28
 50 36 50 36 50 66 c 0,29,30
 50 80 50 80 53 99 c 128,-1,31
 56 118 56 118 59 132 c 2,32,-1
 91 277 l 1,33,-1
 39 277 l 1,34,-1
 39 312 l 1,35,-1
 99 312 l 1,36,-1
 124 420 l 1,37,-1
 64 420 l 1,38,-1
 64 450 l 1,0,-1
EndSplineSet
EndChar

StartChar: Schwa
Encoding: 399 399 322
Width: 749
Flags: W
LayerCount: 2
Fore
SplineSet
290 -11 m 0,0,1
 237 -11 237 -11 190 3.5 c 128,-1,2
 143 18 143 18 108.5 44.5 c 128,-1,3
 74 71 74 71 54 108 c 128,-1,4
 34 145 34 145 34 191 c 0,5,6
 34 239 34 239 56.5 283.5 c 128,-1,7
 79 328 79 328 124 363 c 128,-1,8
 169 398 169 398 235.5 419 c 128,-1,9
 302 440 302 440 390 440 c 0,10,11
 411 440 411 440 435.5 438.5 c 128,-1,12
 460 437 460 437 484 435 c 128,-1,13
 508 433 508 433 530 431 c 128,-1,14
 552 429 552 429 570 427 c 1,15,16
 574 453 574 453 575.5 477.5 c 128,-1,17
 577 502 577 502 577 527 c 0,18,19
 577 577 577 577 569.5 610 c 128,-1,20
 562 643 562 643 545 662.5 c 128,-1,21
 528 682 528 682 501.5 689.5 c 128,-1,22
 475 697 475 697 437 697 c 0,23,24
 396 697 396 697 357.5 688 c 128,-1,25
 319 679 319 679 283 656.5 c 128,-1,26
 247 634 247 634 212 596 c 128,-1,27
 177 558 177 558 142 500 c 1,28,-1
 101 532 l 1,29,30
 160 640 160 640 248.5 701.5 c 128,-1,31
 337 763 337 763 449 763 c 0,32,33
 521 763 521 763 576.5 737 c 128,-1,34
 632 711 632 711 669.5 668 c 128,-1,35
 707 625 707 625 726 569 c 128,-1,36
 745 513 745 513 745 453 c 0,37,38
 745 367 745 367 708 283.5 c 128,-1,39
 671 200 671 200 608.5 134.5 c 128,-1,40
 546 69 546 69 463.5 29 c 128,-1,41
 381 -11 381 -11 290 -11 c 0,0,1
307 23 m 0,42,43
 355 23 355 23 396 52.5 c 128,-1,44
 437 82 437 82 469.5 131.5 c 128,-1,45
 502 181 502 181 525.5 244 c 128,-1,46
 549 307 549 307 562 375 c 1,47,48
 540 379 540 379 511.5 379.5 c 128,-1,49
 483 380 483 380 441 380 c 0,50,51
 378 380 378 380 333 363 c 128,-1,52
 288 346 288 346 259 316 c 128,-1,53
 230 286 230 286 216.5 246 c 128,-1,54
 203 206 203 206 203 160 c 0,55,56
 203 97 203 97 228 60 c 128,-1,57
 253 23 253 23 307 23 c 0,42,43
EndSplineSet
EndChar

StartChar: florin
Encoding: 402 402 323
Width: 455
Flags: W
LayerCount: 2
Fore
SplineSet
83 440 m 1,0,-1
 173 440 l 1,1,2
 191 524 191 524 222 583.5 c 128,-1,3
 253 643 253 643 290.5 681 c 128,-1,4
 328 719 328 719 369.5 736.5 c 128,-1,5
 411 754 411 754 451 754 c 0,6,7
 475 754 475 754 498.5 748 c 128,-1,8
 522 742 522 742 540.5 729.5 c 128,-1,9
 559 717 559 717 570.5 698 c 128,-1,10
 582 679 582 679 582 654 c 0,11,12
 582 625 582 625 565 606.5 c 128,-1,13
 548 588 548 588 515 588 c 0,14,15
 483 588 483 588 469 604.5 c 128,-1,16
 455 621 455 621 455 643 c 0,17,18
 455 655 455 655 458.5 664.5 c 128,-1,19
 462 674 462 674 466 681 c 128,-1,20
 470 688 470 688 473.5 694 c 128,-1,21
 477 700 477 700 477 705 c 0,22,23
 477 713 477 713 468.5 718.5 c 128,-1,24
 460 724 460 724 445 724 c 0,25,26
 427 724 427 724 411 713.5 c 128,-1,27
 395 703 395 703 381.5 677 c 128,-1,28
 368 651 368 651 356 608 c 128,-1,29
 344 565 344 565 333 501 c 2,30,-1
 322 440 l 1,31,-1
 444 440 l 1,32,-1
 444 391 l 1,33,-1
 314 391 l 1,34,-1
 256 45 l 2,35,36
 237 -66 237 -66 204.5 -135.5 c 128,-1,37
 172 -205 172 -205 134.5 -245 c 128,-1,38
 97 -285 97 -285 57.5 -299.5 c 128,-1,39
 18 -314 18 -314 -14 -314 c 0,40,41
 -35 -314 -35 -314 -58.5 -309 c 128,-1,42
 -82 -304 -82 -304 -101.5 -294 c 128,-1,43
 -121 -284 -121 -284 -134 -268 c 128,-1,44
 -147 -252 -147 -252 -147 -230 c 0,45,46
 -147 -204 -147 -204 -128 -188.5 c 128,-1,47
 -109 -173 -109 -173 -80 -173 c 0,48,49
 -60 -173 -60 -173 -43 -188 c 128,-1,50
 -26 -203 -26 -203 -26 -230 c 0,51,52
 -26 -236 -26 -236 -29 -247.5 c 128,-1,53
 -32 -259 -32 -259 -32 -265 c 0,54,55
 -32 -273 -32 -273 -27 -278.5 c 128,-1,56
 -22 -284 -22 -284 -8 -284 c 0,57,58
 26 -284 26 -284 50 -252 c 128,-1,59
 74 -220 74 -220 86 -140 c 2,60,-1
 164 387 l 1,61,-1
 164 391 l 1,62,-1
 83 391 l 1,63,-1
 83 440 l 1,0,-1
EndSplineSet
EndChar

StartChar: uni01C4
Encoding: 452 452 324
Width: 1439
Flags: W
LayerCount: 2
Fore
SplineSet
748 438 m 0,0,1
 748 352 748 352 716.5 273 c 128,-1,2
 685 194 685 194 628.5 133 c 128,-1,3
 572 72 572 72 494.5 36 c 128,-1,4
 417 0 417 0 325 0 c 2,5,-1
 -41 0 l 1,6,-1
 -41 32 l 1,7,-1
 55 32 l 1,8,-1
 205 724 l 1,9,-1
 100 724 l 1,10,-1
 100 754 l 1,11,-1
 436 754 l 2,12,13
 591 754 591 754 669.5 669.5 c 128,-1,14
 748 585 748 585 748 438 c 0,0,1
356 724 m 1,15,-1
 202 32 l 1,16,-1
 296 32 l 2,17,18
 363 32 363 32 417 65.5 c 128,-1,19
 471 99 471 99 509.5 161.5 c 128,-1,20
 548 224 548 224 569 314 c 128,-1,21
 590 404 590 404 590 518 c 0,22,23
 590 560 590 560 585 597.5 c 128,-1,24
 580 635 580 635 563.5 663 c 128,-1,25
 547 691 547 691 515 707.5 c 128,-1,26
 483 724 483 724 429 724 c 2,27,-1
 356 724 l 1,15,-1
769 30 m 1,28,-1
 1313 720 l 1,29,-1
 1313 724 l 1,30,-1
 1162 724 l 2,31,32
 1106 724 1106 724 1049 678 c 128,-1,33
 992 632 992 632 951 533 c 1,34,-1
 916 533 l 1,35,-1
 978 754 l 1,36,-1
 1490 754 l 1,37,-1
 1490 724 l 1,38,-1
 960 35 l 1,39,-1
 960 30 l 1,40,-1
 1119 30 l 2,41,42
 1152 30 1152 30 1181 38.5 c 128,-1,43
 1210 47 1210 47 1237 69.5 c 128,-1,44
 1264 92 1264 92 1290.5 131 c 128,-1,45
 1317 170 1317 170 1346 232 c 1,46,-1
 1386 232 l 1,47,-1
 1326 0 l 1,48,-1
 769 0 l 1,49,-1
 769 30 l 1,28,-1
1164 923 m 1,50,-1
 1286 878 l 1,51,-1
 1428 923 l 1,52,-1
 1474 923 l 1,53,-1
 1296 791 l 1,54,-1
 1240 791 l 1,55,-1
 1117 923 l 1,56,-1
 1164 923 l 1,50,-1
EndSplineSet
EndChar

StartChar: uni01C5
Encoding: 453 453 325
Width: 1264
Flags: W
LayerCount: 2
Fore
SplineSet
748 438 m 0,0,1
 748 352 748 352 716.5 273 c 128,-1,2
 685 194 685 194 628.5 133 c 128,-1,3
 572 72 572 72 494.5 36 c 128,-1,4
 417 0 417 0 325 0 c 2,5,-1
 -41 0 l 1,6,-1
 -41 32 l 1,7,-1
 55 32 l 1,8,-1
 205 724 l 1,9,-1
 100 724 l 1,10,-1
 100 754 l 1,11,-1
 436 754 l 2,12,13
 591 754 591 754 669.5 669.5 c 128,-1,14
 748 585 748 585 748 438 c 0,0,1
356 724 m 1,15,-1
 202 32 l 1,16,-1
 296 32 l 2,17,18
 363 32 363 32 417 65.5 c 128,-1,19
 471 99 471 99 509.5 161.5 c 128,-1,20
 548 224 548 224 569 314 c 128,-1,21
 590 404 590 404 590 518 c 0,22,23
 590 560 590 560 585 597.5 c 128,-1,24
 580 635 580 635 563.5 663 c 128,-1,25
 547 691 547 691 515 707.5 c 128,-1,26
 483 724 483 724 429 724 c 2,27,-1
 356 724 l 1,15,-1
824 264 m 1,28,-1
 911 450 l 1,29,-1
 936 450 l 1,30,31
 990 433 990 433 1057.5 425 c 128,-1,32
 1125 417 1125 417 1193 417 c 0,33,34
 1201 417 1201 417 1203 424 c 128,-1,35
 1205 431 1205 431 1207.5 439.5 c 128,-1,36
 1210 448 1210 448 1215.5 455 c 128,-1,37
 1221 462 1221 462 1236 462 c 0,38,39
 1262 462 1262 462 1262 440 c 0,40,41
 1262 420 1262 420 1237 399 c 2,42,-1
 929 142 l 1,43,-1
 929 138 l 1,44,45
 987 138 987 138 1023.5 132.5 c 128,-1,46
 1060 127 1060 127 1083 120.5 c 128,-1,47
 1106 114 1106 114 1120.5 108.5 c 128,-1,48
 1135 103 1135 103 1149 103 c 0,49,50
 1171 103 1171 103 1180 115.5 c 128,-1,51
 1189 128 1189 128 1189 136 c 0,52,53
 1189 145 1189 145 1178 148 c 128,-1,54
 1167 151 1167 151 1154.5 154.5 c 128,-1,55
 1142 158 1142 158 1131 166 c 128,-1,56
 1120 174 1120 174 1120 194 c 0,57,58
 1120 217 1120 217 1135 228 c 128,-1,59
 1150 239 1150 239 1168 239 c 0,60,61
 1194 239 1194 239 1208 218 c 128,-1,62
 1222 197 1222 197 1222 162 c 0,63,64
 1222 130 1222 130 1210 99 c 128,-1,65
 1198 68 1198 68 1176.5 43 c 128,-1,66
 1155 18 1155 18 1125.5 2.5 c 128,-1,67
 1096 -13 1096 -13 1060 -13 c 0,68,69
 1031 -13 1031 -13 1005 -3.5 c 128,-1,70
 979 6 979 6 954.5 17 c 128,-1,71
 930 28 930 28 906.5 37.5 c 128,-1,72
 883 47 883 47 859 47 c 0,73,74
 853 47 853 47 850 45.5 c 128,-1,75
 847 44 847 44 847 38 c 0,76,77
 847 33 847 33 848.5 26.5 c 128,-1,78
 850 20 850 20 850 14 c 0,79,80
 850 2 850 2 841 -5.5 c 128,-1,81
 832 -13 832 -13 817 -13 c 0,82,83
 799 -13 799 -13 789 -3 c 128,-1,84
 779 7 779 7 779 24 c 0,85,86
 779 31 779 31 781.5 38.5 c 128,-1,87
 784 46 784 46 791.5 56 c 128,-1,88
 799 66 799 66 812.5 79.5 c 128,-1,89
 826 93 826 93 849 112 c 2,90,-1
 1111 333 l 1,91,-1
 1109 336 l 1,92,93
 1071 325 1071 325 1033 320 c 128,-1,94
 995 315 995 315 968 315 c 0,95,96
 946 315 946 315 927 316.5 c 128,-1,97
 908 318 908 318 888 326 c 1,98,-1
 851 253 l 1,99,-1
 824 264 l 1,28,-1
1299 754 m 1,100,-1
 1105 554 l 1,101,-1
 1043 554 l 1,102,-1
 935 754 l 1,103,-1
 978 754 l 1,104,-1
 1098 668 l 1,105,-1
 1256 754 l 1,106,-1
 1299 754 l 1,100,-1
EndSplineSet
EndChar

StartChar: uni01C6
Encoding: 454 454 326
Width: 1103
Flags: W
LayerCount: 2
Fore
SplineSet
396 754 m 1,0,-1
 648 754 l 1,1,-1
 490 87 l 2,2,3
 487 74 487 74 486 65.5 c 128,-1,4
 485 57 485 57 485 54 c 0,5,6
 485 41 485 41 497 41 c 0,7,8
 512 41 512 41 539.5 66.5 c 128,-1,9
 567 92 567 92 595 161 c 1,10,-1
 620 152 l 1,11,12
 610 121 610 121 593.5 91.5 c 128,-1,13
 577 62 577 62 554.5 39.5 c 128,-1,14
 532 17 532 17 503 3 c 128,-1,15
 474 -11 474 -11 440 -11 c 0,16,17
 401 -11 401 -11 377 8.5 c 128,-1,18
 353 28 353 28 353 70 c 1,19,-1
 346 70 l 1,20,21
 336 56 336 56 321.5 41.5 c 128,-1,22
 307 27 307 27 288.5 15.5 c 128,-1,23
 270 4 270 4 247.5 -3.5 c 128,-1,24
 225 -11 225 -11 199 -11 c 0,25,26
 167 -11 167 -11 137.5 1 c 128,-1,27
 108 13 108 13 85.5 35.5 c 128,-1,28
 63 58 63 58 49.5 91.5 c 128,-1,29
 36 125 36 125 36 168 c 0,30,31
 36 226 36 226 60.5 279.5 c 128,-1,32
 85 333 85 333 124.5 373.5 c 128,-1,33
 164 414 164 414 213.5 438 c 128,-1,34
 263 462 263 462 312 462 c 0,35,36
 352 462 352 462 378 444.5 c 128,-1,37
 404 427 404 427 421 389 c 1,38,-1
 425 389 l 1,39,-1
 506 724 l 1,40,-1
 396 724 l 1,41,-1
 396 754 l 1,0,-1
220 30 m 0,42,43
 236 30 236 30 256.5 37.5 c 128,-1,44
 277 45 277 45 298 61.5 c 128,-1,45
 319 78 319 78 338.5 104.5 c 128,-1,46
 358 131 358 131 373 170 c 1,47,-1
 407 311 l 2,48,49
 408 317 408 317 408.5 322.5 c 128,-1,50
 409 328 409 328 409 334 c 0,51,52
 409 353 409 353 402.5 369.5 c 128,-1,53
 396 386 396 386 385 398 c 128,-1,54
 374 410 374 410 360 416.5 c 128,-1,55
 346 423 346 423 332 423 c 0,56,57
 302 423 302 423 274 393.5 c 128,-1,58
 246 364 246 364 224.5 318.5 c 128,-1,59
 203 273 203 273 190.5 217 c 128,-1,60
 178 161 178 161 178 107 c 0,61,62
 178 62 178 62 187.5 46 c 128,-1,63
 197 30 197 30 220 30 c 0,42,43
663 264 m 1,64,-1
 750 450 l 1,65,-1
 775 450 l 1,66,67
 829 433 829 433 896.5 425 c 128,-1,68
 964 417 964 417 1032 417 c 0,69,70
 1040 417 1040 417 1042 424 c 128,-1,71
 1044 431 1044 431 1046.5 439.5 c 128,-1,72
 1049 448 1049 448 1054.5 455 c 128,-1,73
 1060 462 1060 462 1075 462 c 0,74,75
 1101 462 1101 462 1101 440 c 0,76,77
 1101 420 1101 420 1076 399 c 2,78,-1
 768 142 l 1,79,-1
 768 138 l 1,80,81
 826 138 826 138 862.5 132.5 c 128,-1,82
 899 127 899 127 922 120.5 c 128,-1,83
 945 114 945 114 959.5 108.5 c 128,-1,84
 974 103 974 103 988 103 c 0,85,86
 1010 103 1010 103 1019 115.5 c 128,-1,87
 1028 128 1028 128 1028 136 c 0,88,89
 1028 145 1028 145 1017 148 c 128,-1,90
 1006 151 1006 151 993.5 154.5 c 128,-1,91
 981 158 981 158 970 166 c 128,-1,92
 959 174 959 174 959 194 c 0,93,94
 959 217 959 217 974 228 c 128,-1,95
 989 239 989 239 1007 239 c 0,96,97
 1033 239 1033 239 1047 218 c 128,-1,98
 1061 197 1061 197 1061 162 c 0,99,100
 1061 130 1061 130 1049 99 c 128,-1,101
 1037 68 1037 68 1015.5 43 c 128,-1,102
 994 18 994 18 964.5 2.5 c 128,-1,103
 935 -13 935 -13 899 -13 c 0,104,105
 870 -13 870 -13 844 -3.5 c 128,-1,106
 818 6 818 6 793.5 17 c 128,-1,107
 769 28 769 28 745.5 37.5 c 128,-1,108
 722 47 722 47 698 47 c 0,109,110
 692 47 692 47 689 45.5 c 128,-1,111
 686 44 686 44 686 38 c 0,112,113
 686 33 686 33 687.5 26.5 c 128,-1,114
 689 20 689 20 689 14 c 0,115,116
 689 2 689 2 680 -5.5 c 128,-1,117
 671 -13 671 -13 656 -13 c 0,118,119
 638 -13 638 -13 628 -3 c 128,-1,120
 618 7 618 7 618 24 c 0,121,122
 618 31 618 31 620.5 38.5 c 128,-1,123
 623 46 623 46 630.5 56 c 128,-1,124
 638 66 638 66 651.5 79.5 c 128,-1,125
 665 93 665 93 688 112 c 2,126,-1
 950 333 l 1,127,-1
 948 336 l 1,128,129
 910 325 910 325 872 320 c 128,-1,130
 834 315 834 315 807 315 c 0,131,132
 785 315 785 315 766 316.5 c 128,-1,133
 747 318 747 318 727 326 c 1,134,-1
 690 253 l 1,135,-1
 663 264 l 1,64,-1
1138 754 m 1,136,-1
 944 554 l 1,137,-1
 882 554 l 1,138,-1
 774 754 l 1,139,-1
 817 754 l 1,140,-1
 937 668 l 1,141,-1
 1095 754 l 1,142,-1
 1138 754 l 1,136,-1
EndSplineSet
EndChar

StartChar: uni01C7
Encoding: 455 455 327
Width: 1066
Flags: W
LayerCount: 2
Fore
SplineSet
788 754 m 1,0,-1
 1117 754 l 1,1,-1
 1117 724 l 1,2,-1
 1043 724 l 1,3,-1
 922 142 l 2,4,5
 907 71 907 71 879.5 21.5 c 128,-1,6
 852 -28 852 -28 817.5 -59 c 128,-1,7
 783 -90 783 -90 743.5 -104.5 c 128,-1,8
 704 -119 704 -119 667 -119 c 0,9,10
 633 -119 633 -119 606.5 -109 c 128,-1,11
 580 -99 580 -99 562 -82.5 c 128,-1,12
 544 -66 544 -66 534.5 -44.5 c 128,-1,13
 525 -23 525 -23 525 0 c 1,14,-1
 -29 0 l 1,15,-1
 -29 30 l 1,16,-1
 69 30 l 1,17,-1
 220 724 l 1,18,-1
 107 724 l 1,19,-1
 107 754 l 1,20,-1
 486 754 l 1,21,-1
 486 724 l 1,22,-1
 371 724 l 1,23,-1
 216 30 l 1,24,-1
 344 30 l 2,25,26
 374 30 374 30 404 40 c 128,-1,27
 434 50 434 50 464 73.5 c 128,-1,28
 494 97 494 97 523 135.5 c 128,-1,29
 552 174 552 174 581 232 c 1,30,-1
 621 232 l 1,31,-1
 582 81 l 1,32,33
 587 82 587 82 592 83 c 128,-1,34
 597 84 597 84 602 84 c 0,35,36
 630 84 630 84 651.5 65.5 c 128,-1,37
 673 47 673 47 673 12 c 0,38,39
 673 -4 673 -4 668.5 -15.5 c 128,-1,40
 664 -27 664 -27 659 -36 c 128,-1,41
 654 -45 654 -45 649.5 -52 c 128,-1,42
 645 -59 645 -59 645 -65 c 0,43,44
 645 -73 645 -73 651 -78 c 128,-1,45
 657 -83 657 -83 671 -83 c 0,46,47
 681 -83 681 -83 690.5 -78.5 c 128,-1,48
 700 -74 700 -74 708 -61.5 c 128,-1,49
 716 -49 716 -49 724 -26 c 128,-1,50
 732 -3 732 -3 740 34 c 2,51,-1
 891 724 l 1,52,-1
 788 724 l 1,53,-1
 788 754 l 1,0,-1
EndSplineSet
EndChar

StartChar: uni01C8
Encoding: 456 456 328
Width: 913
Flags: W
LayerCount: 2
Fore
SplineSet
107 754 m 1,0,-1
 486 754 l 1,1,-1
 486 724 l 1,2,-1
 371 724 l 1,3,-1
 216 30 l 1,4,-1
 344 30 l 2,5,6
 374 30 374 30 404 40 c 128,-1,7
 434 50 434 50 464 73.5 c 128,-1,8
 494 97 494 97 523 135.5 c 128,-1,9
 552 174 552 174 581 232 c 1,10,-1
 621 232 l 1,11,-1
 561 0 l 1,12,-1
 -29 0 l 1,13,-1
 -29 30 l 1,14,-1
 69 30 l 1,15,-1
 220 724 l 1,16,-1
 107 724 l 1,17,-1
 107 754 l 1,0,-1
669 450 m 1,18,-1
 900 450 l 1,19,-1
 799 -3 l 2,20,21
 778 -98 778 -98 748.5 -160 c 128,-1,22
 719 -222 719 -222 685.5 -258.5 c 128,-1,23
 652 -295 652 -295 617.5 -309.5 c 128,-1,24
 583 -324 583 -324 551 -324 c 0,25,26
 528 -324 528 -324 507 -317.5 c 128,-1,27
 486 -311 486 -311 470.5 -300 c 128,-1,28
 455 -289 455 -289 446 -273 c 128,-1,29
 437 -257 437 -257 437 -237 c 0,30,31
 437 -211 437 -211 453.5 -195.5 c 128,-1,32
 470 -180 470 -180 499 -180 c 0,33,34
 525 -180 525 -180 540 -193.5 c 128,-1,35
 555 -207 555 -207 555 -236 c 0,36,37
 555 -248 555 -248 553 -256.5 c 128,-1,38
 551 -265 551 -265 551 -272 c 0,39,40
 551 -278 551 -278 554.5 -282.5 c 128,-1,41
 558 -287 558 -287 567 -287 c 0,42,43
 571 -287 571 -287 577.5 -283.5 c 128,-1,44
 584 -280 584 -280 592.5 -262.5 c 128,-1,45
 601 -245 601 -245 612.5 -209.5 c 128,-1,46
 624 -174 624 -174 638 -110 c 2,47,-1
 756 420 l 1,48,-1
 669 420 l 1,49,-1
 669 450 l 1,18,-1
783 656 m 256,50,51
 783 689 783 689 806 712 c 128,-1,52
 829 735 829 735 862 735 c 256,53,54
 895 735 895 735 918 712 c 128,-1,55
 941 689 941 689 941 656 c 256,56,57
 941 623 941 623 918 600 c 128,-1,58
 895 577 895 577 862 577 c 256,59,60
 829 577 829 577 806 600 c 128,-1,61
 783 623 783 623 783 656 c 256,50,51
EndSplineSet
EndChar

StartChar: uni01C9
Encoding: 457 457 329
Width: 599
Flags: W
LayerCount: 2
Fore
SplineSet
118 754 m 1,0,-1
 330 754 l 1,1,-1
 171 87 l 2,2,3
 168 74 168 74 167 65.5 c 128,-1,4
 166 57 166 57 166 54 c 0,5,6
 166 41 166 41 178 41 c 0,7,8
 192 41 192 41 216.5 66.5 c 128,-1,9
 241 92 241 92 266 161 c 1,10,-1
 291 152 l 1,11,12
 266 70 266 70 224 29.5 c 128,-1,13
 182 -11 182 -11 131 -11 c 0,14,15
 88 -11 88 -11 68 12.5 c 128,-1,16
 48 36 48 36 48 67 c 0,17,18
 48 79 48 79 50.5 96.5 c 128,-1,19
 53 114 53 114 57 132 c 2,20,-1
 189 724 l 1,21,-1
 118 724 l 1,22,-1
 118 754 l 1,0,-1
355 450 m 1,23,-1
 586 450 l 1,24,-1
 485 -3 l 2,25,26
 464 -98 464 -98 434.5 -160 c 128,-1,27
 405 -222 405 -222 371.5 -258.5 c 128,-1,28
 338 -295 338 -295 303.5 -309.5 c 128,-1,29
 269 -324 269 -324 237 -324 c 0,30,31
 214 -324 214 -324 193 -317.5 c 128,-1,32
 172 -311 172 -311 156.5 -300 c 128,-1,33
 141 -289 141 -289 132 -273 c 128,-1,34
 123 -257 123 -257 123 -237 c 0,35,36
 123 -211 123 -211 139.5 -195.5 c 128,-1,37
 156 -180 156 -180 185 -180 c 0,38,39
 211 -180 211 -180 226 -193.5 c 128,-1,40
 241 -207 241 -207 241 -236 c 0,41,42
 241 -248 241 -248 239 -256.5 c 128,-1,43
 237 -265 237 -265 237 -272 c 0,44,45
 237 -278 237 -278 240.5 -282.5 c 128,-1,46
 244 -287 244 -287 253 -287 c 0,47,48
 257 -287 257 -287 263.5 -283.5 c 128,-1,49
 270 -280 270 -280 278.5 -262.5 c 128,-1,50
 287 -245 287 -245 298.5 -209.5 c 128,-1,51
 310 -174 310 -174 324 -110 c 2,52,-1
 442 420 l 1,53,-1
 355 420 l 1,54,-1
 355 450 l 1,23,-1
469 656 m 256,55,56
 469 689 469 689 492 712 c 128,-1,57
 515 735 515 735 548 735 c 256,58,59
 581 735 581 735 604 712 c 128,-1,60
 627 689 627 689 627 656 c 256,61,62
 627 623 627 623 604 600 c 128,-1,63
 581 577 581 577 548 577 c 256,64,65
 515 577 515 577 492 600 c 128,-1,66
 469 623 469 623 469 656 c 256,55,56
EndSplineSet
EndChar

StartChar: uni01CA
Encoding: 458 458 330
Width: 1189
Flags: W
LayerCount: 2
Fore
SplineSet
127 754 m 1,0,-1
 384 754 l 1,1,-1
 607 285 l 1,2,-1
 611 285 l 1,3,-1
 706 724 l 1,4,-1
 612 724 l 1,5,-1
 612 754 l 1,6,-1
 830 754 l 1,7,-1
 830 724 l 1,8,-1
 746 724 l 1,9,-1
 586 -13 l 1,10,-1
 555 -13 l 1,11,-1
 255 637 l 1,12,-1
 251 637 l 1,13,-1
 252 645 l 1,14,-1
 118 30 l 1,15,-1
 222 30 l 1,16,-1
 222 0 l 1,17,-1
 -15 0 l 1,18,-1
 -15 30 l 1,19,-1
 78 30 l 1,20,-1
 229 724 l 1,21,-1
 127 724 l 1,22,-1
 127 754 l 1,0,-1
911 754 m 1,23,-1
 1240 754 l 1,24,-1
 1240 724 l 1,25,-1
 1166 724 l 1,26,-1
 1045 142 l 2,27,28
 1030 71 1030 71 1002.5 21.5 c 128,-1,29
 975 -28 975 -28 940.5 -59 c 128,-1,30
 906 -90 906 -90 866.5 -104.5 c 128,-1,31
 827 -119 827 -119 790 -119 c 0,32,33
 756 -119 756 -119 729.5 -109 c 128,-1,34
 703 -99 703 -99 685 -82.5 c 128,-1,35
 667 -66 667 -66 657.5 -45.5 c 128,-1,36
 648 -25 648 -25 648 -3 c 0,37,38
 648 13 648 13 653 28.5 c 128,-1,39
 658 44 658 44 668 56.5 c 128,-1,40
 678 69 678 69 692.5 76.5 c 128,-1,41
 707 84 707 84 725 84 c 0,42,43
 753 84 753 84 774.5 65.5 c 128,-1,44
 796 47 796 47 796 12 c 0,45,46
 796 -4 796 -4 791.5 -15.5 c 128,-1,47
 787 -27 787 -27 782 -36 c 128,-1,48
 777 -45 777 -45 772.5 -52 c 128,-1,49
 768 -59 768 -59 768 -65 c 0,50,51
 768 -73 768 -73 774 -78 c 128,-1,52
 780 -83 780 -83 794 -83 c 0,53,54
 804 -83 804 -83 813.5 -78.5 c 128,-1,55
 823 -74 823 -74 831 -61.5 c 128,-1,56
 839 -49 839 -49 847 -26 c 128,-1,57
 855 -3 855 -3 863 34 c 2,58,-1
 1014 724 l 1,59,-1
 911 724 l 1,60,-1
 911 754 l 1,23,-1
EndSplineSet
EndChar

StartChar: uni01CB
Encoding: 459 459 331
Width: 1036
Flags: W
LayerCount: 2
Fore
SplineSet
127 754 m 1,0,-1
 384 754 l 1,1,-1
 607 285 l 1,2,-1
 611 285 l 1,3,-1
 706 724 l 1,4,-1
 612 724 l 1,5,-1
 612 754 l 1,6,-1
 830 754 l 1,7,-1
 830 724 l 1,8,-1
 746 724 l 1,9,-1
 586 -13 l 1,10,-1
 555 -13 l 1,11,-1
 255 637 l 1,12,-1
 251 637 l 1,13,-1
 252 645 l 1,14,-1
 118 30 l 1,15,-1
 222 30 l 1,16,-1
 222 0 l 1,17,-1
 -15 0 l 1,18,-1
 -15 30 l 1,19,-1
 78 30 l 1,20,-1
 229 724 l 1,21,-1
 127 724 l 1,22,-1
 127 754 l 1,0,-1
792 450 m 1,23,-1
 1023 450 l 1,24,-1
 922 -3 l 2,25,26
 901 -98 901 -98 871.5 -160 c 128,-1,27
 842 -222 842 -222 808.5 -258.5 c 128,-1,28
 775 -295 775 -295 740.5 -309.5 c 128,-1,29
 706 -324 706 -324 674 -324 c 0,30,31
 651 -324 651 -324 630 -317.5 c 128,-1,32
 609 -311 609 -311 593.5 -300 c 128,-1,33
 578 -289 578 -289 569 -273 c 128,-1,34
 560 -257 560 -257 560 -237 c 0,35,36
 560 -211 560 -211 576.5 -195.5 c 128,-1,37
 593 -180 593 -180 622 -180 c 0,38,39
 648 -180 648 -180 663 -193.5 c 128,-1,40
 678 -207 678 -207 678 -236 c 0,41,42
 678 -248 678 -248 676 -256.5 c 128,-1,43
 674 -265 674 -265 674 -272 c 0,44,45
 674 -278 674 -278 677.5 -282.5 c 128,-1,46
 681 -287 681 -287 690 -287 c 0,47,48
 694 -287 694 -287 700.5 -283.5 c 128,-1,49
 707 -280 707 -280 715.5 -262.5 c 128,-1,50
 724 -245 724 -245 735.5 -209.5 c 128,-1,51
 747 -174 747 -174 761 -110 c 2,52,-1
 879 420 l 1,53,-1
 792 420 l 1,54,-1
 792 450 l 1,23,-1
906 656 m 256,55,56
 906 689 906 689 929 712 c 128,-1,57
 952 735 952 735 985 735 c 256,58,59
 1018 735 1018 735 1041 712 c 128,-1,60
 1064 689 1064 689 1064 656 c 256,61,62
 1064 623 1064 623 1041 600 c 128,-1,63
 1018 577 1018 577 985 577 c 256,64,65
 952 577 952 577 929 600 c 128,-1,66
 906 623 906 623 906 656 c 256,55,56
EndSplineSet
EndChar

StartChar: uni01CC
Encoding: 460 460 332
Width: 879
Flags: W
LayerCount: 2
Fore
SplineSet
49 450 m 1,0,-1
 280 450 l 1,1,-1
 255 351 l 1,2,-1
 262 351 l 1,3,4
 277 372 277 372 295.5 392 c 128,-1,5
 314 412 314 412 336.5 427.5 c 128,-1,6
 359 443 359 443 385.5 452.5 c 128,-1,7
 412 462 412 462 442 462 c 0,8,9
 462 462 462 462 480.5 457.5 c 128,-1,10
 499 453 499 453 513 443 c 128,-1,11
 527 433 527 433 535.5 418 c 128,-1,12
 544 403 544 403 544 382 c 0,13,14
 544 363 544 363 538 338 c 2,15,-1
 474 89 l 2,16,17
 471 76 471 76 470 68 c 128,-1,18
 469 60 469 60 469 55 c 0,19,20
 469 35 469 35 485 35 c 0,21,22
 504 35 504 35 530.5 62.5 c 128,-1,23
 557 90 557 90 584 155 c 1,24,-1
 609 146 l 1,25,26
 592 99 592 99 571.5 68.5 c 128,-1,27
 551 38 551 38 529 20.5 c 128,-1,28
 507 3 507 3 483 -4 c 128,-1,29
 459 -11 459 -11 435 -11 c 0,30,31
 388 -11 388 -11 362.5 11 c 128,-1,32
 337 33 337 33 337 75 c 0,33,34
 337 85 337 85 338 92.5 c 128,-1,35
 339 100 339 100 341 107 c 2,36,-1
 405 356 l 2,37,38
 407 363 407 363 408.5 374.5 c 128,-1,39
 410 386 410 386 410 394 c 0,40,41
 410 416 410 416 391 416 c 0,42,43
 378 416 378 416 356.5 404 c 128,-1,44
 335 392 335 392 311.5 370.5 c 128,-1,45
 288 349 288 349 265.5 318 c 128,-1,46
 243 287 243 287 230 248 c 2,47,-1
 168 0 l 1,48,-1
 35 0 l 1,49,-1
 136 420 l 1,50,-1
 49 420 l 1,51,-1
 49 450 l 1,0,-1
635 450 m 1,52,-1
 866 450 l 1,53,-1
 765 -3 l 2,54,55
 744 -98 744 -98 714.5 -160 c 128,-1,56
 685 -222 685 -222 651.5 -258.5 c 128,-1,57
 618 -295 618 -295 583.5 -309.5 c 128,-1,58
 549 -324 549 -324 517 -324 c 0,59,60
 494 -324 494 -324 473 -317.5 c 128,-1,61
 452 -311 452 -311 436.5 -300 c 128,-1,62
 421 -289 421 -289 412 -273 c 128,-1,63
 403 -257 403 -257 403 -237 c 0,64,65
 403 -211 403 -211 419.5 -195.5 c 128,-1,66
 436 -180 436 -180 465 -180 c 0,67,68
 491 -180 491 -180 506 -193.5 c 128,-1,69
 521 -207 521 -207 521 -236 c 0,70,71
 521 -248 521 -248 519 -256.5 c 128,-1,72
 517 -265 517 -265 517 -272 c 0,73,74
 517 -278 517 -278 520.5 -282.5 c 128,-1,75
 524 -287 524 -287 533 -287 c 0,76,77
 537 -287 537 -287 543.5 -283.5 c 128,-1,78
 550 -280 550 -280 558.5 -262.5 c 128,-1,79
 567 -245 567 -245 578.5 -209.5 c 128,-1,80
 590 -174 590 -174 604 -110 c 2,81,-1
 722 420 l 1,82,-1
 635 420 l 1,83,-1
 635 450 l 1,52,-1
749 656 m 256,84,85
 749 689 749 689 772 712 c 128,-1,86
 795 735 795 735 828 735 c 256,87,88
 861 735 861 735 884 712 c 128,-1,89
 907 689 907 689 907 656 c 256,90,91
 907 623 907 623 884 600 c 128,-1,92
 861 577 861 577 828 577 c 256,93,94
 795 577 795 577 772 600 c 128,-1,95
 749 623 749 623 749 656 c 256,84,85
EndSplineSet
EndChar

StartChar: Oogonek
Encoding: 490 490 333
Width: 789
Flags: W
LayerCount: 2
Fore
SplineSet
271 -237 m 0,0,1
 229 -237 229 -237 205.5 -218.5 c 128,-1,2
 182 -200 182 -200 182 -168 c 0,3,4
 182 -130 182 -130 217.5 -92 c 128,-1,5
 253 -54 253 -54 332 -9 c 1,6,7
 273 -3 273 -3 224 23 c 128,-1,8
 175 49 175 49 139.5 91 c 128,-1,9
 104 133 104 133 84.5 187.5 c 128,-1,10
 65 242 65 242 65 304 c 0,11,12
 65 388 65 388 101 470.5 c 128,-1,13
 137 553 137 553 197 618 c 128,-1,14
 257 683 257 683 335.5 723 c 128,-1,15
 414 763 414 763 500 763 c 0,16,17
 564 763 564 763 619 739.5 c 128,-1,18
 674 716 674 716 713.5 674.5 c 128,-1,19
 753 633 753 633 775.5 576.5 c 128,-1,20
 798 520 798 520 798 454 c 0,21,22
 798 371 798 371 763.5 289.5 c 128,-1,23
 729 208 729 208 670.5 142.5 c 128,-1,24
 612 77 612 77 536 35.5 c 128,-1,25
 460 -6 460 -6 378 -10 c 1,26,27
 330 -41 330 -41 302.5 -74 c 128,-1,28
 275 -107 275 -107 275 -136 c 0,29,30
 275 -155 275 -155 288 -165.5 c 128,-1,31
 301 -176 301 -176 324 -176 c 0,32,33
 338 -176 338 -176 356.5 -171 c 128,-1,34
 375 -166 375 -166 400 -155 c 1,35,-1
 415 -186 l 1,36,37
 404 -197 404 -197 387.5 -206 c 128,-1,38
 371 -215 371 -215 351.5 -222 c 128,-1,39
 332 -229 332 -229 311 -233 c 128,-1,40
 290 -237 290 -237 271 -237 c 0,0,1
357 21 m 0,41,42
 409 21 409 21 449 47.5 c 128,-1,43
 489 74 489 74 518.5 118 c 128,-1,44
 548 162 548 162 568.5 218 c 128,-1,45
 589 274 589 274 601 333 c 128,-1,46
 613 392 613 392 618.5 448.5 c 128,-1,47
 624 505 624 505 624 551 c 0,48,49
 624 581 624 581 620.5 612.5 c 128,-1,50
 617 644 617 644 604.5 670.5 c 128,-1,51
 592 697 592 697 568 714 c 128,-1,52
 544 731 544 731 503 731 c 0,53,54
 452 731 452 731 412.5 704.5 c 128,-1,55
 373 678 373 678 343.5 634 c 128,-1,56
 314 590 314 590 294 533.5 c 128,-1,57
 274 477 274 477 261.5 417.5 c 128,-1,58
 249 358 249 358 243.5 299.5 c 128,-1,59
 238 241 238 241 238 194 c 0,60,61
 238 192 238 192 238 185 c 128,-1,62
 238 178 238 178 239 170 c 0,63,64
 244 96 244 96 270.5 58.5 c 128,-1,65
 297 21 297 21 357 21 c 0,41,42
EndSplineSet
EndChar

